SplineFontDB: 3.0
FontName: Aharoni-True
FullName: Aharoni True
FamilyName: Aharoni True
Weight: Bold
Copyright: (c) 1991-1993 Kivun Computers Ltd. Portions (c) The Monotype Corporation
Version: 5.02
ItalicAngle: 0
UnderlinePosition: -733
UnderlineWidth: 149
Ascent: 1505
Descent: 543
InvalidEm: 0
sfntRevision: 0x00180000
LayerCount: 2
Layer: 0 1 "Back" 1
Layer: 1 1 "Fore" 0
XUID: [1021 520 1275745497 8160]
StyleMap: 0x0000
FSType: 8
OS2Version: 1
OS2_WeightWidthSlopeOnly: 0
OS2_UseTypoMetrics: 0
CreationTime: 791214060
ModificationTime: 1443974261
PfmFamily: 17
TTFWeight: 700
TTFWidth: 5
LineGap: 0
VLineGap: 0
Panose: 2 1 8 3 2 1 4 3 2 3
OS2TypoAscent: 1505
OS2TypoAOffset: 0
OS2TypoDescent: -543
OS2TypoDOffset: 0
OS2TypoLinegap: 0
OS2WinAscent: 2397
OS2WinAOffset: 0
OS2WinDescent: 538
OS2WinDOffset: 0
HheadAscent: 2397
HheadAOffset: 0
HheadDescent: -563
HheadDOffset: 0
OS2SubXSize: 1434
OS2SubYSize: 1331
OS2SubXOff: 0
OS2SubYOff: 293
OS2SupXSize: 1434
OS2SupYSize: 1331
OS2SupXOff: 0
OS2SupYOff: 928
OS2StrikeYSize: 102
OS2StrikeYPos: 530
OS2Vendor: '    '
OS2CodePages: 00000020.00200000
OS2UnicodeRanges: 00000801.00000000.00000000.00000000
Lookup: 1 0 0 "'rtla' Right to Left Alternates lookup 0" { "'rtla' Right to Left Alternates lookup 0 subtable"  } ['rtla' ('DFLT' <'dflt' > ) ]
Lookup: 4 0 0 "'dlig' Discretionary Ligatures in Hebrew lookup 1" { "'dlig' Discretionary Ligatures in Hebrew lookup 1 subtable"  } ['dlig' ('hebr' <'dflt' > ) ]
DEI: 91125
TtTable: prep
NPUSHB
 45
 36
 8
 34
 8
 32
 8
 30
 8
 28
 8
 26
 8
 24
 8
 22
 8
 20
 8
 18
 8
 16
 8
 14
 8
 12
 8
 10
 8
 8
 8
 6
 8
 4
 8
 2
 8
 0
 8
 0
 70
 70
 0
 0
 0
 0
MPPEM
PUSHB_1
 192
MUL
SVTCA[y-axis]
MPPEM
DIV
DUP
PUSHB_1
 246
GTEQ
SWAP
PUSHW_1
 266
LTEQ
AND
PUSHB_1
 5
SWAP
WS
SVTCA[x-axis]
PUSHB_1
 18
MPPEM
SVTCA[y-axis]
MPPEM
EQ
WS
SVTCA[y-axis]
PUSHW_2
 1
 1984
SCANCTRL
SCANTYPE
SZPS
SZPS
SRP0
WCVTF
MIAP[no-rnd]
PUSHB_2
 6
 6
RCVT
PUSHB_1
 8
ADD
WCVTP
CALL
CALL
CALL
CALL
CALL
CALL
CALL
CALL
CALL
CALL

StartChar: .notdef
Encoding: 65536 -1 0
Width: 1024
Flags: W
LayerCount: 2
Fore
SplineSet
127 0 m 1,0,-1
 127 1505 l 1,1,-1
 897 1505 l 1,2,-1
 897 0 l 1,3,-1
 127 0 l 1,0,-1
256 127 m 1,4,-1
 768 127 l 1,5,-1
 768 1376 l 1,6,-1
 256 1376 l 1,7,-1
 256 127 l 1,4,-1
EndSplineSet
Validated: 1
EndChar

StartChar: exclam
Encoding: 33 33 4
Width: 359
GlyphClass: 2
Flags: W
LayerCount: 2
Fore
SplineSet
152 -24 m 0,0,1
 98 -24 98 -24 69 9 c 128,-1,2
 40 42 40 42 40 90 c 0,3,4
 40 142 40 142 74 178 c 128,-1,5
 108 214 108 214 164 214 c 0,6,7
 218 214 218 214 248 181 c 128,-1,8
 278 148 278 148 278 100 c 0,9,10
 278 48 278 48 243 12 c 128,-1,11
 208 -24 208 -24 152 -24 c 0,0,1
130 420 m 1,12,-1
 114 1332 l 1,13,-1
 128 1352 l 1,14,-1
 294 1388 l 1,15,-1
 312 1366 l 1,16,-1
 208 418 l 1,17,-1
 152 404 l 1,18,-1
 130 420 l 1,12,-1
EndSplineSet
Validated: 1
EndChar

StartChar: quotedbl
Encoding: 34 34 5
Width: 540
GlyphClass: 2
Flags: W
LayerCount: 2
Fore
SplineSet
216 1298 m 1,0,-1
 230 1282 l 1,1,2
 202 1062 202 1062 160 858 c 1,3,-1
 110 830 l 1,4,-1
 88 834 l 1,5,6
 90 899 90 899 90 959 c 0,7,8
 90 997 90 997 89 1045 c 0,9,10
 87 1125 87 1125 81 1206 c 2,11,-1
 76 1270 l 1,12,-1
 216 1298 l 1,0,-1
460 1298 m 1,13,-1
 474 1282 l 1,14,15
 446 1062 446 1062 404 858 c 1,16,-1
 354 830 l 1,17,-1
 332 834 l 1,18,19
 334 899 334 899 334 959 c 0,20,21
 334 997 334 997 333 1045 c 0,22,23
 331 1125 331 1125 325 1206 c 2,24,-1
 320 1270 l 1,25,-1
 460 1298 l 1,13,-1
EndSplineSet
Validated: 1
EndChar

StartChar: numbersign
Encoding: 35 35 6
Width: 1006
GlyphClass: 2
Flags: W
LayerCount: 2
Fore
SplineSet
118 724 m 1,0,-1
 112 744 l 1,1,-1
 142 818 l 1,2,-1
 356 816 l 1,3,-1
 430 1136 l 1,4,-1
 510 1146 l 1,5,-1
 526 1134 l 1,6,-1
 448 814 l 1,7,-1
 554 814 l 1,8,-1
 660 812 l 1,9,-1
 734 1136 l 1,10,-1
 814 1146 l 1,11,-1
 830 1134 l 1,12,-1
 752 812 l 1,13,-1
 968 812 l 1,14,-1
 976 794 l 1,15,-1
 938 722 l 1,16,-1
 730 724 l 1,17,-1
 712 646 l 1,18,-1
 680 504 l 1,19,-1
 894 504 l 1,20,-1
 902 486 l 1,21,-1
 864 414 l 1,22,-1
 660 416 l 1,23,-1
 588 86 l 1,24,-1
 510 70 l 1,25,-1
 496 82 l 1,26,-1
 570 418 l 1,27,-1
 430 420 l 1,28,-1
 358 418 l 1,29,-1
 284 86 l 1,30,-1
 206 70 l 1,31,-1
 192 82 l 1,32,-1
 266 418 l 1,33,-1
 44 416 l 1,34,-1
 38 436 l 1,35,-1
 68 510 l 1,36,-1
 286 508 l 1,37,-1
 312 622 l 1,38,-1
 336 726 l 1,39,-1
 118 724 l 1,0,-1
408 646 m 1,40,-1
 376 506 l 1,41,-1
 480 506 l 1,42,-1
 590 504 l 1,43,-1
 616 622 l 1,44,-1
 640 726 l 1,45,-1
 504 728 l 1,46,-1
 428 726 l 1,47,-1
 408 646 l 1,40,-1
EndSplineSet
Validated: 1
EndChar

StartChar: dollar
Encoding: 36 36 7
Width: 788
GlyphClass: 2
Flags: W
LayerCount: 2
Fore
SplineSet
508 1298 m 1,0,-1
 480 1014 l 1,1,2
 542 1012 542 1012 602 1003 c 128,-1,3
 662 994 662 994 690 985 c 2,4,-1
 718 976 l 1,5,-1
 726 962 l 1,6,7
 698 840 698 840 688 698 c 1,8,-1
 610 690 l 1,9,-1
 598 698 l 1,10,11
 602 728 602 728 602 770 c 0,12,13
 602 836 602 836 572 868 c 128,-1,14
 542 900 542 900 470 908 c 1,15,-1
 438 576 l 2,16,17
 440 574 440 574 444 574 c 0,18,19
 504 546 504 546 531 533 c 128,-1,20
 558 520 558 520 608 489 c 128,-1,21
 658 458 658 458 681 433 c 128,-1,22
 704 408 704 408 724 369 c 128,-1,23
 744 330 744 330 744 288 c 0,24,25
 744 164 744 164 644 81 c 128,-1,26
 544 -2 544 -2 382 -16 c 1,27,-1
 356 -302 l 1,28,-1
 304 -308 l 1,29,-1
 294 -294 l 1,30,-1
 320 -18 l 1,31,32
 250 -18 250 -18 185 -4 c 128,-1,33
 120 10 120 10 90 23 c 2,34,-1
 60 36 l 1,35,-1
 50 54 l 1,36,37
 72 180 72 180 72 324 c 1,38,-1
 162 332 l 1,39,40
 162 186 162 186 195 135 c 128,-1,41
 228 84 228 84 328 78 c 1,42,-1
 362 428 l 1,43,44
 342 436 342 436 334 442 c 0,45,46
 272 472 272 472 234 494 c 128,-1,47
 196 516 196 516 153 550 c 128,-1,48
 110 584 110 584 89 626 c 128,-1,49
 68 668 68 668 68 718 c 0,50,51
 68 836 68 836 166 918 c 128,-1,52
 264 1000 264 1000 416 1012 c 1,53,-1
 444 1308 l 1,54,-1
 496 1316 l 1,55,-1
 508 1298 l 1,0,-1
580 232 m 0,56,57
 580 320 580 320 422 398 c 1,58,-1
 392 78 l 1,59,60
 478 84 478 84 529 125 c 128,-1,61
 580 166 580 166 580 232 c 0,56,57
222 772 m 0,62,63
 222 722 222 722 262 684 c 128,-1,64
 302 646 302 646 378 606 c 1,65,-1
 406 910 l 1,66,67
 326 906 326 906 274 868 c 128,-1,68
 222 830 222 830 222 772 c 0,62,63
EndSplineSet
Validated: 1
EndChar

StartChar: percent
Encoding: 37 37 8
Width: 1336
GlyphClass: 2
Flags: W
LayerCount: 2
Fore
SplineSet
340 780 m 0,0,1
 410 780 410 780 464 819 c 128,-1,2
 518 858 518 858 518 954 c 0,3,4
 518 1046 518 1046 462 1106 c 128,-1,5
 406 1166 406 1166 310 1166 c 0,6,7
 230 1166 230 1166 183 1118 c 128,-1,8
 136 1070 136 1070 136 992 c 0,9,10
 136 886 136 886 197 833 c 128,-1,11
 258 780 258 780 340 780 c 0,0,1
312 652 m 0,12,13
 186 652 186 652 114 739 c 128,-1,14
 42 826 42 826 42 964 c 0,15,16
 42 1108 42 1108 127 1203 c 128,-1,17
 212 1298 212 1298 344 1298 c 0,18,19
 474 1298 474 1298 543 1210 c 128,-1,20
 612 1122 612 1122 612 1000 c 0,21,22
 612 856 612 856 531 754 c 128,-1,23
 450 652 450 652 312 652 c 0,12,13
1018 104 m 0,24,25
 1088 104 1088 104 1142 143 c 128,-1,26
 1196 182 1196 182 1196 278 c 0,27,28
 1196 370 1196 370 1140 430 c 128,-1,29
 1084 490 1084 490 988 490 c 0,30,31
 908 490 908 490 861 442 c 128,-1,32
 814 394 814 394 814 316 c 0,33,34
 814 210 814 210 875 157 c 128,-1,35
 936 104 936 104 1018 104 c 0,24,25
990 -24 m 0,36,37
 866 -24 866 -24 793 63 c 128,-1,38
 720 150 720 150 720 288 c 0,39,40
 720 432 720 432 805 527 c 128,-1,41
 890 622 890 622 1022 622 c 0,42,43
 1152 622 1152 622 1221 534 c 128,-1,44
 1290 446 1290 446 1290 324 c 0,45,46
 1290 180 1290 180 1209 78 c 128,-1,47
 1128 -24 1128 -24 990 -24 c 0,36,37
1146 1318 m 1,48,-1
 1156 1290 l 1,49,50
 808 772 808 772 632 490 c 2,51,-1
 202 -190 l 1,52,-1
 126 -152 l 1,53,-1
 116 -128 l 1,54,55
 378 270 378 270 556 550 c 2,56,-1
 1068 1356 l 1,57,-1
 1146 1318 l 1,48,-1
EndSplineSet
Validated: 1
EndChar

StartChar: ampersand
Encoding: 38 38 9
Width: 1371
GlyphClass: 2
Flags: W
LayerCount: 2
Fore
SplineSet
588 602 m 2,0,-1
 908 326 l 1,1,2
 944 398 944 398 944 498 c 0,3,4
 944 734 944 734 788 734 c 0,5,6
 764 734 764 734 735 729 c 128,-1,7
 706 724 706 724 690 720 c 2,8,-1
 674 716 l 1,9,-1
 646 802 l 1,10,11
 688 834 688 834 752 838 c 2,12,-1
 1164 862 l 1,13,14
 1314 876 1314 876 1318 884 c 1,15,-1
 1338 836 l 1,16,-1
 1312 774 l 2,17,18
 1298 748 1298 748 1274 741 c 128,-1,19
 1250 734 1250 734 1172 734 c 2,20,-1
 972 734 l 1,21,-1
 966 722 l 1,22,23
 1050 648 1050 648 1050 526 c 0,24,25
 1050 398 1050 398 970 274 c 1,26,-1
 1250 38 l 1,27,-1
 1250 6 l 1,28,29
 1156 -56 1156 -56 1126 -56 c 0,30,31
 1108 -56 1108 -56 872 156 c 1,32,33
 788 72 788 72 682 24 c 128,-1,34
 576 -24 576 -24 474 -24 c 0,35,36
 278 -24 278 -24 162 69 c 128,-1,37
 46 162 46 162 46 320 c 0,38,39
 46 384 46 384 73 442 c 128,-1,40
 100 500 100 500 139 537 c 128,-1,41
 178 574 178 574 217 601 c 128,-1,42
 256 628 256 628 283 640 c 2,43,-1
 310 652 l 1,44,-1
 310 666 l 1,45,46
 146 838 146 838 146 980 c 0,47,48
 146 1116 146 1116 260 1207 c 128,-1,49
 374 1298 374 1298 544 1298 c 0,50,51
 608 1298 608 1298 669 1287 c 128,-1,52
 730 1276 730 1276 758 1264 c 2,53,-1
 786 1252 l 1,54,-1
 790 1222 l 1,55,-1
 694 1074 l 1,56,-1
 674 1072 l 1,57,58
 604 1136 604 1136 561 1158 c 128,-1,59
 518 1180 518 1180 462 1180 c 0,60,61
 382 1180 382 1180 334 1139 c 128,-1,62
 286 1098 286 1098 286 1028 c 0,63,64
 286 930 286 930 348 842 c 128,-1,65
 410 754 410 754 588 602 c 2,0,-1
818 204 m 1,66,-1
 368 606 l 1,67,68
 290 570 290 570 243 503 c 128,-1,69
 196 436 196 436 196 360 c 0,70,71
 196 242 196 242 287 172 c 128,-1,72
 378 102 378 102 530 102 c 0,73,74
 700 102 700 102 818 204 c 1,66,-1
EndSplineSet
Validated: 1
EndChar

StartChar: quotesingle
Encoding: 39 39 10
Width: 296
GlyphClass: 2
Flags: W
LayerCount: 2
Fore
SplineSet
216 1298 m 1,0,-1
 230 1282 l 1,1,2
 202 1062 202 1062 160 858 c 1,3,-1
 110 830 l 1,4,-1
 88 834 l 1,5,6
 90 899 90 899 90 959 c 0,7,8
 90 997 90 997 89 1045 c 0,9,10
 87 1125 87 1125 81 1206 c 2,11,-1
 76 1270 l 1,12,-1
 216 1298 l 1,0,-1
EndSplineSet
Validated: 1
EndChar

StartChar: parenleft
Encoding: 40 40 11
Width: 525
GlyphClass: 2
Flags: W
LayerCount: 2
Fore
SplineSet
73 326 m 2,0,-1
 73 672 l 2,1,2
 73 810 73 810 112 925 c 128,-1,3
 151 1040 151 1040 206 1106 c 128,-1,4
 261 1172 261 1172 316 1218 c 128,-1,5
 371 1264 371 1264 410 1281 c 2,6,-1
 449 1298 l 1,7,-1
 457 1298 l 1,8,-1
 483 1240 l 1,9,-1
 481 1232 l 1,10,11
 469 1228 469 1228 451 1217 c 128,-1,12
 433 1206 433 1206 386 1164 c 128,-1,13
 339 1122 339 1122 303 1068 c 128,-1,14
 267 1014 267 1014 237 916 c 128,-1,15
 207 818 207 818 207 702 c 2,16,-1
 207 356 l 2,17,18
 207 232 207 232 236 125 c 128,-1,19
 265 18 265 18 308 -44 c 128,-1,20
 351 -106 351 -106 393 -151 c 128,-1,21
 435 -196 435 -196 464 -213 c 2,22,-1
 493 -230 l 1,23,-1
 493 -240 l 1,24,-1
 451 -292 l 1,25,-1
 443 -292 l 2,26,27
 435 -290 435 -290 422 -284 c 128,-1,28
 409 -278 409 -278 370 -254 c 128,-1,29
 331 -230 331 -230 296 -201 c 128,-1,30
 261 -172 261 -172 219 -120 c 128,-1,31
 177 -68 177 -68 146 -8 c 128,-1,32
 115 52 115 52 94 140 c 128,-1,33
 73 228 73 228 73 326 c 2,0,-1
EndSplineSet
Validated: 1
Substitution2: "'rtla' Right to Left Alternates lookup 0 subtable" parenright
EndChar

StartChar: parenright
Encoding: 41 41 12
Width: 523
GlyphClass: 2
Flags: W
LayerCount: 2
Fore
SplineSet
453 680 m 2,0,-1
 453 334 l 2,1,2
 453 196 453 196 414 81 c 128,-1,3
 375 -34 375 -34 320 -100 c 128,-1,4
 265 -166 265 -166 210 -212 c 128,-1,5
 155 -258 155 -258 116 -275 c 2,6,-1
 77 -292 l 1,7,-1
 69 -292 l 1,8,-1
 43 -234 l 1,9,-1
 45 -226 l 1,10,11
 57 -222 57 -222 75 -211 c 128,-1,12
 93 -200 93 -200 140 -158 c 128,-1,13
 187 -116 187 -116 223 -62 c 128,-1,14
 259 -8 259 -8 289 90 c 128,-1,15
 319 188 319 188 319 304 c 2,16,-1
 319 650 l 2,17,18
 319 774 319 774 290 881 c 128,-1,19
 261 988 261 988 218 1050 c 128,-1,20
 175 1112 175 1112 133 1157 c 128,-1,21
 91 1202 91 1202 62 1219 c 2,22,-1
 33 1236 l 1,23,-1
 33 1246 l 1,24,-1
 75 1298 l 1,25,-1
 83 1298 l 2,26,27
 91 1296 91 1296 104 1290 c 128,-1,28
 117 1284 117 1284 156 1260 c 128,-1,29
 195 1236 195 1236 230 1207 c 128,-1,30
 265 1178 265 1178 307 1126 c 128,-1,31
 349 1074 349 1074 380 1014 c 128,-1,32
 411 954 411 954 432 866 c 128,-1,33
 453 778 453 778 453 680 c 2,0,-1
EndSplineSet
Validated: 1
Substitution2: "'rtla' Right to Left Alternates lookup 0 subtable" parenleft
EndChar

StartChar: asterisk
Encoding: 42 42 13
Width: 756
GlyphClass: 2
Flags: W
LayerCount: 2
Fore
SplineSet
96 1332 m 1,0,1
 206 1274 206 1274 296 1206 c 1,2,-1
 284 1140 l 1,3,-1
 272 1130 l 1,4,-1
 60 1188 l 1,5,6
 60 1264 60 1264 78 1324 c 1,7,-1
 96 1332 l 1,0,1
106 946 m 1,8,9
 194 1034 194 1034 288 1098 c 1,10,-1
 346 1066 l 1,11,-1
 352 1052 l 1,12,13
 324 1014 324 1014 294 968 c 128,-1,14
 264 922 264 922 248 895 c 2,15,-1
 232 868 l 1,16,17
 160 892 160 892 108 928 c 1,18,-1
 106 946 l 1,8,9
476 836 m 1,19,20
 420 948 420 948 388 1056 c 1,21,-1
 436 1102 l 1,22,-1
 452 1104 l 1,23,24
 480 1064 480 1064 514 1021 c 128,-1,25
 548 978 548 978 568 955 c 2,26,-1
 588 932 l 1,27,28
 544 872 544 872 494 834 c 1,29,-1
 476 836 l 1,19,20
694 1154 m 1,30,31
 680 1152 680 1152 656 1149 c 0,32,33
 642 1147 642 1147 570 1142 c 0,34,35
 529 1139 529 1139 493 1139 c 0,36,37
 469 1140 469 1140 458 1140 c 1,38,-1
 430 1198 l 1,39,-1
 432 1214 l 1,40,41
 478 1228 478 1228 530 1248 c 128,-1,42
 582 1268 582 1268 610 1280 c 2,43,-1
 638 1292 l 1,44,45
 682 1230 682 1230 702 1172 c 1,46,-1
 694 1154 l 1,30,31
460 1460 m 1,47,48
 438 1338 438 1338 402 1232 c 1,49,-1
 334 1222 l 1,50,-1
 322 1230 l 1,51,-1
 312 1450 l 1,52,53
 384 1474 384 1474 446 1474 c 1,54,-1
 460 1460 l 1,47,48
EndSplineSet
Validated: 1
EndChar

StartChar: plus
Encoding: 43 43 14
Width: 1042
GlyphClass: 2
Flags: W
LayerCount: 2
Fore
SplineSet
562 1000 m 1,0,-1
 582 988 l 1,1,2
 570 742 570 742 570 582 c 1,3,-1
 978 594 l 1,4,-1
 990 574 l 1,5,-1
 974 472 l 1,6,-1
 570 470 l 1,7,-1
 572 82 l 1,8,-1
 474 60 l 1,9,-1
 456 72 l 1,10,11
 458 294 458 294 458 470 c 1,12,-1
 62 468 l 1,13,-1
 50 486 l 1,14,-1
 72 584 l 1,15,16
 284 582 284 582 458 582 c 1,17,-1
 460 984 l 1,18,-1
 562 1000 l 1,0,-1
EndSplineSet
Validated: 1
EndChar

StartChar: comma
Encoding: 44 44 15
Width: 437
GlyphClass: 2
Flags: W
LayerCount: 2
Fore
SplineSet
144 118 m 1,0,-1
 148 146 l 1,1,2
 216 198 216 198 264 198 c 0,3,4
 308 198 308 198 337 157 c 128,-1,5
 366 116 366 116 366 42 c 0,6,7
 366 -62 366 -62 282 -155 c 128,-1,8
 198 -248 198 -248 86 -314 c 1,9,-1
 50 -284 l 1,10,-1
 50 -264 l 1,11,12
 120 -216 120 -216 164 -150 c 128,-1,13
 208 -84 208 -84 208 -22 c 0,14,15
 208 58 208 58 144 118 c 1,0,-1
EndSplineSet
Validated: 1
EndChar

StartChar: hyphenminus
Encoding: 45 45 16
Width: 661
GlyphClass: 2
Flags: W
LayerCount: 2
Fore
SplineSet
570 598 m 1,0,-1
 584 580 l 1,1,-1
 574 472 l 1,2,-1
 94 420 l 1,3,-1
 80 436 l 1,4,-1
 92 540 l 1,5,-1
 440 580 l 1,6,-1
 570 598 l 1,0,-1
EndSplineSet
Validated: 1
EndChar

StartChar: period
Encoding: 46 46 17
Width: 383
GlyphClass: 2
Flags: W
LayerCount: 2
Fore
SplineSet
184 -24 m 0,0,1
 130 -24 130 -24 101 9 c 128,-1,2
 72 42 72 42 72 90 c 0,3,4
 72 142 72 142 106 178 c 128,-1,5
 140 214 140 214 196 214 c 0,6,7
 250 214 250 214 280 181 c 128,-1,8
 310 148 310 148 310 100 c 0,9,10
 310 48 310 48 275 12 c 128,-1,11
 240 -24 240 -24 184 -24 c 0,0,1
EndSplineSet
Validated: 1
EndChar

StartChar: slash
Encoding: 47 47 18
Width: 578
GlyphClass: 2
Flags: W
LayerCount: 2
Fore
SplineSet
532 1350 m 1,0,-1
 548 1330 l 1,1,2
 390 754 390 754 304 430 c 2,3,-1
 136 -220 l 1,4,-1
 40 -220 l 1,5,-1
 26 -204 l 1,6,7
 132 148 132 148 210 452 c 2,8,-1
 440 1350 l 1,9,-1
 532 1350 l 1,0,-1
EndSplineSet
Validated: 1
EndChar

StartChar: zero
Encoding: 48 48 19
Width: 1261
GlyphClass: 2
Flags: W
LayerCount: 2
Fore
SplineSet
597 -30 m 0,0,1
 355 -30 355 -30 207.5 140 c 128,-1,2
 60 310 60 310 60 588 c 0,3,4
 60 880 60 880 232.5 1071 c 128,-1,5
 405 1262 405 1262 667 1262 c 0,6,7
 905 1262 905 1262 1054 1094 c 256,8,9
 1203 926 1203 926 1203 658 c 0,10,11
 1203 360 1203 360 1031 165 c 128,-1,12
 859 -30 859 -30 597 -30 c 0,0,1
643 160 m 0,13,14
 831 160 831 160 947 279 c 128,-1,15
 1063 398 1063 398 1063 588 c 0,16,17
 1063 796 1063 796 938 928 c 128,-1,18
 813 1060 813 1060 615 1060 c 0,19,20
 427 1060 427 1060 313.5 941 c 128,-1,21
 200 822 200 822 200 625 c 0,22,23
 200 417 200 417 322.5 288.5 c 128,-1,24
 445 160 445 160 643 160 c 0,13,14
EndSplineSet
Validated: 1
EndChar

StartChar: one
Encoding: 49 49 20
Width: 776
GlyphClass: 2
Flags: W
LayerCount: 2
Fore
SplineSet
500 1010 m 0,0,1
 484 612 484 612 484 280 c 0,2,3
 484 180 484 180 509 145 c 128,-1,4
 534 110 534 110 607 110 c 1,5,-1
 740 118 l 1,6,-1
 744 108 l 1,7,-1
 722 -8 l 1,8,9
 512 0 512 0 390 0 c 0,10,11
 332 0 332 0 253 -8 c 0,12,13
 174 -14 174 -14 124 -22 c 2,14,-1
 74 -30 l 1,15,-1
 90 85 l 1,16,17
 230 97 230 97 272 151 c 128,-1,18
 314 205 314 205 314 370 c 2,19,-1
 314 940 l 2,20,21
 314 1028 314 1028 283 1055 c 128,-1,22
 252 1082 252 1082 180 1082 c 1,23,-1
 47 1068 l 1,24,-1
 40 1075 l 1,25,-1
 50 1180 l 1,26,27
 198 1198 198 1198 324 1218 c 0,28,29
 524 1250 524 1250 573 1261 c 2,30,-1
 577 1262 l 1,31,-1
 592 1220 l 1,32,33
 542 1178 542 1178 523.5 1136.5 c 128,-1,34
 505 1095 505 1095 500 1010 c 0,0,1
EndSplineSet
Validated: 1
EndChar

StartChar: two
Encoding: 50 50 21
Width: 1131
GlyphClass: 2
Flags: W
LayerCount: 2
Fore
SplineSet
55 -30 m 1,0,-1
 30 15 l 1,1,-1
 228 235 l 1,2,3
 635 696 635 696 635 904 c 2,4,5
 635 904 635 904 635 905 c 0,6,7
 635 995 635 995 585 1045 c 0,8,9
 536 1095 536 1095 448 1095 c 0,10,11
 363 1095 363 1095 280 1035 c 0,12,13
 198 974 198 974 140 872 c 1,14,-1
 118 872 l 1,15,-1
 90 985 l 1,16,17
 152 1105 152 1105 272 1183.5 c 128,-1,18
 392 1262 392 1262 512 1262 c 0,19,20
 667 1262 667 1262 761 1180 c 128,-1,21
 855 1098 855 1098 855 962 c 0,22,23
 855 850 855 850 742.5 684 c 128,-1,24
 630 518 630 518 322 170 c 1,25,-1
 332 152 l 1,26,-1
 715 152 l 2,27,28
 853 152 853 152 905.5 195 c 128,-1,29
 958 238 958 238 995 380 c 1,30,-1
 1095 392 l 1,31,32
 1042 182 1042 182 1022 0 c 1,33,-1
 992 -18 l 1,34,35
 404 0 404 0 190 0 c 1,36,-1
 55 -30 l 1,0,-1
EndSplineSet
Validated: 1
EndChar

StartChar: three
Encoding: 51 51 22
Width: 887
GlyphClass: 2
Flags: W
LayerCount: 2
Fore
SplineSet
37 132 m 1,0,-1
 48 144 l 1,1,2
 148 125 148 125 238 125 c 0,3,4
 417 125 417 125 537.5 206 c 128,-1,5
 658 287 658 287 658 409 c 0,6,7
 658 624 658 624 234 626 c 1,8,-1
 221 636 l 1,9,-1
 210 711 l 1,10,-1
 364 745 l 1,11,12
 459 787 459 787 519.5 856 c 128,-1,13
 580 925 580 925 580 995 c 0,14,15
 580 1062 580 1062 527 1103.5 c 128,-1,16
 474 1145 474 1145 395 1145 c 0,17,18
 329 1145 329 1145 254 1115 c 0,19,20
 180 1086 180 1086 124 1036 c 1,21,-1
 101 1036 l 1,22,-1
 77 1125 l 1,23,24
 101 1142 101 1142 142 1168 c 128,-1,25
 183 1194 183 1194 286.5 1236.5 c 128,-1,26
 390 1279 390 1279 468 1279 c 0,27,28
 609 1279 609 1279 693.5 1214 c 128,-1,29
 778 1149 778 1149 778 1040 c 0,30,31
 778 954 778 954 707 873 c 128,-1,32
 636 792 636 792 516 737 c 1,33,-1
 516 726 l 1,34,35
 837 657 837 657 837 461 c 0,36,37
 837 290 837 290 627 133 c 128,-1,38
 417 -24 417 -24 189 -24 c 0,39,40
 108 -24 108 -24 73.5 12 c 128,-1,41
 39 48 39 48 37 132 c 1,0,-1
EndSplineSet
Validated: 1
EndChar

StartChar: four
Encoding: 52 52 23
Width: 1068
GlyphClass: 2
Flags: W
LayerCount: 2
Fore
SplineSet
40 390 m 1,0,-1
 50 469 l 1,1,-1
 705 1277 l 1,2,-1
 710 1278 l 1,3,-1
 715 1279 l 1,4,-1
 791 1258 l 1,5,-1
 791 506 l 1,6,-1
 1012 506 l 1,7,-1
 1026 489 l 1,8,-1
 1007 371 l 1,9,10
 920 373 920 373 791 378 c 1,11,-1
 808 16 l 1,12,-1
 795 2 l 1,13,-1
 627 -24 l 1,14,-1
 613 -5 l 1,15,16
 624 216 624 216 627 381 c 1,17,18
 260 390 260 390 40 390 c 1,0,-1
605 985 m 1,19,-1
 223 506 l 1,20,-1
 627 506 l 1,21,-1
 627 985 l 1,22,-1
 605 985 l 1,19,-1
EndSplineSet
Validated: 1
EndChar

StartChar: five
Encoding: 53 53 24
Width: 938
GlyphClass: 2
Flags: W
LayerCount: 2
Fore
SplineSet
860 474 m 0,0,1
 860 350 860 350 750 231.5 c 128,-1,2
 640 113 640 113 483 44.5 c 128,-1,3
 326 -24 326 -24 184 -24 c 0,4,5
 110 -24 110 -24 74.5 9 c 128,-1,6
 39 42 39 42 34 132 c 1,7,-1
 46 144 l 1,8,9
 141 125 141 125 230 125 c 0,10,11
 234 125 234 125 239 125 c 0,12,13
 429 125 429 125 554.5 204.5 c 128,-1,14
 680 284 680 284 680 409 c 0,15,16
 680 513 680 513 570.5 574.5 c 128,-1,17
 461 636 461 636 184 679 c 1,18,-1
 163 703 l 1,19,-1
 203 1224 l 1,20,-1
 222 1241 l 1,21,-1
 670 1258 l 2,22,23
 741 1262 741 1262 771 1278 c 128,-1,24
 801 1294 801 1294 820 1341 c 1,25,-1
 898 1350 l 1,26,-1
 841 1098 l 1,27,-1
 828 1085 l 1,28,29
 583 1102 583 1102 307 1102 c 1,30,-1
 290 833 l 1,31,32
 564 775 564 775 712 695 c 128,-1,33
 860 615 860 615 860 474 c 0,0,1
EndSplineSet
Validated: 1
EndChar

StartChar: six
Encoding: 54 54 25
Width: 1006
GlyphClass: 2
Flags: W
LayerCount: 2
Fore
SplineSet
888 1204 m 1,0,1
 869 1197 869 1197 834.5 1184 c 128,-1,2
 800 1171 800 1171 708 1120.5 c 128,-1,3
 616 1070 616 1070 540 1010.5 c 128,-1,4
 464 951 464 951 386.5 848.5 c 128,-1,5
 309 746 309 746 273 628 c 1,6,-1
 282 624 l 1,7,8
 474 735 474 735 546 735 c 0,9,10
 738 735 738 735 847.5 627.5 c 128,-1,11
 957 520 957 520 957 385 c 0,12,13
 957 214 957 214 824 94 c 128,-1,14
 691 -26 691 -26 484 -26 c 0,15,16
 289 -26 289 -26 172.5 101.5 c 128,-1,17
 56 229 56 229 56 421 c 0,18,19
 56 551 56 551 100 669.5 c 128,-1,20
 144 788 144 788 213 873 c 128,-1,21
 282 958 282 958 366.5 1028.5 c 128,-1,22
 451 1099 451 1099 535 1143.5 c 128,-1,23
 619 1188 619 1188 688 1220.5 c 128,-1,24
 757 1253 757 1253 801 1265 c 2,25,-1
 844 1278 l 1,26,-1
 862 1267 l 1,27,-1
 888 1204 l 1,0,1
493 609 m 0,28,29
 371 609 371 609 254 530 c 1,30,31
 246 482 246 482 246 434 c 0,32,33
 246 272 246 272 322 174.5 c 128,-1,34
 398 77 398 77 531 77 c 0,35,36
 645 77 645 77 713 145.5 c 128,-1,37
 781 214 781 214 781 333 c 0,38,39
 781 445 781 445 698.5 527 c 128,-1,40
 616 609 616 609 493 609 c 0,28,29
EndSplineSet
Validated: 1
EndChar

StartChar: seven
Encoding: 55 55 26
Width: 975
GlyphClass: 2
Flags: W
LayerCount: 2
Fore
SplineSet
349 -24 m 1,0,-1
 333 -24 l 1,1,-1
 190 14 l 1,2,-1
 166 61 l 1,3,-1
 760 1108 l 1,4,-1
 349 1093 l 2,5,6
 233 1089 233 1089 194 1050.5 c 128,-1,7
 155 1012 155 1012 130 894 c 1,8,-1
 38 882 l 1,9,10
 71 1089 71 1089 83 1252 c 1,11,-1
 98 1262 l 1,12,13
 240 1253 240 1253 387 1253 c 2,14,-1
 888 1253 l 1,15,-1
 941 1194 l 1,16,17
 696 751 696 751 409 159 c 1,18,-1
 349 -24 l 1,0,-1
EndSplineSet
Validated: 1
EndChar

StartChar: eight
Encoding: 56 56 27
Width: 938
GlyphClass: 2
Flags: W
LayerCount: 2
Fore
SplineSet
47 252 m 0,0,1
 48 465 48 465 338 586 c 1,2,3
 221 643 221 643 154 711.5 c 128,-1,4
 87 780 87 780 87 884 c 0,5,6
 87 1016 87 1016 203.5 1115 c 128,-1,7
 320 1214 320 1214 493 1214 c 0,8,9
 636 1214 636 1214 740.5 1143 c 128,-1,10
 845 1072 845 1072 845 942 c 0,11,12
 845 755 845 755 621 648 c 1,13,14
 749 587 749 587 820.5 516 c 128,-1,15
 892 445 892 445 892 337 c 0,16,17
 892 187 892 187 759.5 81.5 c 128,-1,18
 627 -24 627 -24 432 -24 c 0,19,20
 271 -24 271 -24 159 50 c 128,-1,21
 47 124 47 124 47 252 c 0,0,1
486 63 m 0,22,23
 587 63 587 63 662 125 c 128,-1,24
 737 187 737 187 737 278 c 0,25,26
 737 339 737 339 686.5 393 c 128,-1,27
 636 447 636 447 594 468 c 0,28,29
 551 489 551 489 441 539 c 0,30,31
 425 547 425 547 417 551 c 1,32,33
 212 471 212 471 212 301 c 0,34,35
 212 205 212 205 290.5 134 c 128,-1,36
 369 63 369 63 486 63 c 0,22,23
245 944 m 0,37,38
 245 907 245 907 264.5 874 c 128,-1,39
 284 841 284 841 303 819.5 c 128,-1,40
 322 798 322 798 374 768.5 c 128,-1,41
 426 739 426 739 449.5 727.5 c 128,-1,42
 473 716 473 716 540 684 c 1,43,44
 675 757 675 757 676 900 c 0,45,46
 676 1006 676 1006 614 1063 c 0,47,48
 553 1121 553 1121 455 1121 c 0,49,50
 363 1121 363 1121 304 1068 c 128,-1,51
 245 1015 245 1015 245 944 c 0,37,38
EndSplineSet
Validated: 1
EndChar

StartChar: nine
Encoding: 57 57 28
Width: 996
GlyphClass: 2
Flags: W
LayerCount: 2
Fore
SplineSet
114 50 m 1,0,1
 133 57 133 57 167.5 69.5 c 128,-1,2
 202 82 202 82 293.5 131.5 c 128,-1,3
 385 181 385 181 461 241 c 128,-1,4
 537 301 537 301 615.5 403.5 c 128,-1,5
 694 506 694 506 727 623 c 1,6,-1
 720 629 l 1,7,8
 528 518 528 518 456 518 c 0,9,10
 264 518 264 518 155 626 c 0,11,12
 45 734 45 734 45 869 c 0,13,14
 45 1040 45 1040 178 1159.5 c 128,-1,15
 311 1279 311 1279 518 1279 c 0,16,17
 713 1279 713 1279 829.5 1152 c 128,-1,18
 946 1025 946 1025 946 833 c 0,19,20
 946 703 946 703 901.5 584 c 128,-1,21
 857 465 857 465 788.5 380.5 c 128,-1,22
 720 296 720 296 635.5 226 c 128,-1,23
 551 156 551 156 466.5 110.5 c 128,-1,24
 382 65 382 65 313 33.5 c 128,-1,25
 244 2 244 2 201 -12 c 2,26,-1
 157 -24 l 1,27,-1
 140 -14 l 1,28,-1
 114 50 l 1,0,1
509 645 m 0,29,30
 621 645 621 645 748 723 c 1,31,32
 756 768 756 768 756 820 c 0,33,34
 756 982 756 982 678.5 1079 c 128,-1,35
 601 1176 601 1176 471 1176 c 0,36,37
 357 1176 357 1176 289 1108 c 128,-1,38
 221 1040 221 1040 221 920 c 0,39,40
 221 807 221 807 302 726 c 128,-1,41
 383 645 383 645 509 645 c 0,29,30
EndSplineSet
Validated: 1
EndChar

StartChar: colon
Encoding: 58 58 29
Width: 381
GlyphClass: 2
Flags: W
LayerCount: 2
Fore
SplineSet
185 -24 m 0,0,1
 131 -24 131 -24 102 9 c 128,-1,2
 73 42 73 42 73 90 c 0,3,4
 73 142 73 142 107 178 c 128,-1,5
 141 214 141 214 197 214 c 0,6,7
 251 214 251 214 281 181 c 128,-1,8
 311 148 311 148 311 100 c 0,9,10
 311 48 311 48 276 12 c 128,-1,11
 241 -24 241 -24 185 -24 c 0,0,1
185 536 m 0,12,13
 131 536 131 536 102 569 c 128,-1,14
 73 602 73 602 73 650 c 0,15,16
 73 702 73 702 107 738 c 128,-1,17
 141 774 141 774 197 774 c 0,18,19
 251 774 251 774 281 741 c 128,-1,20
 311 708 311 708 311 660 c 0,21,22
 311 608 311 608 276 572 c 128,-1,23
 241 536 241 536 185 536 c 0,12,13
EndSplineSet
Validated: 1
EndChar

StartChar: semicolon
Encoding: 59 59 30
Width: 423
GlyphClass: 2
Flags: W
LayerCount: 2
Fore
SplineSet
129 118 m 1,0,-1
 133 146 l 1,1,2
 201 198 201 198 249 198 c 0,3,4
 293 198 293 198 322 157 c 128,-1,5
 351 116 351 116 351 42 c 0,6,7
 351 -62 351 -62 267 -155 c 128,-1,8
 183 -248 183 -248 71 -314 c 1,9,-1
 35 -284 l 1,10,-1
 35 -264 l 1,11,12
 105 -216 105 -216 149 -150 c 128,-1,13
 193 -84 193 -84 193 -22 c 0,14,15
 193 58 193 58 129 118 c 1,0,-1
229 536 m 0,16,17
 175 536 175 536 146 569 c 128,-1,18
 117 602 117 602 117 650 c 0,19,20
 117 702 117 702 151 738 c 128,-1,21
 185 774 185 774 241 774 c 0,22,23
 295 774 295 774 325 741 c 128,-1,24
 355 708 355 708 355 660 c 0,25,26
 355 608 355 608 320 572 c 128,-1,27
 285 536 285 536 229 536 c 0,16,17
EndSplineSet
Validated: 1
EndChar

StartChar: less
Encoding: 60 60 31
Width: 962
GlyphClass: 2
Flags: W
LayerCount: 2
Fore
SplineSet
72 478 m 1,0,-1
 56 500 l 1,1,-1
 60 594 l 1,2,-1
 466 766 l 1,3,-1
 868 928 l 1,4,-1
 886 918 l 1,5,-1
 900 818 l 1,6,7
 676 740 676 740 512 672 c 2,8,-1
 204 552 l 1,9,-1
 204 540 l 1,10,-1
 540 400 l 1,11,-1
 902 242 l 1,12,-1
 904 220 l 1,13,-1
 844 140 l 1,14,15
 632 240 632 240 468 310 c 2,16,-1
 72 478 l 1,0,-1
EndSplineSet
Validated: 1
Substitution2: "'rtla' Right to Left Alternates lookup 0 subtable" greater
EndChar

StartChar: equal
Encoding: 61 61 32
Width: 1095
GlyphClass: 2
Flags: W
LayerCount: 2
Fore
SplineSet
1005 440 m 1,0,-1
 1017 420 l 1,1,-1
 1001 318 l 1,2,-1
 547 316 l 1,3,-1
 89 314 l 1,4,-1
 77 332 l 1,5,-1
 99 430 l 1,6,7
 399 428 399 428 577 428 c 1,8,-1
 1005 440 l 1,0,-1
1005 754 m 1,9,-1
 1017 734 l 1,10,-1
 1001 632 l 1,11,-1
 547 630 l 1,12,-1
 89 628 l 1,13,-1
 77 646 l 1,14,-1
 99 744 l 1,15,16
 399 742 399 742 577 742 c 1,17,-1
 1005 754 l 1,9,-1
EndSplineSet
Validated: 1
EndChar

StartChar: greater
Encoding: 62 62 33
Width: 960
GlyphClass: 2
Flags: W
LayerCount: 2
Fore
SplineSet
888 590 m 1,0,-1
 904 568 l 1,1,-1
 900 474 l 1,2,-1
 494 302 l 1,3,-1
 92 140 l 1,4,-1
 74 150 l 1,5,-1
 60 250 l 1,6,7
 284 328 284 328 448 396 c 2,8,-1
 756 516 l 1,9,-1
 756 528 l 1,10,-1
 420 668 l 1,11,-1
 58 826 l 1,12,-1
 56 848 l 1,13,-1
 116 928 l 1,14,15
 328 828 328 828 492 758 c 2,16,-1
 888 590 l 1,0,-1
EndSplineSet
Validated: 1
Substitution2: "'rtla' Right to Left Alternates lookup 0 subtable" less
EndChar

StartChar: question
Encoding: 63 63 34
Width: 621
GlyphClass: 2
Flags: W
LayerCount: 2
Fore
SplineSet
137 406 m 1,0,-1
 89 646 l 1,1,-1
 95 674 l 1,2,-1
 333 826 l 1,3,4
 447 904 447 904 447 998 c 0,5,6
 447 1228 447 1228 41 1252 c 1,7,-1
 37 1274 l 1,8,-1
 103 1380 l 1,9,-1
 131 1388 l 1,10,11
 317 1382 317 1382 448 1287 c 128,-1,12
 579 1192 579 1192 579 1058 c 0,13,14
 579 994 579 994 561 943 c 128,-1,15
 543 892 543 892 502 849 c 128,-1,16
 461 806 461 806 431 782 c 128,-1,17
 401 758 401 758 337 716 c 128,-1,18
 273 674 273 674 247 656 c 1,19,-1
 241 638 l 1,20,-1
 283 448 l 1,21,-1
 277 432 l 1,22,-1
 155 398 l 1,23,-1
 137 406 l 1,0,-1
207 -24 m 0,24,25
 153 -24 153 -24 124 9 c 128,-1,26
 95 42 95 42 95 90 c 0,27,28
 95 142 95 142 129 178 c 128,-1,29
 163 214 163 214 219 214 c 0,30,31
 273 214 273 214 303 181 c 128,-1,32
 333 148 333 148 333 100 c 0,33,34
 333 48 333 48 298 12 c 128,-1,35
 263 -24 263 -24 207 -24 c 0,24,25
EndSplineSet
Validated: 1
EndChar

StartChar: at
Encoding: 64 64 35
Width: 1644
GlyphClass: 2
Flags: W
LayerCount: 2
Fore
SplineSet
946 -24 m 0,0,1
 874 -24 874 -24 874 34 c 0,2,3
 874 50 874 50 895 154 c 128,-1,4
 916 258 916 258 938 354 c 2,5,-1
 960 450 l 1,6,-1
 948 454 l 1,7,8
 768 112 768 112 574 -24 c 1,9,10
 496 -24 496 -24 455 50 c 128,-1,11
 414 124 414 124 414 248 c 0,12,13
 414 412 414 412 484 570 c 128,-1,14
 554 728 554 728 660 824 c 128,-1,15
 766 920 766 920 872 920 c 1,16,-1
 1072 888 l 1,17,-1
 1090 938 l 1,18,-1
 1100 940 l 1,19,-1
 1162 910 l 1,20,-1
 1178 886 l 1,21,22
 1062 488 1062 488 1010 116 c 1,23,-1
 1018 108 l 1,24,25
 1230 108 1230 108 1341 230 c 128,-1,26
 1452 352 1452 352 1452 560 c 0,27,28
 1452 820 1452 820 1292 967 c 128,-1,29
 1132 1114 1132 1114 862 1114 c 0,30,31
 566 1114 566 1114 383 909 c 128,-1,32
 200 704 200 704 200 412 c 0,33,34
 200 102 200 102 377 -105 c 128,-1,35
 554 -312 554 -312 906 -332 c 1,36,-1
 906 -346 l 1,37,-1
 854 -418 l 1,38,39
 478 -400 478 -400 268 -176 c 128,-1,40
 58 48 58 48 58 376 c 0,41,42
 58 540 58 540 119 693 c 128,-1,43
 180 846 180 846 288 965 c 128,-1,44
 396 1084 396 1084 559 1155 c 128,-1,45
 722 1226 722 1226 912 1226 c 0,46,47
 1210 1226 1210 1226 1400 1049 c 128,-1,48
 1590 872 1590 872 1590 608 c 0,49,50
 1590 348 1590 348 1419 162 c 128,-1,51
 1248 -24 1248 -24 946 -24 c 0,0,1
612 138 m 0,52,53
 666 138 666 138 783 312 c 128,-1,54
 900 486 900 486 1012 746 c 1,55,56
 904 812 904 812 810 812 c 0,57,58
 714 812 714 812 634 670 c 128,-1,59
 554 528 554 528 554 346 c 0,60,61
 554 262 554 262 571 200 c 128,-1,62
 588 138 588 138 612 138 c 0,52,53
EndSplineSet
Validated: 1
EndChar

StartChar: A
Encoding: 65 65 36
Width: 1307
GlyphClass: 2
Flags: W
LayerCount: 2
Fore
SplineSet
1062 226 m 0,0,1
 1086 152 1086 152 1126 122 c 128,-1,2
 1166 92 1166 92 1254 84 c 1,3,-1
 1258 76 l 1,4,-1
 1244 -6 l 1,5,6
 1100 0 1100 0 1032 0 c 128,-1,7
 964 0 964 0 889 -5 c 128,-1,8
 814 -10 814 -10 774 -15 c 2,9,-1
 734 -20 l 1,10,-1
 728 -6 l 1,11,-1
 736 72 l 1,12,13
 838 80 838 80 876 96 c 128,-1,14
 914 112 914 112 914 148 c 0,15,16
 914 187 914 187 896 244 c 2,17,-1
 830 462 l 1,18,19
 782 464 782 464 622 464 c 0,20,21
 526 464 526 464 404 448 c 1,22,-1
 330 240 l 2,23,24
 312 186 312 186 312 162 c 0,25,26
 312 80 312 80 432 80 c 2,27,-1
 546 80 l 1,28,-1
 550 72 l 1,29,-1
 538 -14 l 1,30,31
 392 0 392 0 260 0 c 2,32,-1
 40 -6 l 1,33,-1
 56 88 l 1,34,35
 112 94 112 94 146 127 c 128,-1,36
 180 160 180 160 212 242 c 2,37,-1
 602 1264 l 1,38,-1
 728 1298 l 1,39,-1
 744 1298 l 1,40,41
 912 676 912 676 1062 226 c 0,0,1
630 1080 m 1,42,-1
 440 546 l 1,43,-1
 616 546 l 2,44,45
 688 546 688 546 802 556 c 1,46,-1
 644 1080 l 1,47,-1
 630 1080 l 1,42,-1
EndSplineSet
Validated: 1
EndChar

StartChar: B
Encoding: 66 66 37
Width: 1045
GlyphClass: 2
Flags: W
LayerCount: 2
Fore
SplineSet
268 0 m 0,0,1
 224 0 224 0 167 -6 c 128,-1,2
 110 -12 110 -12 75 -18 c 2,3,-1
 40 -24 l 1,4,-1
 52 68 l 1,5,6
 144 86 144 86 176 121 c 128,-1,7
 208 156 208 156 208 240 c 2,8,-1
 210 1080 l 2,9,10
 210 1144 210 1144 195 1166 c 128,-1,11
 180 1188 180 1188 136 1188 c 2,12,-1
 68 1184 l 1,13,-1
 64 1192 l 1,14,-1
 78 1280 l 1,15,16
 224 1274 224 1274 300 1274 c 2,17,-1
 536 1282 l 1,18,19
 726 1282 726 1282 828 1203 c 128,-1,20
 930 1124 930 1124 930 978 c 0,21,22
 930 878 930 878 869 798 c 128,-1,23
 808 718 808 718 698 670 c 1,24,25
 844 638 844 638 926 558 c 128,-1,26
 1008 478 1008 478 1008 366 c 0,27,28
 1008 210 1008 210 868 95 c 128,-1,29
 728 -20 728 -20 538 -20 c 0,30,31
 496 -20 496 -20 408 -10 c 128,-1,32
 320 0 320 0 268 0 c 0,0,1
566 600 m 1,33,-1
 358 596 l 1,34,-1
 350 222 l 2,35,36
 350 146 350 146 402 114 c 128,-1,37
 454 82 454 82 578 82 c 0,38,39
 698 82 698 82 767 149 c 128,-1,40
 836 216 836 216 836 330 c 0,41,42
 836 552 836 552 566 600 c 1,33,-1
362 702 m 1,43,44
 550 686 550 686 580 686 c 0,45,46
 588 688 588 688 600 692 c 128,-1,47
 612 696 612 696 645 715 c 128,-1,48
 678 734 678 734 703 760 c 128,-1,49
 728 786 728 786 748 835 c 128,-1,50
 768 884 768 884 768 944 c 0,51,52
 768 1072 768 1072 682 1134 c 128,-1,53
 596 1196 596 1196 416 1196 c 0,54,55
 396 1196 396 1196 389 1187 c 128,-1,56
 382 1178 382 1178 380 1150 c 0,57,58
 368 958 368 958 362 702 c 1,43,44
EndSplineSet
Validated: 1
EndChar

StartChar: C
Encoding: 67 67 38
Width: 1157
GlyphClass: 2
Flags: W
LayerCount: 2
Fore
SplineSet
642 -24 m 0,0,1
 368 -24 368 -24 206 143 c 128,-1,2
 44 310 44 310 44 594 c 0,3,4
 44 898 44 898 242 1098 c 128,-1,5
 440 1298 440 1298 742 1298 c 0,6,7
 816 1298 816 1298 903 1286 c 128,-1,8
 990 1274 990 1274 1040 1262 c 2,9,-1
 1090 1250 l 1,10,-1
 1098 1238 l 1,11,12
 1060 1088 1060 1088 1048 904 c 1,13,-1
 952 896 l 1,14,15
 958 950 958 950 958 994 c 0,16,17
 958 1180 958 1180 664 1180 c 0,18,19
 462 1180 462 1180 343 1039 c 128,-1,20
 224 898 224 898 224 660 c 0,21,22
 224 396 224 396 349 236 c 128,-1,23
 474 76 474 76 682 76 c 0,24,25
 818 76 818 76 901 153 c 128,-1,26
 984 230 984 230 1022 392 c 1,27,-1
 1118 400 l 1,28,29
 1078 218 1078 218 1064 74 c 1,30,-1
 1052 56 l 1,31,32
 880 -24 880 -24 642 -24 c 0,0,1
EndSplineSet
Validated: 1
EndChar

StartChar: D
Encoding: 68 68 39
Width: 1299
GlyphClass: 2
Flags: W
LayerCount: 2
Fore
SplineSet
558 -24 m 1,0,1
 372 0 372 0 270 0 c 0,2,3
 226 0 226 0 168 -6 c 128,-1,4
 110 -12 110 -12 75 -18 c 2,5,-1
 40 -24 l 1,6,-1
 52 68 l 1,7,8
 144 86 144 86 176 121 c 128,-1,9
 208 156 208 156 208 240 c 2,10,-1
 210 1080 l 2,11,12
 210 1144 210 1144 195 1166 c 128,-1,13
 180 1188 180 1188 136 1188 c 2,14,-1
 68 1184 l 1,15,-1
 64 1192 l 1,16,-1
 78 1280 l 1,17,18
 212 1274 212 1274 288 1274 c 2,19,-1
 592 1282 l 1,20,21
 884 1282 884 1282 1067 1116 c 128,-1,22
 1250 950 1250 950 1250 684 c 0,23,24
 1250 386 1250 386 1050 181 c 128,-1,25
 850 -24 850 -24 558 -24 c 1,0,1
454 1184 m 0,26,27
 412 1184 412 1184 398 1175 c 128,-1,28
 384 1166 384 1166 382 1140 c 0,29,30
 352 370 352 370 352 262 c 0,31,32
 352 152 352 152 402 115 c 128,-1,33
 452 78 452 78 604 78 c 0,34,35
 820 78 820 78 944 227 c 128,-1,36
 1068 376 1068 376 1068 636 c 0,37,38
 1068 900 1068 900 909 1042 c 128,-1,39
 750 1184 750 1184 454 1184 c 0,26,27
EndSplineSet
Validated: 1
EndChar

StartChar: E
Encoding: 69 69 40
Width: 1026
GlyphClass: 2
Flags: W
LayerCount: 2
Fore
SplineSet
350 210 m 0,0,1
 350 128 350 128 375 109 c 128,-1,2
 400 90 400 90 508 90 c 0,3,4
 676 90 676 90 746 107 c 128,-1,5
 816 124 816 124 847 171 c 128,-1,6
 878 218 878 218 894 334 c 1,7,-1
 982 344 l 1,8,-1
 988 334 l 1,9,10
 952 168 952 168 934 -2 c 1,11,-1
 924 -14 l 1,12,13
 508 0 508 0 318 0 c 0,14,15
 250 0 250 0 181 -5 c 128,-1,16
 112 -10 112 -10 76 -15 c 2,17,-1
 40 -20 l 1,18,-1
 52 72 l 1,19,20
 142 84 142 84 175 119 c 128,-1,21
 208 154 208 154 208 240 c 2,22,-1
 210 1080 l 2,23,24
 210 1144 210 1144 195 1166 c 128,-1,25
 180 1188 180 1188 136 1188 c 2,26,-1
 68 1184 l 1,27,-1
 64 1192 l 1,28,-1
 78 1280 l 1,29,30
 236 1274 236 1274 356 1274 c 0,31,32
 780 1274 780 1274 956 1298 c 1,33,-1
 962 1286 l 1,34,35
 928 1138 928 1138 916 954 c 1,36,-1
 820 946 l 1,37,38
 824 1004 824 1004 824 1032 c 0,39,40
 824 1130 824 1130 777 1152 c 128,-1,41
 730 1174 730 1174 518 1174 c 0,42,43
 420 1174 420 1174 400 1163 c 128,-1,44
 380 1152 380 1152 378 1096 c 2,45,-1
 362 708 l 1,46,47
 382 708 382 708 459 707 c 128,-1,48
 536 706 536 706 568 706 c 2,49,-1
 812 728 l 1,50,-1
 820 718 l 1,51,-1
 792 600 l 1,52,53
 620 606 620 606 512 606 c 0,54,55
 438 606 438 606 358 592 c 1,56,57
 350 304 350 304 350 210 c 0,0,1
EndSplineSet
Validated: 1
EndChar

StartChar: F
Encoding: 70 70 41
Width: 958
GlyphClass: 2
Flags: W
LayerCount: 2
Fore
SplineSet
350 224 m 2,0,1
 350 142 350 142 368 115 c 128,-1,2
 386 88 386 88 438 88 c 2,3,-1
 580 94 l 1,4,-1
 584 86 l 1,5,-1
 566 -8 l 1,6,7
 376 0 376 0 268 0 c 0,8,9
 224 0 224 0 167 -6 c 128,-1,10
 110 -12 110 -12 75 -18 c 2,11,-1
 40 -24 l 1,12,-1
 52 68 l 1,13,14
 144 86 144 86 176 121 c 128,-1,15
 208 156 208 156 208 240 c 2,16,-1
 210 1080 l 2,17,18
 210 1144 210 1144 195 1166 c 128,-1,19
 180 1188 180 1188 136 1188 c 2,20,-1
 68 1184 l 1,21,-1
 64 1192 l 1,22,-1
 78 1280 l 1,23,24
 236 1274 236 1274 356 1274 c 0,25,26
 750 1274 750 1274 918 1298 c 1,27,-1
 924 1286 l 1,28,29
 890 1132 890 1132 878 948 c 1,30,-1
 782 940 l 1,31,32
 786 1004 786 1004 786 1032 c 0,33,34
 786 1130 786 1130 744 1152 c 128,-1,35
 702 1174 702 1174 518 1174 c 0,36,37
 420 1174 420 1174 400 1163 c 128,-1,38
 380 1152 380 1152 378 1096 c 2,39,-1
 362 674 l 1,40,-1
 568 672 l 1,41,-1
 778 694 l 1,42,-1
 786 684 l 1,43,-1
 758 564 l 1,44,45
 606 570 606 570 512 570 c 0,46,47
 438 570 438 570 358 556 c 1,48,-1
 350 224 l 2,0,1
EndSplineSet
Validated: 1
EndChar

StartChar: G
Encoding: 71 71 42
Width: 1190
GlyphClass: 2
Flags: W
LayerCount: 2
Fore
SplineSet
1141 614 m 1,0,-1
 1149 570 l 1,1,2
 1113 540 1113 540 1100 475 c 128,-1,3
 1087 410 1087 410 1087 262 c 0,4,5
 1087 146 1087 146 1101 86 c 1,6,-1
 1089 68 l 1,7,8
 1065 58 1065 58 1024 43 c 128,-1,9
 983 28 983 28 862 2 c 128,-1,10
 741 -24 741 -24 629 -24 c 0,11,12
 361 -24 361 -24 203 143 c 128,-1,13
 45 310 45 310 45 594 c 0,14,15
 45 908 45 908 239 1103 c 128,-1,16
 433 1298 433 1298 747 1298 c 0,17,18
 821 1298 821 1298 918 1286 c 128,-1,19
 1015 1274 1015 1274 1075 1262 c 2,20,-1
 1135 1250 l 1,21,-1
 1143 1238 l 1,22,23
 1103 1088 1103 1088 1091 904 c 1,24,-1
 997 896 l 1,25,26
 1003 950 1003 950 1003 1004 c 0,27,28
 1003 1096 1003 1096 932 1138 c 128,-1,29
 861 1180 861 1180 701 1180 c 0,30,31
 473 1180 473 1180 346 1043 c 128,-1,32
 219 906 219 906 219 658 c 0,33,34
 219 394 219 394 344 235 c 128,-1,35
 469 76 469 76 675 76 c 0,36,37
 747 76 747 76 815 95 c 128,-1,38
 883 114 883 114 916 133 c 2,39,-1
 949 152 l 1,40,-1
 949 396 l 2,41,42
 949 464 949 464 928 484 c 128,-1,43
 907 504 907 504 839 504 c 2,44,-1
 701 504 l 1,45,-1
 697 512 l 1,46,-1
 715 612 l 1,47,48
 851 604 851 604 969 604 c 1,49,-1
 1141 614 l 1,0,-1
EndSplineSet
Validated: 1
EndChar

StartChar: H
Encoding: 72 72 43
Width: 1366
GlyphClass: 2
Flags: W
LayerCount: 2
Fore
SplineSet
1164 1088 m 0,0,1
 1136 504 1136 504 1136 224 c 0,2,3
 1136 142 1136 142 1154 115 c 128,-1,4
 1172 88 1172 88 1224 88 c 2,5,-1
 1314 94 l 1,6,-1
 1318 86 l 1,7,-1
 1300 -6 l 1,8,9
 1142 0 1142 0 1054 0 c 2,10,-1
 824 -4 l 1,11,-1
 842 86 l 1,12,13
 936 88 936 88 965 128 c 128,-1,14
 994 168 994 168 994 300 c 2,15,-1
 994 602 l 1,16,17
 782 604 782 604 690 604 c 1,18,-1
 358 582 l 1,19,-1
 350 224 l 2,20,21
 350 142 350 142 368 115 c 128,-1,22
 386 88 386 88 438 88 c 2,23,-1
 528 94 l 1,24,-1
 532 86 l 1,25,-1
 514 -6 l 2,26,27
 514 0 514 0 344 0 c 0,28,29
 256 0 256 0 149 -8 c 128,-1,30
 42 -16 42 -16 40 -24 c 2,31,-1
 52 68 l 1,32,33
 144 86 144 86 176 121 c 128,-1,34
 208 156 208 156 208 240 c 2,35,-1
 210 1080 l 2,36,37
 210 1144 210 1144 195 1166 c 128,-1,38
 180 1188 180 1188 136 1188 c 2,39,-1
 68 1184 l 1,40,-1
 64 1192 l 1,41,-1
 78 1280 l 1,42,43
 224 1274 224 1274 300 1274 c 0,44,45
 338 1274 338 1274 392 1279 c 128,-1,46
 446 1284 446 1284 480 1288 c 2,47,-1
 514 1292 l 1,48,-1
 506 1202 l 1,49,50
 420 1188 420 1188 399 1159 c 128,-1,51
 378 1130 378 1130 374 1022 c 2,52,-1
 362 698 l 1,53,-1
 698 696 l 2,54,55
 826 696 826 696 994 716 c 1,56,-1
 996 1080 l 2,57,58
 996 1144 996 1144 981 1166 c 128,-1,59
 966 1188 966 1188 922 1188 c 2,60,-1
 854 1184 l 1,61,-1
 850 1192 l 1,62,-1
 864 1280 l 2,63,64
 864 1274 864 1274 1060 1274 c 0,65,66
 1102 1274 1102 1274 1162 1279 c 128,-1,67
 1222 1284 1222 1284 1261 1288 c 2,68,-1
 1300 1292 l 1,69,-1
 1292 1202 l 1,70,71
 1218 1192 1218 1192 1193 1169 c 128,-1,72
 1168 1146 1168 1146 1164 1088 c 0,0,1
EndSplineSet
Validated: 1
EndChar

StartChar: I
Encoding: 73 73 44
Width: 604
GlyphClass: 2
Flags: W
LayerCount: 2
Fore
SplineSet
386 1088 m 0,0,1
 358 508 358 508 358 224 c 0,2,3
 358 142 358 142 376 115 c 128,-1,4
 394 88 394 88 446 88 c 2,5,-1
 552 94 l 1,6,-1
 556 86 l 1,7,-1
 538 -6 l 1,8,9
 370 0 370 0 276 0 c 0,10,11
 230 0 230 0 172 -6 c 128,-1,12
 114 -12 114 -12 79 -18 c 2,13,-1
 44 -24 l 1,14,-1
 56 68 l 1,15,16
 150 86 150 86 183 121 c 128,-1,17
 216 156 216 156 216 240 c 2,18,-1
 218 1080 l 2,19,20
 218 1144 218 1144 203 1166 c 128,-1,21
 188 1188 188 1188 144 1188 c 2,22,-1
 60 1184 l 1,23,-1
 56 1192 l 1,24,-1
 70 1280 l 1,25,26
 226 1274 226 1274 308 1274 c 0,27,28
 348 1274 348 1274 406 1279 c 128,-1,29
 464 1284 464 1284 501 1288 c 2,30,-1
 538 1292 l 1,31,-1
 530 1202 l 1,32,33
 446 1192 446 1192 418 1169 c 128,-1,34
 390 1146 390 1146 386 1088 c 0,0,1
EndSplineSet
Validated: 1
EndChar

StartChar: J
Encoding: 74 74 45
Width: 561
GlyphClass: 2
Flags: W
LayerCount: 2
Fore
SplineSet
238 230 m 2,0,-1
 240 1080 l 2,1,2
 240 1144 240 1144 226 1165 c 128,-1,3
 212 1186 212 1186 166 1186 c 2,4,-1
 72 1178 l 1,5,-1
 68 1186 l 1,6,-1
 82 1274 l 1,7,-1
 298 1274 l 1,8,-1
 530 1292 l 1,9,-1
 522 1202 l 1,10,11
 452 1192 452 1192 432 1172 c 128,-1,12
 412 1152 412 1152 408 1088 c 0,13,14
 386 612 386 612 382 232 c 0,15,16
 380 28 380 28 303 -95 c 128,-1,17
 226 -218 226 -218 56 -288 c 1,18,-1
 22 -222 l 1,19,-1
 28 -206 l 1,20,21
 150 -132 150 -132 194 -41 c 128,-1,22
 238 50 238 50 238 230 c 2,0,-1
EndSplineSet
Validated: 1
EndChar

StartChar: K
Encoding: 75 75 46
Width: 1213
GlyphClass: 2
Flags: W
LayerCount: 2
Fore
SplineSet
211 240 m 2,0,-1
 213 1080 l 2,1,2
 213 1144 213 1144 198 1166 c 128,-1,3
 183 1188 183 1188 139 1188 c 2,4,-1
 71 1184 l 1,5,-1
 67 1192 l 1,6,-1
 81 1280 l 1,7,8
 227 1274 227 1274 303 1274 c 0,9,10
 341 1274 341 1274 395 1279 c 128,-1,11
 449 1284 449 1284 483 1288 c 2,12,-1
 517 1292 l 1,13,-1
 509 1202 l 1,14,15
 435 1190 435 1190 407 1165 c 128,-1,16
 379 1140 379 1140 377 1082 c 2,17,-1
 353 224 l 2,18,19
 353 216 353 216 353 209 c 0,20,21
 353 196 353 196 353 196 c 2,22,23
 353 186 353 186 353 186 c 2,24,25
 353 178 353 178 353 178 c 2,26,27
 353 175 353 175 353 171 c 0,28,29
 351 144 351 144 369 116 c 128,-1,30
 387 88 387 88 441 88 c 2,31,-1
 531 94 l 1,32,-1
 535 86 l 1,33,-1
 517 -6 l 1,34,35
 359 0 359 0 271 0 c 2,36,-1
 41 -2 l 1,37,-1
 61 88 l 1,38,39
 155 98 155 98 183 126 c 128,-1,40
 211 154 211 154 211 240 c 2,0,-1
411 630 m 1,41,-1
 413 658 l 1,42,-1
 771 1030 l 2,43,44
 833 1092 833 1092 833 1134 c 0,45,46
 833 1186 833 1186 707 1194 c 1,47,-1
 703 1202 l 1,48,-1
 717 1288 l 1,49,50
 863 1274 863 1274 937 1274 c 2,51,-1
 1121 1282 l 1,52,-1
 1129 1268 l 1,53,-1
 1115 1186 l 1,54,55
 1063 1176 1063 1176 1019 1144 c 128,-1,56
 975 1112 975 1112 885 1018 c 2,57,-1
 563 680 l 1,58,-1
 899 242 l 2,59,60
 971 148 971 148 1028 110 c 128,-1,61
 1085 72 1085 72 1155 72 c 1,62,-1
 1163 64 l 1,63,-1
 1151 -4 l 1,64,65
 1007 -28 1007 -28 985 -28 c 0,66,67
 885 -28 885 -28 761 144 c 2,68,-1
 411 630 l 1,41,-1
EndSplineSet
Validated: 1
EndChar

StartChar: L
Encoding: 76 76 47
Width: 957
GlyphClass: 2
Flags: W
LayerCount: 2
Fore
SplineSet
316 0 m 0,0,1
 250 0 250 0 183 -5 c 128,-1,2
 116 -10 116 -10 82 -15 c 2,3,-1
 48 -20 l 1,4,-1
 60 72 l 1,5,6
 138 84 138 84 167 119 c 128,-1,7
 196 154 196 154 196 240 c 2,8,-1
 198 1080 l 2,9,10
 198 1144 198 1144 183 1166 c 128,-1,11
 168 1188 168 1188 124 1188 c 2,12,-1
 56 1184 l 1,13,-1
 52 1192 l 1,14,-1
 66 1280 l 1,15,16
 214 1274 214 1274 290 1274 c 0,17,18
 328 1274 328 1274 382 1279 c 128,-1,19
 436 1284 436 1284 470 1288 c 2,20,-1
 504 1292 l 1,21,-1
 496 1202 l 1,22,23
 474 1198 474 1198 457 1195 c 128,-1,24
 440 1192 440 1192 427 1186 c 128,-1,25
 414 1180 414 1180 405 1177 c 128,-1,26
 396 1174 396 1174 389 1161 c 128,-1,27
 382 1148 382 1148 379 1143 c 128,-1,28
 376 1138 376 1138 373 1119 c 128,-1,29
 370 1100 370 1100 369 1092 c 128,-1,30
 368 1084 368 1084 366 1056 c 128,-1,31
 364 1028 364 1028 364 1016 c 0,32,33
 340 682 340 682 340 244 c 0,34,35
 340 142 340 142 369 116 c 128,-1,36
 398 90 398 90 510 90 c 0,37,38
 684 90 684 90 739 140 c 128,-1,39
 794 190 794 190 828 374 c 1,40,-1
 916 384 l 1,41,-1
 922 374 l 1,42,43
 886 192 886 192 864 -6 c 1,44,-1
 854 -18 l 1,45,46
 506 0 506 0 316 0 c 0,0,1
EndSplineSet
Validated: 1
EndChar

StartChar: M
Encoding: 77 77 48
Width: 1587
GlyphClass: 2
Flags: W
LayerCount: 2
Fore
SplineSet
788 -24 m 1,0,-1
 740 -38 l 1,1,-1
 352 1040 l 1,2,-1
 342 1040 l 1,3,4
 274 202 274 202 274 150 c 0,5,6
 274 88 274 88 336 88 c 2,7,-1
 418 90 l 1,8,-1
 422 82 l 1,9,-1
 404 -8 l 1,10,11
 276 0 276 0 210 0 c 0,12,13
 174 0 174 0 131 -4 c 128,-1,14
 88 -8 88 -8 63 -12 c 2,15,-1
 38 -16 l 1,16,-1
 48 76 l 1,17,18
 112 84 112 84 140 117 c 128,-1,19
 168 150 168 150 176 230 c 0,20,21
 264 1032 264 1032 264 1094 c 0,22,23
 264 1146 264 1146 223 1172 c 128,-1,24
 182 1198 182 1198 90 1204 c 1,25,-1
 84 1214 l 1,26,-1
 100 1284 l 1,27,28
 254 1274 254 1274 318 1274 c 2,29,-1
 454 1282 l 1,30,31
 534 1024 534 1024 619 776 c 128,-1,32
 704 528 704 528 748 409 c 2,33,-1
 792 290 l 1,34,-1
 802 290 l 1,35,36
 958 706 958 706 1148 1278 c 1,37,-1
 1172 1277 l 2,38,39
 1196 1276 1196 1276 1230 1275 c 128,-1,40
 1264 1274 1264 1274 1280 1274 c 2,41,-1
 1496 1286 l 1,42,-1
 1500 1278 l 1,43,-1
 1490 1204 l 1,44,45
 1404 1194 1404 1194 1368 1169 c 128,-1,46
 1332 1144 1332 1144 1332 1094 c 0,47,48
 1332 940 1332 940 1384 278 c 1,49,50
 1398 160 1398 160 1416 124 c 128,-1,51
 1434 88 1434 88 1482 88 c 2,52,-1
 1538 92 l 1,53,-1
 1542 84 l 1,54,-1
 1524 -6 l 1,55,56
 1406 0 1406 0 1334 0 c 1,57,-1
 1126 -16 l 1,58,-1
 1134 76 l 1,59,60
 1252 90 1252 90 1252 176 c 1,61,-1
 1184 1040 l 1,62,-1
 1174 1040 l 1,63,-1
 788 -24 l 1,0,-1
EndSplineSet
Validated: 1
EndChar

StartChar: N
Encoding: 78 78 49
Width: 1336
GlyphClass: 2
Flags: W
LayerCount: 2
Fore
SplineSet
1034 290 m 1,0,-1
 1044 290 l 1,1,-1
 1044 1100 l 2,2,3
 1044 1186 1044 1186 978 1186 c 2,4,-1
 902 1184 l 1,5,-1
 898 1192 l 1,6,-1
 916 1282 l 1,7,8
 1038 1274 1038 1274 1106 1274 c 0,9,10
 1144 1274 1144 1274 1193 1278 c 128,-1,11
 1242 1282 1242 1282 1273 1286 c 2,12,-1
 1304 1290 l 1,13,-1
 1294 1198 l 1,14,15
 1224 1188 1224 1188 1192 1159 c 128,-1,16
 1160 1130 1160 1130 1158 1072 c 2,17,-1
 1130 -52 l 1,18,-1
 1072 -80 l 1,19,20
 898 190 898 190 712 466 c 128,-1,21
 526 742 526 742 427 882 c 2,22,-1
 328 1022 l 1,23,-1
 318 1022 l 1,24,-1
 308 168 l 2,25,26
 308 124 308 124 322 106 c 128,-1,27
 336 88 336 88 370 88 c 2,28,-1
 472 90 l 1,29,-1
 476 82 l 1,30,-1
 458 -8 l 1,31,32
 332 0 332 0 246 0 c 0,33,34
 210 0 210 0 164 -4 c 128,-1,35
 118 -8 118 -8 89 -12 c 2,36,-1
 60 -16 l 1,37,-1
 70 76 l 1,38,39
 192 90 192 90 194 202 c 2,40,-1
 220 1076 l 2,41,42
 220 1138 220 1138 183 1164 c 128,-1,43
 146 1190 146 1190 46 1200 c 1,44,-1
 40 1210 l 1,45,-1
 56 1284 l 1,46,47
 172 1274 172 1274 228 1274 c 2,48,-1
 362 1282 l 1,49,50
 510 1052 510 1052 678 804 c 128,-1,51
 846 556 846 556 940 423 c 2,52,-1
 1034 290 l 1,0,-1
EndSplineSet
Validated: 1
EndChar

StartChar: O
Encoding: 79 79 50
Width: 1318
GlyphClass: 2
Flags: W
LayerCount: 2
Fore
SplineSet
660 78 m 0,0,1
 850 78 850 78 970 223 c 128,-1,2
 1090 368 1090 368 1090 598 c 0,3,4
 1090 854 1090 854 963 1016 c 128,-1,5
 836 1178 836 1178 634 1178 c 0,6,7
 448 1178 448 1178 332 1034 c 128,-1,8
 216 890 216 890 216 658 c 0,9,10
 216 402 216 402 340 240 c 128,-1,11
 464 78 464 78 660 78 c 0,0,1
598 -24 m 0,12,13
 352 -24 352 -24 198 148 c 128,-1,14
 44 320 44 320 44 594 c 0,15,16
 44 890 44 890 234 1094 c 128,-1,17
 424 1298 424 1298 702 1298 c 0,18,19
 952 1298 952 1298 1110 1126 c 128,-1,20
 1268 954 1268 954 1268 682 c 0,21,22
 1268 384 1268 384 1075 180 c 128,-1,23
 882 -24 882 -24 598 -24 c 0,12,13
EndSplineSet
Validated: 1
EndChar

StartChar: P
Encoding: 80 80 51
Width: 1017
GlyphClass: 2
Flags: W
LayerCount: 2
Fore
SplineSet
58 1192 m 1,0,-1
 72 1280 l 1,1,2
 218 1274 218 1274 294 1274 c 2,3,-1
 546 1282 l 1,4,5
 754 1282 754 1282 864 1190 c 128,-1,6
 974 1098 974 1098 974 926 c 0,7,8
 974 756 974 756 834 622 c 128,-1,9
 694 488 694 488 516 488 c 2,10,-1
 348 488 l 1,11,-1
 344 292 l 2,12,13
 344 156 344 156 359 122 c 128,-1,14
 374 88 374 88 432 88 c 2,15,-1
 540 94 l 1,16,-1
 544 86 l 1,17,-1
 526 -6 l 2,18,19
 526 0 526 0 342 0 c 0,20,21
 262 0 262 0 155 -6 c 128,-1,22
 48 -12 48 -12 44 -16 c 2,23,-1
 58 76 l 1,24,25
 146 92 146 92 174 123 c 128,-1,26
 202 154 202 154 202 240 c 2,27,-1
 204 1080 l 2,28,29
 204 1144 204 1144 189 1166 c 128,-1,30
 174 1188 174 1188 130 1188 c 2,31,-1
 62 1184 l 1,32,-1
 58 1192 l 1,0,-1
352 606 m 1,33,-1
 564 576 l 1,34,35
 806 616 806 616 806 888 c 0,36,37
 806 1042 806 1042 715 1113 c 128,-1,38
 624 1184 624 1184 430 1184 c 0,39,40
 394 1184 394 1184 386 1180 c 128,-1,41
 378 1176 378 1176 376 1156 c 0,42,43
 358 902 358 902 352 606 c 1,33,-1
EndSplineSet
Validated: 1
EndChar

StartChar: Q
Encoding: 81 81 52
Width: 1595
GlyphClass: 2
Flags: W
LayerCount: 2
Fore
SplineSet
598 -24 m 1,0,1
 352 -24 352 -24 198 148 c 128,-1,2
 44 320 44 320 44 594 c 0,3,4
 44 890 44 890 234 1094 c 128,-1,5
 424 1298 424 1298 702 1298 c 0,6,7
 952 1298 952 1298 1110 1126 c 128,-1,8
 1268 954 1268 954 1268 682 c 0,9,10
 1268 436 1268 436 1131 248 c 128,-1,11
 994 60 994 60 778 0 c 1,12,-1
 778 -10 l 1,13,14
 990 -154 990 -154 1131 -214 c 128,-1,15
 1272 -274 1272 -274 1392 -274 c 0,16,17
 1434 -274 1434 -274 1474 -269 c 128,-1,18
 1514 -264 1514 -264 1533 -259 c 2,19,-1
 1552 -254 l 1,20,-1
 1560 -260 l 1,21,-1
 1572 -296 l 1,22,23
 1422 -432 1422 -432 1382 -432 c 0,24,25
 1240 -432 1240 -432 1097 -358 c 128,-1,26
 954 -284 954 -284 598 -24 c 1,0,1
660 78 m 0,27,28
 850 78 850 78 970 223 c 128,-1,29
 1090 368 1090 368 1090 598 c 0,30,31
 1090 854 1090 854 963 1016 c 128,-1,32
 836 1178 836 1178 634 1178 c 0,33,34
 448 1178 448 1178 332 1034 c 128,-1,35
 216 890 216 890 216 658 c 0,36,37
 216 402 216 402 340 240 c 128,-1,38
 464 78 464 78 660 78 c 0,27,28
EndSplineSet
Validated: 1
EndChar

StartChar: R
Encoding: 82 82 53
Width: 1179
GlyphClass: 2
Flags: W
LayerCount: 2
Fore
SplineSet
524 546 m 1,0,-1
 358 546 l 1,1,-1
 352 248 l 2,2,3
 352 140 352 140 376 112 c 128,-1,4
 400 84 400 84 496 84 c 1,5,-1
 500 76 l 1,6,-1
 482 -8 l 2,7,8
 482 -6 482 -6 270 -2 c 1,9,-1
 40 -8 l 1,10,-1
 58 82 l 1,11,12
 152 92 152 92 181 123 c 128,-1,13
 210 154 210 154 210 240 c 2,14,-1
 212 1080 l 2,15,16
 212 1144 212 1144 197 1166 c 128,-1,17
 182 1188 182 1188 138 1188 c 2,18,-1
 70 1184 l 1,19,-1
 66 1192 l 1,20,-1
 80 1280 l 1,21,22
 226 1274 226 1274 302 1274 c 2,23,-1
 548 1282 l 1,24,25
 734 1282 734 1282 842 1198 c 128,-1,26
 950 1114 950 1114 950 968 c 0,27,28
 950 848 950 848 873 748 c 128,-1,29
 796 648 796 648 656 584 c 1,30,-1
 876 236 l 2,31,32
 934 140 934 140 989 103 c 128,-1,33
 1044 66 1044 66 1124 66 c 1,34,-1
 1132 58 l 1,35,-1
 1120 -10 l 1,36,-1
 950 -32 l 1,37,38
 900 -32 900 -32 843 19 c 128,-1,39
 786 70 786 70 738 158 c 2,40,-1
 524 546 l 1,0,-1
362 658 m 1,41,-1
 568 638 l 2,42,43
 576 640 576 640 591 645 c 128,-1,44
 606 650 606 650 643 673 c 128,-1,45
 680 696 680 696 709 726 c 128,-1,46
 738 756 738 756 761 811 c 128,-1,47
 784 866 784 866 784 932 c 0,48,49
 784 1196 784 1196 418 1196 c 0,50,51
 398 1196 398 1196 391 1187 c 128,-1,52
 384 1178 384 1178 382 1150 c 0,53,54
 364 844 364 844 362 658 c 1,41,-1
EndSplineSet
Validated: 1
EndChar

StartChar: S
Encoding: 83 83 54
Width: 917
GlyphClass: 2
Flags: W
LayerCount: 2
Fore
SplineSet
384 -24 m 0,0,1
 300 -24 300 -24 222 -7 c 128,-1,2
 144 10 144 10 107 27 c 2,3,-1
 70 44 l 1,4,-1
 60 64 l 1,5,6
 84 218 84 218 84 412 c 1,7,-1
 174 422 l 1,8,9
 174 206 174 206 223 140 c 128,-1,10
 272 74 272 74 434 74 c 0,11,12
 560 74 560 74 636 133 c 128,-1,13
 712 192 712 192 712 294 c 0,14,15
 712 338 712 338 690 377 c 128,-1,16
 668 416 668 416 623 450 c 128,-1,17
 578 484 578 484 536 508 c 128,-1,18
 494 532 494 532 427 566 c 0,19,20
 414 572 414 572 408 576 c 0,21,22
 332 616 332 616 287 643 c 128,-1,23
 242 670 242 670 188 715 c 128,-1,24
 134 760 134 760 108 812 c 128,-1,25
 82 864 82 864 82 926 c 0,26,27
 82 1084 82 1084 215 1191 c 128,-1,28
 348 1298 348 1298 542 1298 c 0,29,30
 622 1298 622 1298 698 1285 c 128,-1,31
 774 1272 774 1272 811 1260 c 2,32,-1
 848 1248 l 1,33,-1
 854 1236 l 1,34,35
 822 1082 822 1082 810 898 c 1,36,-1
 732 890 l 1,37,-1
 720 900 l 1,38,39
 726 942 726 942 726 1004 c 0,40,41
 726 1110 726 1110 674 1150 c 128,-1,42
 622 1190 622 1190 488 1190 c 0,43,44
 378 1190 378 1190 307 1135 c 128,-1,45
 236 1080 236 1080 236 998 c 0,46,47
 236 918 236 918 305 859 c 128,-1,48
 374 800 374 800 508 730 c 0,49,50
 706 627 706 627 771 572 c 0,51,52
 878 480 878 480 878 366 c 0,53,54
 878 194 878 194 740 85 c 128,-1,55
 602 -24 602 -24 384 -24 c 0,0,1
EndSplineSet
Validated: 1
EndChar

StartChar: T
Encoding: 84 84 55
Width: 1113
GlyphClass: 2
Flags: W
LayerCount: 2
Fore
SplineSet
482 324 m 2,0,-1
 482 1196 l 1,1,2
 388 1192 388 1192 347 1190 c 128,-1,3
 306 1188 306 1188 259 1176 c 128,-1,4
 212 1164 212 1164 199 1154 c 128,-1,5
 186 1144 186 1144 167 1109 c 128,-1,6
 148 1074 148 1074 143 1044 c 128,-1,7
 138 1014 138 1014 128 944 c 1,8,-1
 34 936 l 1,9,10
 58 1112 58 1112 64 1282 c 1,11,-1
 82 1298 l 1,12,-1
 248 1276 l 1,13,-1
 868 1276 l 1,14,-1
 1038 1298 l 1,15,-1
 1056 1282 l 1,16,17
 1058 1206 1058 1206 1066 1122 c 128,-1,18
 1074 1038 1074 1038 1080 991 c 2,19,-1
 1086 944 l 1,20,-1
 992 936 l 1,21,22
 980 1006 980 1006 974 1038 c 128,-1,23
 968 1070 968 1070 950 1106 c 128,-1,24
 932 1142 932 1142 918 1152 c 128,-1,25
 904 1162 904 1162 861 1175 c 128,-1,26
 818 1188 818 1188 778 1190 c 128,-1,27
 738 1192 738 1192 654 1196 c 1,28,29
 622 876 622 876 622 224 c 0,30,31
 622 150 622 150 648 119 c 128,-1,32
 674 88 674 88 736 88 c 2,33,-1
 846 94 l 1,34,-1
 852 86 l 1,35,-1
 834 -6 l 1,36,37
 634 0 634 0 540 0 c 2,38,-1
 266 -8 l 1,39,-1
 282 78 l 1,40,41
 422 90 422 90 452 127 c 128,-1,42
 482 164 482 164 482 324 c 2,0,-1
EndSplineSet
Validated: 1
EndChar

StartChar: U
Encoding: 85 85 56
Width: 1293
GlyphClass: 2
Flags: W
LayerCount: 2
Fore
SplineSet
333 500 m 1,0,1
 333 302 333 302 419 196 c 128,-1,2
 505 90 505 90 667 90 c 0,3,4
 831 90 831 90 917 177 c 128,-1,5
 1003 264 1003 264 1003 428 c 2,6,-1
 991 1080 l 2,7,8
 987 1150 987 1150 974 1169 c 128,-1,9
 961 1188 961 1188 917 1188 c 2,10,-1
 831 1184 l 1,11,-1
 827 1192 l 1,12,-1
 841 1280 l 1,13,14
 991 1274 991 1274 1067 1274 c 0,15,16
 1105 1274 1105 1274 1154 1279 c 128,-1,17
 1203 1284 1203 1284 1232 1288 c 2,18,-1
 1261 1292 l 1,19,-1
 1253 1202 l 1,20,21
 1165 1190 1165 1190 1140 1170 c 128,-1,22
 1115 1150 1115 1150 1115 1088 c 2,23,-1
 1115 416 l 2,24,25
 1115 206 1115 206 985 91 c 128,-1,26
 855 -24 855 -24 619 -24 c 0,27,28
 409 -24 409 -24 295 91 c 128,-1,29
 181 206 181 206 181 418 c 2,30,-1
 181 1080 l 2,31,32
 181 1144 181 1144 166 1166 c 128,-1,33
 151 1188 151 1188 107 1188 c 2,34,-1
 39 1184 l 1,35,-1
 35 1192 l 1,36,-1
 49 1280 l 1,37,38
 199 1274 199 1274 275 1274 c 0,39,40
 313 1274 313 1274 366 1279 c 128,-1,41
 419 1284 419 1284 452 1288 c 2,42,-1
 485 1292 l 1,43,-1
 477 1202 l 1,44,45
 403 1192 403 1192 378 1169 c 128,-1,46
 353 1146 353 1146 349 1088 c 2,47,-1
 333 500 l 1,0,1
EndSplineSet
Validated: 1
EndChar

StartChar: V
Encoding: 86 86 57
Width: 1312
GlyphClass: 2
Flags: W
LayerCount: 2
Fore
SplineSet
226 1072 m 0,0,1
 190 1184 190 1184 42 1186 c 1,2,-1
 38 1194 l 1,3,-1
 52 1280 l 1,4,5
 216 1274 216 1274 284 1274 c 0,6,7
 332 1274 332 1274 407 1279 c 128,-1,8
 482 1284 482 1284 533 1290 c 2,9,-1
 584 1296 l 1,10,-1
 590 1282 l 1,11,-1
 582 1204 l 1,12,13
 474 1196 474 1196 439 1180 c 128,-1,14
 404 1164 404 1164 404 1120 c 0,15,16
 404 1092 404 1092 467 860 c 128,-1,17
 530 628 530 628 593 411 c 2,18,-1
 656 194 l 1,19,-1
 674 194 l 1,20,21
 1006 1050 1006 1050 1006 1114 c 0,22,23
 1006 1194 1006 1194 868 1194 c 2,24,-1
 764 1194 l 1,25,-1
 760 1202 l 1,26,-1
 772 1288 l 1,27,28
 926 1274 926 1274 1058 1274 c 2,29,-1
 1278 1280 l 1,30,-1
 1262 1186 l 1,31,32
 1200 1184 1200 1184 1176 1166 c 128,-1,33
 1152 1148 1152 1148 1130 1090 c 2,34,-1
 700 10 l 1,35,-1
 572 -34 l 1,36,37
 394 552 394 552 226 1072 c 0,0,1
EndSplineSet
Validated: 1
EndChar

StartChar: W
Encoding: 87 87 58
Width: 1948
GlyphClass: 2
Flags: W
LayerCount: 2
Fore
SplineSet
1352 10 m 1,0,-1
 1228 -34 l 1,1,2
 1114 376 1114 376 978 814 c 1,3,-1
 966 814 l 1,4,-1
 682 10 l 1,5,-1
 554 -34 l 1,6,7
 388 554 388 554 220 1072 c 0,8,9
 184 1184 184 1184 40 1186 c 0,10,11
 40 1188 40 1188 39 1190 c 128,-1,12
 38 1192 38 1192 38 1194 c 2,13,-1
 50 1280 l 1,14,15
 210 1274 210 1274 276 1274 c 0,16,17
 340 1274 340 1274 412 1279 c 128,-1,18
 484 1284 484 1284 525 1290 c 2,19,-1
 566 1296 l 1,20,-1
 572 1282 l 1,21,-1
 564 1204 l 1,22,23
 462 1196 462 1196 427 1180 c 128,-1,24
 392 1164 392 1164 392 1122 c 0,25,26
 392 1088 392 1088 454 856 c 128,-1,27
 516 624 516 624 577 409 c 2,28,-1
 638 194 l 1,29,-1
 650 194 l 1,30,-1
 932 962 l 1,31,-1
 896 1072 l 2,32,33
 876 1130 876 1130 834 1156 c 128,-1,34
 792 1182 792 1182 716 1186 c 1,35,-1
 712 1194 l 1,36,-1
 726 1280 l 1,37,38
 886 1274 886 1274 952 1274 c 0,39,40
 1006 1274 1006 1274 1078 1279 c 128,-1,41
 1150 1284 1150 1284 1196 1290 c 2,42,-1
 1242 1296 l 1,43,-1
 1248 1282 l 1,44,-1
 1240 1204 l 1,45,46
 1136 1196 1136 1196 1101 1180 c 128,-1,47
 1066 1164 1066 1164 1066 1120 c 0,48,49
 1066 1090 1066 1090 1128 859 c 128,-1,50
 1190 628 1190 628 1252 411 c 2,51,-1
 1314 194 l 1,52,-1
 1326 194 l 1,53,54
 1650 1068 1650 1068 1650 1124 c 0,55,56
 1650 1194 1650 1194 1514 1194 c 2,57,-1
 1414 1194 l 1,58,-1
 1410 1202 l 1,59,-1
 1424 1288 l 1,60,61
 1574 1274 1574 1274 1702 1274 c 2,62,-1
 1914 1280 l 1,63,-1
 1900 1186 l 1,64,65
 1840 1182 1840 1182 1816 1165 c 128,-1,66
 1792 1148 1792 1148 1772 1090 c 2,67,-1
 1352 10 l 1,0,-1
EndSplineSet
Validated: 1
EndChar

StartChar: X
Encoding: 88 88 59
Width: 1378
GlyphClass: 2
Flags: W
LayerCount: 2
Fore
SplineSet
387 364 m 2,0,-1
 607 636 l 1,1,-1
 345 1028 l 2,2,3
 249 1170 249 1170 71 1194 c 1,4,-1
 67 1202 l 1,5,-1
 79 1280 l 1,6,7
 275 1274 275 1274 367 1274 c 0,8,9
 437 1274 437 1274 505 1278 c 128,-1,10
 573 1282 573 1282 605 1286 c 2,11,-1
 637 1290 l 1,12,-1
 643 1276 l 1,13,-1
 637 1206 l 1,14,15
 481 1194 481 1194 481 1134 c 0,16,17
 481 1098 481 1098 707 754 c 1,18,19
 727 782 727 782 768 835 c 128,-1,20
 809 888 809 888 839 929 c 128,-1,21
 869 970 869 970 901 1015 c 128,-1,22
 933 1060 933 1060 951 1093 c 128,-1,23
 969 1126 969 1126 969 1142 c 0,24,25
 969 1190 969 1190 853 1202 c 1,26,-1
 849 1210 l 1,27,-1
 861 1288 l 1,28,29
 1007 1274 1007 1274 1081 1274 c 2,30,-1
 1275 1282 l 1,31,-1
 1283 1268 l 1,32,-1
 1271 1194 l 1,33,34
 1185 1176 1185 1176 1137 1137 c 128,-1,35
 1089 1098 1089 1098 999 986 c 2,36,-1
 757 680 l 1,37,-1
 1049 254 l 2,38,39
 1103 174 1103 174 1166 135 c 128,-1,40
 1229 96 1229 96 1323 88 c 1,41,-1
 1327 80 l 1,42,-1
 1313 -6 l 1,43,44
 1157 0 1157 0 1065 0 c 1,45,-1
 755 -16 l 1,46,-1
 749 -2 l 1,47,-1
 757 76 l 1,48,49
 913 84 913 84 913 146 c 0,50,51
 913 176 913 176 873 234 c 2,52,-1
 655 562 l 1,53,-1
 471 318 l 2,54,55
 409 236 409 236 389 202 c 128,-1,56
 369 168 369 168 369 140 c 0,57,58
 369 88 369 88 485 80 c 1,59,-1
 489 72 l 1,60,-1
 475 -14 l 1,61,62
 329 0 329 0 255 0 c 2,63,-1
 57 -8 l 1,64,-1
 49 6 l 1,65,-1
 63 88 l 1,66,67
 145 112 145 112 215 175 c 128,-1,68
 285 238 285 238 387 364 c 2,0,-1
EndSplineSet
Validated: 1
EndChar

StartChar: Y
Encoding: 89 89 60
Width: 1226
GlyphClass: 2
Flags: W
LayerCount: 2
Fore
SplineSet
402 1134 m 0,0,1
 402 1108 402 1108 458 979 c 128,-1,2
 514 850 514 850 569 734 c 128,-1,3
 624 618 624 618 626 618 c 2,4,-1
 636 618 l 1,5,-1
 864 1042 l 2,6,7
 896 1100 896 1100 896 1142 c 0,8,9
 896 1194 896 1194 770 1202 c 1,10,-1
 766 1210 l 1,11,-1
 778 1288 l 1,12,13
 926 1274 926 1274 1000 1274 c 2,14,-1
 1184 1282 l 1,15,-1
 1192 1268 l 1,16,-1
 1180 1194 l 1,17,18
 1088 1176 1088 1176 1049 1138 c 128,-1,19
 1010 1100 1010 1100 939 970 c 0,20,21
 926 946 926 946 918 934 c 2,22,-1
 718 582 l 2,23,24
 698 546 698 546 689 496 c 128,-1,25
 680 446 680 446 678 407 c 0,26,27
 674 329 674 329 674 224 c 0,28,29
 674 210 674 210 674 210 c 2,30,31
 674 198 674 198 674 198 c 2,32,33
 674 188 674 188 674 188 c 2,34,35
 674 180 674 180 674 180 c 2,36,37
 674 177 674 177 674 174 c 0,38,39
 672 146 672 146 691 117 c 128,-1,40
 710 88 710 88 762 88 c 2,41,-1
 860 94 l 1,42,-1
 864 86 l 1,43,-1
 846 -6 l 1,44,45
 680 0 680 0 592 0 c 0,46,47
 548 0 548 0 491 -6 c 128,-1,48
 434 -12 434 -12 399 -18 c 2,49,-1
 364 -24 l 1,50,-1
 376 68 l 1,51,52
 480 88 480 88 506 128 c 128,-1,53
 532 168 532 168 532 284 c 2,54,-1
 532 372 l 2,55,56
 532 482 532 482 474 598 c 2,57,-1
 294 964 l 2,58,59
 226 1103 226 1103 198 1134 c 0,60,61
 151 1185 151 1185 42 1194 c 1,62,-1
 38 1202 l 1,63,-1
 50 1280 l 1,64,65
 178 1274 178 1274 270 1274 c 1,66,-1
 554 1290 l 1,67,-1
 560 1276 l 1,68,-1
 554 1206 l 1,69,70
 464 1198 464 1198 433 1183 c 128,-1,71
 402 1168 402 1168 402 1134 c 0,0,1
EndSplineSet
Validated: 1
EndChar

StartChar: Z
Encoding: 90 90 61
Width: 1067
GlyphClass: 2
Flags: W
LayerCount: 2
Fore
SplineSet
966 26 m 1,0,-1
 936 -6 l 1,1,-1
 212 6 l 1,2,-1
 72 -6 l 1,3,-1
 44 58 l 1,4,-1
 790 1186 l 1,5,-1
 444 1174 l 2,6,7
 306 1168 306 1168 248 1109 c 128,-1,8
 190 1050 190 1050 174 898 c 1,9,-1
 80 890 l 1,10,11
 112 1096 112 1096 116 1280 c 1,12,-1
 136 1298 l 1,13,-1
 486 1276 l 1,14,-1
 1002 1262 l 1,15,-1
 1024 1204 l 1,16,17
 642 696 642 696 252 80 c 1,18,-1
 658 94 l 2,19,20
 762 96 762 96 826 176 c 128,-1,21
 890 256 890 256 922 426 c 1,22,-1
 1016 436 l 1,23,24
 976 218 976 218 966 26 c 1,0,-1
EndSplineSet
Validated: 1
EndChar

StartChar: bracketleft
Encoding: 91 91 62
Width: 495
GlyphClass: 2
Flags: W
LayerCount: 2
Fore
SplineSet
447 -274 m 1,0,-1
 83 -252 l 1,1,2
 105 300 105 300 105 500 c 1,3,-1
 83 1258 l 1,4,-1
 451 1280 l 1,5,-1
 459 1268 l 1,6,-1
 447 1206 l 1,7,-1
 219 1158 l 1,8,-1
 219 -152 l 1,9,-1
 451 -200 l 1,10,-1
 459 -214 l 1,11,-1
 447 -274 l 1,0,-1
EndSplineSet
Validated: 1
Substitution2: "'rtla' Right to Left Alternates lookup 0 subtable" bracketright
EndChar

StartChar: backslash
Encoding: 92 92 63
Width: 580
GlyphClass: 2
Flags: W
LayerCount: 2
Fore
SplineSet
33 1330 m 1,0,-1
 49 1350 l 1,1,-1
 141 1350 l 1,2,-1
 371 452 l 2,3,4
 405 316 405 316 451 152 c 128,-1,5
 497 -12 497 -12 526 -108 c 2,6,-1
 555 -204 l 1,7,-1
 541 -220 l 1,8,-1
 445 -220 l 1,9,10
 361 100 361 100 277 430 c 1,11,-1
 33 1330 l 1,0,-1
EndSplineSet
Validated: 1
EndChar

StartChar: bracketright
Encoding: 93 93 64
Width: 494
GlyphClass: 2
Flags: W
LayerCount: 2
Fore
SplineSet
49 1280 m 1,0,-1
 413 1258 l 1,1,2
 391 706 391 706 391 506 c 1,3,-1
 413 -252 l 1,4,-1
 45 -274 l 1,5,-1
 37 -262 l 1,6,-1
 49 -200 l 1,7,-1
 277 -152 l 1,8,-1
 277 1158 l 1,9,-1
 45 1206 l 1,10,-1
 37 1220 l 1,11,-1
 49 1280 l 1,0,-1
EndSplineSet
Validated: 1
Substitution2: "'rtla' Right to Left Alternates lookup 0 subtable" bracketleft
EndChar

StartChar: asciicircum
Encoding: 94 94 65
Width: 871
GlyphClass: 2
Flags: W
LayerCount: 2
Fore
SplineSet
471 962 m 1,0,-1
 493 946 l 1,1,2
 597 696 597 696 661 550 c 2,3,-1
 831 174 l 1,4,-1
 751 114 l 1,5,-1
 729 116 l 1,6,7
 643 314 643 314 571 478 c 2,8,-1
 431 814 l 1,9,-1
 419 814 l 1,10,-1
 299 506 l 1,11,-1
 153 118 l 1,12,-1
 53 132 l 1,13,-1
 43 150 l 1,14,15
 127 370 127 370 205 552 c 2,16,-1
 377 958 l 1,17,-1
 471 962 l 1,0,-1
EndSplineSet
Validated: 1
EndChar

StartChar: grave
Encoding: 96 96 67
Width: 530
GlyphClass: 2
Flags: W
LayerCount: 2
Fore
SplineSet
68 1320 m 1,0,-1
 66 1342 l 1,1,-1
 142 1424 l 1,2,-1
 162 1428 l 1,3,4
 318 1240 318 1240 462 1084 c 1,5,-1
 422 1046 l 1,6,-1
 404 1042 l 1,7,8
 330 1110 330 1110 246 1179 c 128,-1,9
 162 1248 162 1248 115 1284 c 2,10,-1
 68 1320 l 1,0,-1
EndSplineSet
Validated: 1
EndChar

StartChar: a
Encoding: 97 97 68
Width: 901
GlyphClass: 2
Flags: W
LayerCount: 2
Fore
SplineSet
524 496 m 1,0,-1
 528 584 l 1,1,2
 528 684 528 684 482 740 c 128,-1,3
 436 796 436 796 352 796 c 0,4,5
 294 796 294 796 234 771 c 128,-1,6
 174 746 174 746 143 721 c 2,7,-1
 112 696 l 1,8,-1
 102 702 l 1,9,-1
 78 788 l 1,10,11
 318 928 318 928 404 928 c 0,12,13
 534 928 534 928 608 860 c 128,-1,14
 682 792 682 792 682 670 c 0,15,16
 682 640 682 640 664 457 c 128,-1,17
 646 274 646 274 646 210 c 0,18,19
 646 118 646 118 728 118 c 0,20,21
 756 118 756 118 786 131 c 128,-1,22
 816 144 816 144 832 156 c 2,23,-1
 848 168 l 1,24,-1
 876 136 l 1,25,26
 868 122 868 122 853 100 c 128,-1,27
 838 78 838 78 792 35 c 128,-1,28
 746 -8 746 -8 702 -24 c 1,29,30
 538 -24 538 -24 524 138 c 1,31,-1
 516 140 l 1,32,33
 360 -16 360 -16 296 -16 c 0,34,35
 184 -16 184 -16 112 54 c 128,-1,36
 40 124 40 124 40 232 c 0,37,38
 40 290 40 290 69 334 c 128,-1,39
 98 378 98 378 146 392 c 2,40,-1
 524 496 l 1,0,-1
512 216 m 1,41,-1
 520 420 l 1,42,-1
 250 338 l 2,43,44
 192 320 192 320 192 254 c 0,45,46
 192 196 192 196 231 158 c 128,-1,47
 270 120 270 120 330 120 c 0,48,49
 416 120 416 120 512 216 c 1,41,-1
EndSplineSet
Validated: 1
EndChar

StartChar: b
Encoding: 98 98 69
Width: 962
GlyphClass: 2
Flags: W
LayerCount: 2
Fore
SplineSet
148 1252 m 2,0,1
 148 1360 148 1360 74 1360 c 1,2,-1
 30 1354 l 1,3,-1
 24 1360 l 1,4,-1
 32 1426 l 1,5,6
 94 1434 94 1434 168 1449 c 128,-1,7
 242 1464 242 1464 285 1474 c 2,8,-1
 328 1484 l 1,9,-1
 340 1458 l 1,10,11
 310 1412 310 1412 294 788 c 1,12,13
 488 928 488 928 536 928 c 0,14,15
 708 928 708 928 815 809 c 128,-1,16
 922 690 922 690 922 500 c 0,17,18
 922 282 922 282 777 129 c 128,-1,19
 632 -24 632 -24 424 -24 c 0,20,21
 364 -24 364 -24 300 -18 c 128,-1,22
 236 -12 236 -12 201 -6 c 2,23,-1
 166 0 l 1,24,-1
 148 16 l 1,25,-1
 148 1252 l 2,0,1
284 128 m 1,26,27
 368 86 368 86 480 86 c 0,28,29
 614 86 614 86 691 177 c 128,-1,30
 768 268 768 268 768 426 c 0,31,32
 768 580 768 580 691 686 c 128,-1,33
 614 792 614 792 504 792 c 0,34,35
 464 792 464 792 402 761 c 128,-1,36
 340 730 340 730 290 684 c 1,37,-1
 284 128 l 1,26,27
EndSplineSet
Validated: 1
EndChar

StartChar: c
Encoding: 99 99 70
Width: 794
GlyphClass: 2
Flags: W
LayerCount: 2
Fore
SplineSet
703 176 m 1,0,-1
 715 172 l 1,1,-1
 737 110 l 1,2,3
 561 -24 561 -24 463 -24 c 0,4,5
 273 -24 273 -24 159 96 c 128,-1,6
 45 216 45 216 45 418 c 0,7,8
 45 634 45 634 178 781 c 128,-1,9
 311 928 311 928 507 928 c 0,10,11
 563 928 563 928 622 918 c 128,-1,12
 681 908 681 908 711 899 c 2,13,-1
 741 890 l 1,14,-1
 747 876 l 1,15,16
 711 756 711 756 705 600 c 1,17,-1
 623 594 l 1,18,-1
 623 656 l 2,19,20
 623 730 623 730 578 775 c 128,-1,21
 533 820 533 820 459 820 c 0,22,23
 337 820 337 820 271 733 c 128,-1,24
 205 646 205 646 205 486 c 0,25,26
 205 312 205 312 278 211 c 128,-1,27
 351 110 351 110 477 110 c 0,28,29
 527 110 527 110 583 127 c 128,-1,30
 639 144 639 144 671 160 c 2,31,-1
 703 176 l 1,0,-1
EndSplineSet
Validated: 1
EndChar

StartChar: d
Encoding: 100 100 71
Width: 1071
GlyphClass: 2
Flags: W
LayerCount: 2
Fore
SplineSet
680 124 m 1,0,1
 472 -18 472 -18 430 -18 c 0,2,3
 258 -18 258 -18 151 99 c 128,-1,4
 44 216 44 216 44 404 c 0,5,6
 44 620 44 620 190 774 c 128,-1,7
 336 928 336 928 542 928 c 0,8,9
 606 928 606 928 680 920 c 1,10,-1
 680 1252 l 2,11,12
 680 1360 680 1360 606 1360 c 1,13,-1
 556 1352 l 1,14,-1
 564 1426 l 1,15,16
 626 1434 626 1434 700 1449 c 128,-1,17
 774 1464 774 1464 817 1474 c 2,18,-1
 860 1484 l 1,19,-1
 872 1458 l 1,20,21
 850 1424 850 1424 833 1036 c 128,-1,22
 816 648 816 648 816 210 c 0,23,24
 816 118 816 118 898 118 c 0,25,26
 926 118 926 118 956 131 c 128,-1,27
 986 144 986 144 1002 156 c 2,28,-1
 1018 168 l 1,29,-1
 1046 136 l 1,30,31
 1038 122 1038 122 1022 99 c 128,-1,32
 1006 76 1006 76 960 32 c 128,-1,33
 914 -12 914 -12 872 -24 c 1,34,35
 716 -24 716 -24 694 118 c 1,36,-1
 680 124 l 1,0,1
680 218 m 1,37,-1
 680 766 l 1,38,39
 606 812 606 812 486 812 c 0,40,41
 352 812 352 812 275 721 c 128,-1,42
 198 630 198 630 198 472 c 0,43,44
 198 320 198 320 274 216 c 128,-1,45
 350 112 350 112 462 112 c 0,46,47
 504 112 504 112 559 138 c 128,-1,48
 614 164 614 164 647 191 c 2,49,-1
 680 218 l 1,37,-1
EndSplineSet
Validated: 1
EndChar

StartChar: e
Encoding: 101 101 72
Width: 826
GlyphClass: 2
Flags: W
LayerCount: 2
Fore
SplineSet
203 590 m 1,0,-1
 565 608 l 2,1,2
 595 612 595 612 605 622 c 128,-1,3
 615 632 615 632 615 662 c 0,4,5
 615 742 615 742 572 784 c 128,-1,6
 529 826 529 826 449 826 c 0,7,8
 355 826 355 826 288 762 c 128,-1,9
 221 698 221 698 203 590 c 1,0,-1
747 516 m 1,10,-1
 195 516 l 1,11,-1
 195 484 l 2,12,13
 195 316 195 316 276 214 c 128,-1,14
 357 112 357 112 491 112 c 0,15,16
 547 112 547 112 608 128 c 128,-1,17
 669 144 669 144 703 159 c 2,18,-1
 737 174 l 1,19,-1
 749 170 l 1,20,-1
 771 112 l 1,21,22
 751 96 751 96 716 74 c 128,-1,23
 681 52 681 52 600 14 c 128,-1,24
 519 -24 519 -24 465 -24 c 0,25,26
 277 -24 277 -24 161 98 c 128,-1,27
 45 220 45 220 45 418 c 0,28,29
 45 624 45 624 177 776 c 128,-1,30
 309 928 309 928 487 928 c 0,31,32
 785 928 785 928 785 638 c 1,33,-1
 773 540 l 1,34,-1
 747 516 l 1,10,-1
EndSplineSet
Validated: 1
EndChar

StartChar: f
Encoding: 102 102 73
Width: 762
GlyphClass: 2
Flags: W
LayerCount: 2
Fore
SplineSet
52 810 m 1,0,-1
 44 822 l 1,1,-1
 58 890 l 1,2,-1
 178 912 l 1,3,-1
 178 920 l 2,4,5
 180 1180 180 1180 304 1332 c 128,-1,6
 428 1484 428 1484 638 1484 c 0,7,8
 698 1484 698 1484 755 1474 c 128,-1,9
 812 1464 812 1464 839 1455 c 2,10,-1
 866 1446 l 1,11,-1
 870 1428 l 1,12,13
 838 1372 838 1372 808 1298 c 1,14,-1
 786 1292 l 1,15,16
 686 1366 686 1366 556 1366 c 0,17,18
 332 1366 332 1366 326 996 c 2,19,-1
 324 898 l 1,20,-1
 600 904 l 1,21,-1
 606 898 l 1,22,-1
 586 792 l 1,23,24
 462 798 462 798 322 798 c 1,25,-1
 314 196 l 2,26,27
 314 86 314 86 416 86 c 2,28,-1
 536 90 l 1,29,-1
 540 82 l 1,30,-1
 526 -4 l 1,31,32
 356 0 356 0 278 0 c 2,33,-1
 54 -8 l 1,34,-1
 64 70 l 1,35,36
 178 84 178 84 178 188 c 2,37,-1
 178 728 l 2,38,39
 176 776 176 776 151 791 c 128,-1,40
 126 806 126 806 52 810 c 1,0,-1
EndSplineSet
Validated: 1
EndChar

StartChar: g
Encoding: 103 103 74
Width: 942
GlyphClass: 2
Flags: W
LayerCount: 2
Fore
SplineSet
396 260 m 0,0,1
 348 260 348 260 280 276 c 1,2,3
 196 230 196 230 196 188 c 0,4,5
 196 98 196 98 436 90 c 1,6,7
 668 78 668 78 765 29 c 128,-1,8
 862 -20 862 -20 862 -124 c 0,9,10
 862 -262 862 -262 709 -373 c 128,-1,11
 556 -484 556 -484 366 -484 c 0,12,13
 224 -484 224 -484 144 -414 c 128,-1,14
 64 -344 64 -344 64 -218 c 1,15,16
 94 -178 94 -178 143 -133 c 128,-1,17
 192 -88 192 -88 227 -63 c 2,18,-1
 262 -38 l 1,19,-1
 262 -26 l 1,20,21
 168 -14 168 -14 106 42 c 128,-1,22
 44 98 44 98 44 170 c 1,23,24
 72 198 72 198 114 230 c 128,-1,25
 156 262 156 262 184 280 c 2,26,-1
 212 298 l 1,27,-1
 212 306 l 1,28,29
 64 384 64 384 64 572 c 0,30,31
 64 714 64 714 176 821 c 128,-1,32
 288 928 288 928 436 928 c 0,33,34
 476 928 476 928 542 917 c 128,-1,35
 608 906 608 906 632 906 c 0,36,37
 678 912 678 912 747 927 c 128,-1,38
 816 942 816 942 862 954 c 2,39,-1
 908 966 l 1,40,-1
 914 958 l 1,41,-1
 892 846 l 1,42,43
 804 834 804 834 720 828 c 1,44,-1
 712 818 l 1,45,46
 792 728 792 728 792 616 c 0,47,48
 792 466 792 466 677 363 c 128,-1,49
 562 260 562 260 396 260 c 0,0,1
444 348 m 0,50,51
 536 348 536 348 589 406 c 128,-1,52
 642 464 642 464 642 566 c 0,53,54
 642 682 642 682 578 754 c 128,-1,55
 514 826 514 826 412 826 c 0,56,57
 320 826 320 826 267 766 c 128,-1,58
 214 706 214 706 214 606 c 0,59,60
 214 490 214 490 277 419 c 128,-1,61
 340 348 340 348 444 348 c 0,50,51
440 -386 m 0,62,63
 556 -386 556 -386 645 -326 c 128,-1,64
 734 -266 734 -266 734 -188 c 0,65,66
 734 -130 734 -130 658 -101 c 128,-1,67
 582 -72 582 -72 344 -40 c 1,68,69
 330 -50 330 -50 309 -68 c 128,-1,70
 288 -86 288 -86 254 -134 c 128,-1,71
 220 -182 220 -182 220 -222 c 0,72,73
 220 -298 220 -298 278 -342 c 128,-1,74
 336 -386 336 -386 440 -386 c 0,62,63
EndSplineSet
Validated: 1
EndChar

StartChar: h
Encoding: 104 104 75
Width: 1035
GlyphClass: 2
Flags: W
LayerCount: 2
Fore
SplineSet
43 -4 m 1,0,-1
 55 78 l 1,1,2
 113 84 113 84 136 108 c 128,-1,3
 159 132 159 132 159 188 c 2,4,-1
 159 1252 l 2,5,6
 159 1356 159 1356 85 1356 c 2,7,-1
 43 1356 l 1,8,-1
 35 1362 l 1,9,-1
 43 1426 l 1,10,11
 105 1434 105 1434 179 1449 c 128,-1,12
 253 1464 253 1464 296 1474 c 2,13,-1
 339 1484 l 1,14,-1
 351 1458 l 1,15,16
 321 1412 321 1412 303 772 c 1,17,18
 531 928 531 928 603 928 c 0,19,20
 733 928 733 928 805 860 c 128,-1,21
 877 792 877 792 877 670 c 0,22,23
 877 640 877 640 861 450 c 128,-1,24
 845 260 845 260 845 196 c 0,25,26
 845 84 845 84 915 84 c 2,27,-1
 985 88 l 1,28,-1
 989 80 l 1,29,-1
 973 -6 l 1,30,31
 869 0 869 0 795 0 c 0,32,33
 757 0 757 0 706 -6 c 128,-1,34
 655 -12 655 -12 622 -18 c 2,35,-1
 589 -24 l 1,36,-1
 597 58 l 1,37,38
 709 88 709 88 709 188 c 2,39,-1
 721 584 l 2,40,41
 721 684 721 684 678 738 c 128,-1,42
 635 792 635 792 555 792 c 0,43,44
 439 792 439 792 301 682 c 1,45,46
 295 452 295 452 295 196 c 0,47,48
 295 134 295 134 311 109 c 128,-1,49
 327 84 327 84 367 84 c 2,50,-1
 437 88 l 1,51,-1
 441 80 l 1,52,-1
 423 -6 l 1,53,54
 315 0 315 0 241 0 c 2,55,-1
 43 -4 l 1,0,-1
EndSplineSet
Validated: 1
EndChar

StartChar: i
Encoding: 105 105 76
Width: 498
GlyphClass: 2
Flags: W
LayerCount: 2
Fore
SplineSet
229 1204 m 0,0,1
 185 1204 185 1204 158 1232 c 128,-1,2
 131 1260 131 1260 131 1306 c 0,3,4
 131 1356 131 1356 165 1390 c 128,-1,5
 199 1424 199 1424 249 1424 c 0,6,7
 291 1424 291 1424 319 1395 c 128,-1,8
 347 1366 347 1366 347 1322 c 0,9,10
 347 1272 347 1272 313 1238 c 128,-1,11
 279 1204 279 1204 229 1204 c 0,0,1
51 -24 m 1,12,-1
 59 58 l 1,13,14
 171 88 171 88 171 188 c 2,15,-1
 171 696 l 2,16,17
 171 804 171 804 97 804 c 1,18,-1
 47 796 l 1,19,-1
 55 870 l 1,20,21
 115 878 115 878 187 893 c 128,-1,22
 259 908 259 908 301 918 c 2,23,-1
 343 928 l 1,24,-1
 353 904 l 1,25,26
 335 862 335 862 321 647 c 128,-1,27
 307 432 307 432 307 196 c 0,28,29
 307 84 307 84 377 84 c 2,30,-1
 447 88 l 1,31,-1
 451 80 l 1,32,-1
 435 -6 l 1,33,34
 331 0 331 0 257 0 c 0,35,36
 219 0 219 0 168 -6 c 128,-1,37
 117 -12 117 -12 84 -18 c 2,38,-1
 51 -24 l 1,12,-1
EndSplineSet
Validated: 1
EndChar

StartChar: j
Encoding: 106 106 77
Width: 417
GlyphClass: 2
Flags: W
LayerCount: 2
Fore
SplineSet
62 -482 m 1,0,-1
 26 -444 l 1,1,-1
 30 -428 l 1,2,3
 116 -342 116 -342 147 -236 c 128,-1,4
 178 -130 178 -130 178 76 c 2,5,-1
 178 696 l 2,6,7
 178 758 178 758 161 781 c 128,-1,8
 144 804 144 804 98 804 c 1,9,-1
 44 798 l 1,10,-1
 52 872 l 1,11,12
 106 880 106 880 178 894 c 128,-1,13
 250 908 250 908 295 918 c 2,14,-1
 340 928 l 1,15,-1
 350 904 l 1,16,17
 316 846 316 846 316 -28 c 0,18,19
 316 -172 316 -172 250 -290 c 128,-1,20
 184 -408 184 -408 62 -482 c 1,0,-1
238 1204 m 0,21,22
 194 1204 194 1204 167 1232 c 128,-1,23
 140 1260 140 1260 140 1306 c 0,24,25
 140 1356 140 1356 174 1390 c 128,-1,26
 208 1424 208 1424 258 1424 c 0,27,28
 300 1424 300 1424 328 1395 c 128,-1,29
 356 1366 356 1366 356 1322 c 0,30,31
 356 1272 356 1272 322 1238 c 128,-1,32
 288 1204 288 1204 238 1204 c 0,21,22
EndSplineSet
Validated: 1
EndChar

StartChar: k
Encoding: 107 107 78
Width: 1001
GlyphClass: 2
Flags: W
LayerCount: 2
Fore
SplineSet
42 -12 m 1,0,-1
 52 70 l 1,1,2
 84 74 84 74 104 85 c 128,-1,3
 124 96 124 96 136 107 c 128,-1,4
 148 118 148 118 152 148 c 128,-1,5
 156 178 156 178 157 198 c 128,-1,6
 158 218 158 218 158 270 c 2,7,-1
 158 1252 l 2,8,9
 158 1360 158 1360 84 1360 c 1,10,-1
 34 1352 l 1,11,12
 34 1364 34 1364 38 1388 c 2,13,-1
 42 1426 l 1,14,15
 104 1434 104 1434 178 1449 c 128,-1,16
 252 1464 252 1464 295 1474 c 2,17,-1
 338 1484 l 1,18,-1
 350 1458 l 1,19,20
 328 1424 328 1424 311 1034 c 128,-1,21
 294 644 294 644 294 196 c 0,22,23
 294 134 294 134 310 109 c 128,-1,24
 326 84 326 84 366 84 c 2,25,-1
 436 88 l 1,26,-1
 440 80 l 1,27,-1
 422 -6 l 1,28,29
 314 0 314 0 240 0 c 1,30,-1
 42 -12 l 1,0,-1
580 142 m 2,31,-1
 344 476 l 1,32,-1
 348 504 l 1,33,-1
 592 728 l 2,34,35
 640 774 640 774 640 798 c 0,36,37
 640 840 640 840 530 840 c 1,38,-1
 524 850 l 1,39,-1
 542 908 l 1,40,41
 666 904 666 904 738 904 c 1,42,-1
 928 916 l 1,43,-1
 934 906 l 1,44,-1
 918 844 l 1,45,46
 876 832 876 832 834 808 c 128,-1,47
 792 784 792 784 741 741 c 128,-1,48
 690 698 690 698 661 672 c 128,-1,49
 632 646 632 646 570 584 c 128,-1,50
 508 522 508 522 492 506 c 1,51,-1
 702 236 l 2,52,53
 770 148 770 148 826 110 c 128,-1,54
 882 72 882 72 944 72 c 1,55,-1
 950 62 l 1,56,-1
 938 4 l 1,57,58
 820 -28 820 -28 790 -28 c 128,-1,59
 760 -28 760 -28 720 -8 c 0,60,61
 664 22 664 22 580 142 c 2,31,-1
EndSplineSet
Validated: 1
EndChar

StartChar: l
Encoding: 108 108 79
Width: 482
GlyphClass: 2
Flags: W
LayerCount: 2
Fore
SplineSet
39 -24 m 1,0,-1
 47 58 l 1,1,2
 81 68 81 68 103 82 c 128,-1,3
 125 96 125 96 137 108 c 128,-1,4
 149 120 149 120 153 152 c 128,-1,5
 157 184 157 184 158 201 c 128,-1,6
 159 218 159 218 159 270 c 2,7,-1
 159 1252 l 2,8,9
 159 1360 159 1360 85 1360 c 1,10,-1
 35 1352 l 1,11,12
 35 1364 35 1364 39 1388 c 2,13,-1
 43 1426 l 1,14,15
 105 1434 105 1434 179 1449 c 128,-1,16
 253 1464 253 1464 296 1474 c 2,17,-1
 339 1484 l 1,18,-1
 351 1458 l 1,19,20
 329 1424 329 1424 312 1032 c 128,-1,21
 295 640 295 640 295 196 c 0,22,23
 295 136 295 136 311 110 c 128,-1,24
 327 84 327 84 365 84 c 2,25,-1
 435 88 l 1,26,-1
 439 80 l 1,27,-1
 423 -6 l 1,28,29
 319 0 319 0 245 0 c 0,30,31
 207 0 207 0 156 -6 c 128,-1,32
 105 -12 105 -12 72 -18 c 2,33,-1
 39 -24 l 1,0,-1
EndSplineSet
Validated: 1
EndChar

StartChar: m
Encoding: 109 109 80
Width: 1620
GlyphClass: 2
Flags: W
LayerCount: 2
Fore
SplineSet
611 -24 m 1,0,-1
 619 58 l 1,1,2
 731 88 731 88 731 188 c 2,3,-1
 739 584 l 2,4,5
 739 684 739 684 696 738 c 128,-1,6
 653 792 653 792 573 792 c 0,7,8
 465 792 465 792 327 688 c 1,9,10
 309 274 309 274 309 196 c 0,11,12
 309 134 309 134 325 109 c 128,-1,13
 341 84 341 84 381 84 c 2,14,-1
 451 88 l 1,15,-1
 455 80 l 1,16,-1
 437 -6 l 1,17,18
 329 0 329 0 255 0 c 2,19,-1
 57 -4 l 1,20,-1
 69 78 l 1,21,22
 127 84 127 84 150 108 c 128,-1,23
 173 132 173 132 173 188 c 2,24,-1
 173 676 l 2,25,26
 173 744 173 744 151 771 c 128,-1,27
 129 798 129 798 75 798 c 2,28,-1
 53 798 l 1,29,-1
 47 806 l 1,30,-1
 53 872 l 1,31,-1
 333 930 l 1,32,-1
 345 914 l 1,33,34
 327 850 327 850 323 782 c 1,35,-1
 327 776 l 1,36,37
 551 928 551 928 621 928 c 0,38,39
 717 928 717 928 783 887 c 128,-1,40
 849 846 849 846 877 770 c 1,41,42
 1101 928 1101 928 1179 928 c 0,43,44
 1305 928 1305 928 1379 858 c 128,-1,45
 1453 788 1453 788 1453 670 c 0,46,47
 1453 640 1453 640 1439 450 c 128,-1,48
 1425 260 1425 260 1425 196 c 0,49,50
 1425 134 1425 134 1441 109 c 128,-1,51
 1457 84 1457 84 1497 84 c 2,52,-1
 1567 88 l 1,53,-1
 1571 80 l 1,54,-1
 1553 -6 l 1,55,56
 1445 0 1445 0 1371 0 c 1,57,-1
 1173 -12 l 1,58,-1
 1183 70 l 1,59,60
 1241 80 1241 80 1265 106 c 128,-1,61
 1289 132 1289 132 1289 188 c 2,62,-1
 1297 584 l 2,63,64
 1297 684 1297 684 1254 738 c 128,-1,65
 1211 792 1211 792 1131 792 c 0,66,67
 1027 792 1027 792 889 692 c 1,68,-1
 867 196 l 1,69,70
 867 84 867 84 937 84 c 2,71,-1
 1007 88 l 1,72,-1
 1011 80 l 1,73,-1
 995 -6 l 1,74,75
 891 0 891 0 817 0 c 0,76,77
 779 0 779 0 728 -6 c 128,-1,78
 677 -12 677 -12 644 -18 c 2,79,-1
 611 -24 l 1,0,-1
EndSplineSet
Validated: 1
EndChar

StartChar: n
Encoding: 110 110 81
Width: 1060
GlyphClass: 2
Flags: W
LayerCount: 2
Fore
SplineSet
611 -24 m 1,0,-1
 619 58 l 1,1,2
 731 88 731 88 731 188 c 2,3,-1
 739 584 l 2,4,5
 739 684 739 684 696 738 c 128,-1,6
 653 792 653 792 573 792 c 0,7,8
 465 792 465 792 327 688 c 1,9,10
 309 274 309 274 309 196 c 0,11,12
 309 134 309 134 325 109 c 128,-1,13
 341 84 341 84 381 84 c 2,14,-1
 451 88 l 1,15,-1
 455 80 l 1,16,-1
 437 -6 l 1,17,18
 329 0 329 0 255 0 c 1,19,-1
 57 -12 l 1,20,-1
 67 70 l 1,21,22
 125 80 125 80 149 106 c 128,-1,23
 173 132 173 132 173 188 c 2,24,-1
 173 676 l 2,25,26
 173 744 173 744 151 771 c 128,-1,27
 129 798 129 798 75 798 c 2,28,-1
 53 798 l 1,29,-1
 47 806 l 1,30,-1
 53 872 l 1,31,-1
 333 930 l 1,32,-1
 345 914 l 1,33,34
 327 850 327 850 323 782 c 1,35,-1
 327 776 l 1,36,37
 555 928 555 928 621 928 c 0,38,39
 747 928 747 928 821 858 c 128,-1,40
 895 788 895 788 895 670 c 0,41,42
 895 640 895 640 881 450 c 128,-1,43
 867 260 867 260 867 196 c 0,44,45
 867 84 867 84 937 84 c 2,46,-1
 1007 88 l 1,47,-1
 1011 80 l 1,48,-1
 995 -6 l 1,49,50
 891 0 891 0 817 0 c 0,51,52
 779 0 779 0 728 -6 c 128,-1,53
 677 -12 677 -12 644 -18 c 2,54,-1
 611 -24 l 1,0,-1
EndSplineSet
Validated: 1
EndChar

StartChar: o
Encoding: 111 111 82
Width: 938
GlyphClass: 2
Flags: W
LayerCount: 2
Fore
SplineSet
433 -24 m 0,0,1
 261 -24 261 -24 153 100 c 128,-1,2
 45 224 45 224 45 420 c 0,3,4
 45 634 45 634 179 781 c 128,-1,5
 313 928 313 928 509 928 c 0,6,7
 681 928 681 928 789 804 c 128,-1,8
 897 680 897 680 897 484 c 0,9,10
 897 270 897 270 763 123 c 128,-1,11
 629 -24 629 -24 433 -24 c 0,0,1
489 74 m 0,12,13
 601 74 601 74 667 165 c 128,-1,14
 733 256 733 256 733 412 c 0,15,16
 733 592 733 592 654 706 c 128,-1,17
 575 820 575 820 449 820 c 0,18,19
 337 820 337 820 271 728 c 128,-1,20
 205 636 205 636 205 478 c 0,21,22
 205 298 205 298 284 186 c 128,-1,23
 363 74 363 74 489 74 c 0,12,13
EndSplineSet
Validated: 1
EndChar

StartChar: p
Encoding: 112 112 83
Width: 978
GlyphClass: 2
Flags: W
LayerCount: 2
Fore
SplineSet
54 -396 m 1,0,1
 118 -388 118 -388 137 -361 c 128,-1,2
 156 -334 156 -334 156 -252 c 0,3,4
 156 -222 156 -222 158 -94 c 128,-1,5
 160 34 160 34 160 80 c 2,6,-1
 160 676 l 2,7,8
 160 744 160 744 138 771 c 128,-1,9
 116 798 116 798 62 798 c 2,10,-1
 40 798 l 1,11,-1
 34 806 l 1,12,-1
 40 872 l 1,13,-1
 320 930 l 1,14,-1
 332 914 l 1,15,16
 318 858 318 858 312 806 c 1,17,-1
 320 792 l 1,18,19
 508 922 508 922 552 922 c 0,20,21
 724 922 724 922 831 805 c 128,-1,22
 938 688 938 688 938 500 c 0,23,24
 938 284 938 284 791 130 c 128,-1,25
 644 -24 644 -24 440 -24 c 1,26,-1
 294 -16 l 1,27,28
 294 -50 294 -50 295 -119 c 128,-1,29
 296 -188 296 -188 296 -222 c 0,30,31
 296 -314 296 -314 315 -347 c 128,-1,32
 334 -380 334 -380 390 -380 c 0,33,34
 402 -380 402 -380 425 -379 c 128,-1,35
 448 -378 448 -378 458 -378 c 1,36,-1
 462 -384 l 1,37,-1
 446 -460 l 1,38,-1
 256 -460 l 2,39,40
 206 -460 206 -460 153 -464 c 128,-1,41
 100 -468 100 -468 72 -471 c 2,42,-1
 44 -474 l 1,43,-1
 54 -396 l 1,0,1
296 124 m 1,44,45
 386 86 386 86 496 86 c 0,46,47
 630 86 630 86 707 177 c 128,-1,48
 784 268 784 268 784 426 c 0,49,50
 784 578 784 578 708 682 c 128,-1,51
 632 786 632 786 520 786 c 0,52,53
 430 786 430 786 312 688 c 1,54,55
 296 426 296 426 296 124 c 1,44,45
EndSplineSet
Validated: 1
EndChar

StartChar: q
Encoding: 113 113 84
Width: 965
GlyphClass: 2
Flags: W
LayerCount: 2
Fore
SplineSet
531 -468 m 1,0,-1
 541 -392 l 1,1,2
 623 -388 623 -388 646 -366 c 128,-1,3
 669 -344 669 -344 673 -270 c 2,4,-1
 681 120 l 1,5,6
 473 -24 473 -24 431 -24 c 0,7,8
 259 -24 259 -24 152 95 c 128,-1,9
 45 214 45 214 45 404 c 0,10,11
 45 620 45 620 191 774 c 128,-1,12
 337 928 337 928 543 928 c 0,13,14
 637 928 637 928 727 910 c 1,15,-1
 837 956 l 1,16,-1
 853 938 l 1,17,18
 815 844 815 844 815 -212 c 0,19,20
 815 -320 815 -320 828 -350 c 128,-1,21
 841 -380 841 -380 887 -380 c 2,22,-1
 939 -378 l 1,23,-1
 943 -382 l 1,24,-1
 929 -460 l 1,25,-1
 745 -460 l 1,26,-1
 531 -468 l 1,0,-1
681 218 m 1,27,-1
 681 766 l 1,28,29
 607 812 607 812 487 812 c 0,30,31
 353 812 353 812 276 721 c 128,-1,32
 199 630 199 630 199 472 c 0,33,34
 199 318 199 318 276 212 c 128,-1,35
 353 106 353 106 463 106 c 0,36,37
 505 106 505 106 560 134 c 128,-1,38
 615 162 615 162 648 190 c 2,39,-1
 681 218 l 1,27,-1
EndSplineSet
Validated: 1
EndChar

StartChar: r
Encoding: 114 114 85
Width: 717
GlyphClass: 2
Flags: W
LayerCount: 2
Fore
SplineSet
72 72 m 1,0,1
 132 78 132 78 152 111 c 128,-1,2
 172 144 172 144 172 238 c 2,3,-1
 172 678 l 2,4,5
 172 744 172 744 154 772 c 128,-1,6
 136 800 136 800 96 800 c 1,7,-1
 54 794 l 1,8,-1
 44 808 l 1,9,-1
 50 870 l 1,10,-1
 320 930 l 1,11,-1
 334 918 l 1,12,13
 332 906 332 906 329 885 c 128,-1,14
 326 864 326 864 321 809 c 128,-1,15
 316 754 316 754 316 712 c 1,16,-1
 324 706 l 1,17,18
 384 800 384 800 465 860 c 128,-1,19
 546 920 546 920 606 920 c 1,20,-1
 668 912 l 1,21,-1
 674 904 l 1,22,23
 646 740 646 740 642 618 c 1,24,-1
 564 612 l 1,25,26
 564 694 564 694 553 721 c 128,-1,27
 542 748 542 748 510 748 c 0,28,29
 466 748 466 748 416 711 c 128,-1,30
 366 674 366 674 324 612 c 1,31,32
 308 248 308 248 308 204 c 0,33,34
 308 136 308 136 328 112 c 128,-1,35
 348 88 348 88 404 88 c 2,36,-1
 492 92 l 1,37,-1
 494 84 l 1,38,-1
 476 -4 l 1,39,40
 350 0 350 0 272 0 c 2,41,-1
 62 -8 l 1,42,-1
 72 72 l 1,0,1
EndSplineSet
Validated: 1
EndChar

StartChar: s
Encoding: 115 115 86
Width: 712
GlyphClass: 2
Flags: W
LayerCount: 2
Fore
SplineSet
304 -24 m 0,0,1
 240 -24 240 -24 180 -13 c 128,-1,2
 120 -2 120 -2 93 8 c 2,3,-1
 66 18 l 1,4,-1
 60 32 l 1,5,6
 78 132 78 132 84 300 c 1,7,-1
 154 310 l 1,8,9
 154 178 154 178 198 124 c 128,-1,10
 242 70 242 70 348 70 c 0,11,12
 424 70 424 70 476 104 c 128,-1,13
 528 138 528 138 528 188 c 128,-1,14
 528 238 528 238 481 279 c 128,-1,15
 434 320 434 320 296 394 c 0,16,17
 182 452 182 452 130 511 c 128,-1,18
 78 570 78 570 78 642 c 0,19,20
 78 764 78 764 183 846 c 128,-1,21
 288 928 288 928 446 928 c 0,22,23
 494 928 494 928 544 920 c 128,-1,24
 594 912 594 912 620 904 c 2,25,-1
 646 896 l 1,26,-1
 650 886 l 1,27,28
 622 774 622 774 612 642 c 1,29,-1
 538 636 l 1,30,31
 542 676 542 676 542 694 c 0,32,33
 542 766 542 766 503 799 c 128,-1,34
 464 832 464 832 378 832 c 0,35,36
 310 832 310 832 263 800 c 128,-1,37
 216 768 216 768 216 722 c 0,38,39
 216 674 216 674 257 632 c 128,-1,40
 298 590 298 590 390 542 c 0,41,42
 552 456 552 456 611 398 c 128,-1,43
 670 340 670 340 670 264 c 0,44,45
 670 148 670 148 560 62 c 128,-1,46
 450 -24 450 -24 304 -24 c 0,0,1
EndSplineSet
Validated: 1
EndChar

StartChar: t
Encoding: 116 116 87
Width: 660
GlyphClass: 2
Flags: W
LayerCount: 2
Fore
SplineSet
157 218 m 2,0,-1
 157 710 l 2,1,2
 157 764 157 764 133 786 c 128,-1,3
 109 808 109 808 43 810 c 1,4,-1
 35 822 l 1,5,-1
 45 882 l 1,6,7
 103 910 103 910 165 956 c 128,-1,8
 227 1002 227 1002 260 1033 c 2,9,-1
 293 1064 l 1,10,-1
 333 1048 l 1,11,12
 325 996 325 996 317 898 c 1,13,-1
 611 904 l 1,14,-1
 617 898 l 1,15,-1
 599 792 l 1,16,-1
 309 798 l 1,17,18
 295 578 295 578 295 298 c 0,19,20
 295 196 295 196 330 154 c 128,-1,21
 365 112 365 112 451 112 c 0,22,23
 481 112 481 112 515 121 c 128,-1,24
 549 130 549 130 568 139 c 2,25,-1
 587 148 l 1,26,-1
 607 96 l 1,27,28
 453 -24 453 -24 405 -24 c 0,29,30
 269 -24 269 -24 213 31 c 128,-1,31
 157 86 157 86 157 218 c 2,0,-1
EndSplineSet
Validated: 1
EndChar

StartChar: u
Encoding: 117 117 88
Width: 1081
GlyphClass: 2
Flags: W
LayerCount: 2
Fore
SplineSet
150 208 m 2,0,-1
 158 694 l 2,1,2
 158 802 158 802 84 802 c 1,3,-1
 34 794 l 1,4,-1
 42 868 l 1,5,-1
 328 928 l 1,6,-1
 340 904 l 1,7,8
 320 852 320 852 304 668 c 128,-1,9
 288 484 288 484 288 310 c 0,10,11
 288 114 288 114 448 114 c 0,12,13
 490 114 490 114 541 136 c 128,-1,14
 592 158 592 158 614 173 c 128,-1,15
 636 188 636 188 690 228 c 1,16,-1
 690 692 l 2,17,18
 690 752 690 752 668 776 c 128,-1,19
 646 800 646 800 590 800 c 2,20,-1
 542 798 l 1,21,-1
 550 870 l 1,22,-1
 858 928 l 1,23,-1
 870 904 l 1,24,25
 852 858 852 858 839 654 c 128,-1,26
 826 450 826 450 826 210 c 0,27,28
 826 118 826 118 908 118 c 0,29,30
 936 118 936 118 966 131 c 128,-1,31
 996 144 996 144 1012 156 c 2,32,-1
 1028 168 l 1,33,-1
 1056 136 l 1,34,35
 1044 118 1044 118 1025 91 c 128,-1,36
 1006 64 1006 64 959 20 c 128,-1,37
 912 -24 912 -24 882 -24 c 0,38,39
 718 -24 718 -24 704 138 c 1,40,-1
 694 142 l 1,41,42
 478 -24 478 -24 416 -24 c 0,43,44
 288 -24 288 -24 219 36 c 128,-1,45
 150 96 150 96 150 208 c 2,0,-1
EndSplineSet
Validated: 1
EndChar

StartChar: v
Encoding: 118 118 89
Width: 997
GlyphClass: 2
Flags: W
LayerCount: 2
Fore
SplineSet
750 784 m 0,0,1
 750 810 750 810 731 821 c 128,-1,2
 712 832 712 832 664 832 c 2,3,-1
 588 832 l 1,4,-1
 580 844 l 1,5,-1
 590 906 l 1,6,7
 700 904 700 904 798 904 c 2,8,-1
 962 906 l 1,9,-1
 948 832 l 1,10,11
 906 826 906 826 882 798 c 128,-1,12
 858 770 858 770 820 682 c 2,13,-1
 530 0 l 1,14,-1
 422 -34 l 1,15,16
 236 560 236 560 178 732 c 0,17,18
 144 828 144 828 42 832 c 1,19,-1
 38 840 l 1,20,-1
 50 906 l 1,21,22
 170 904 170 904 216 904 c 0,23,24
 270 904 270 904 330 908 c 128,-1,25
 390 912 390 912 423 915 c 2,26,-1
 456 918 l 1,27,-1
 460 908 l 1,28,-1
 448 846 l 1,29,30
 380 844 380 844 355 833 c 128,-1,31
 330 822 330 822 330 794 c 0,32,33
 330 768 330 768 372 610 c 128,-1,34
 414 452 414 452 457 307 c 2,35,-1
 500 162 l 1,36,-1
 508 162 l 1,37,38
 546 254 546 254 590 361 c 128,-1,39
 634 468 634 468 659 529 c 128,-1,40
 684 590 684 590 707 648 c 128,-1,41
 730 706 730 706 740 738 c 128,-1,42
 750 770 750 770 750 784 c 0,0,1
EndSplineSet
Validated: 1
EndChar

StartChar: w
Encoding: 119 119 90
Width: 1492
GlyphClass: 2
Flags: W
LayerCount: 2
Fore
SplineSet
1249 784 m 0,0,1
 1249 834 1249 834 1167 834 c 2,2,-1
 1093 834 l 1,3,-1
 1085 846 l 1,4,-1
 1095 908 l 1,5,6
 1197 904 1197 904 1293 904 c 2,7,-1
 1457 906 l 1,8,-1
 1443 832 l 1,9,10
 1403 828 1403 828 1379 799 c 128,-1,11
 1355 770 1355 770 1319 682 c 2,12,-1
 1037 0 l 1,13,-1
 931 -34 l 1,14,15
 825 316 825 316 751 556 c 1,16,-1
 739 556 l 1,17,-1
 517 0 l 1,18,-1
 409 -34 l 1,19,20
 229 560 229 560 173 732 c 0,21,22
 139 830 139 830 41 832 c 1,23,-1
 37 840 l 1,24,-1
 49 906 l 1,25,26
 165 904 165 904 209 904 c 0,27,28
 263 904 263 904 321 908 c 128,-1,29
 379 912 379 912 411 915 c 2,30,-1
 443 918 l 1,31,-1
 447 908 l 1,32,-1
 435 846 l 1,33,34
 369 844 369 844 345 833 c 128,-1,35
 321 822 321 822 321 794 c 128,-1,36
 321 766 321 766 362 608 c 128,-1,37
 403 450 403 450 444 306 c 2,38,-1
 485 162 l 1,39,-1
 493 162 l 1,40,41
 533 262 533 262 582 386 c 128,-1,42
 631 510 631 510 660 583 c 128,-1,43
 689 656 689 656 705 700 c 1,44,45
 683 768 683 768 652 800 c 128,-1,46
 621 832 621 832 563 832 c 1,47,-1
 559 840 l 1,48,-1
 571 906 l 1,49,50
 687 904 687 904 731 904 c 2,51,-1
 965 914 l 1,52,-1
 969 904 l 1,53,-1
 957 842 l 1,54,55
 889 840 889 840 866 830 c 128,-1,56
 843 820 843 820 843 794 c 128,-1,57
 843 768 843 768 884 610 c 128,-1,58
 925 452 925 452 966 307 c 2,59,-1
 1007 162 l 1,60,-1
 1015 162 l 1,61,62
 1051 252 1051 252 1094 361 c 128,-1,63
 1137 470 1137 470 1161 529 c 128,-1,64
 1185 588 1185 588 1207 648 c 128,-1,65
 1229 708 1229 708 1239 739 c 128,-1,66
 1249 770 1249 770 1249 784 c 0,0,1
EndSplineSet
Validated: 1
EndChar

StartChar: x
Encoding: 120 120 91
Width: 1021
GlyphClass: 2
Flags: W
LayerCount: 2
Fore
SplineSet
774 0 m 2,0,-1
 550 -12 l 1,1,-1
 546 -2 l 1,2,-1
 558 60 l 1,3,4
 650 62 650 62 650 102 c 0,5,6
 650 128 650 128 616 176 c 2,7,-1
 470 380 l 1,8,9
 268 134 268 134 268 102 c 0,10,11
 268 82 268 82 285 76 c 128,-1,12
 302 70 302 70 356 66 c 1,13,-1
 360 58 l 1,14,-1
 348 -8 l 1,15,16
 228 0 228 0 182 0 c 2,17,-1
 62 -6 l 1,18,-1
 56 4 l 1,19,-1
 68 66 l 1,20,21
 80 72 80 72 90 78 c 128,-1,22
 100 84 100 84 111 92 c 128,-1,23
 122 100 122 100 129 106 c 128,-1,24
 136 112 136 112 147 123 c 128,-1,25
 158 134 158 134 164 140 c 128,-1,26
 170 146 170 146 184 161 c 128,-1,27
 198 176 198 176 204 183 c 128,-1,28
 210 190 210 190 228 211 c 128,-1,29
 246 232 246 232 254 242 c 2,30,-1
 426 442 l 1,31,-1
 274 658 l 2,32,33
 206 756 206 756 167 788 c 128,-1,34
 128 820 128 820 58 832 c 1,35,-1
 54 840 l 1,36,-1
 66 908 l 1,37,38
 204 904 204 904 268 904 c 2,39,-1
 472 912 l 1,40,-1
 476 902 l 1,41,-1
 464 840 l 1,42,43
 374 840 374 840 374 802 c 0,44,45
 374 778 374 778 422 708 c 2,46,-1
 532 548 l 1,47,-1
 654 702 l 2,48,49
 716 778 716 778 716 804 c 128,-1,50
 716 830 716 830 630 830 c 1,51,-1
 626 838 l 1,52,-1
 636 904 l 1,53,-1
 782 904 l 1,54,-1
 924 910 l 1,55,-1
 930 900 l 1,56,-1
 918 836 l 1,57,58
 864 818 864 818 750 686 c 2,59,-1
 578 484 l 1,60,-1
 762 222 l 2,61,62
 858 82 858 82 964 72 c 1,63,-1
 968 64 l 1,64,-1
 956 -4 l 1,65,66
 838 0 838 0 774 0 c 2,0,-1
EndSplineSet
Validated: 1
EndChar

StartChar: y
Encoding: 121 121 92
Width: 996
GlyphClass: 2
Flags: W
LayerCount: 2
Fore
SplineSet
508 182 m 1,0,-1
 516 182 l 1,1,2
 750 742 750 742 750 786 c 0,3,4
 750 838 750 838 674 838 c 2,5,-1
 582 838 l 1,6,-1
 578 846 l 1,7,-1
 590 912 l 1,8,9
 694 904 694 904 792 904 c 2,10,-1
 962 906 l 1,11,-1
 948 832 l 1,12,13
 904 824 904 824 881 801 c 128,-1,14
 858 778 858 778 836 718 c 2,15,-1
 578 110 l 2,16,17
 415 -264 415 -264 335 -373 c 128,-1,18
 255 -482 255 -482 132 -482 c 0,19,20
 130 -482 130 -482 128 -482 c 0,21,22
 112 -482 112 -482 76 -435 c 128,-1,23
 40 -388 40 -388 40 -368 c 1,24,-1
 50 -354 l 1,25,26
 166 -354 166 -354 269 -261 c 128,-1,27
 372 -168 372 -168 440 -2 c 1,28,29
 314 394 314 394 178 736 c 1,30,31
 132 830 132 830 42 832 c 1,32,-1
 38 840 l 1,33,-1
 50 906 l 1,34,35
 170 904 170 904 216 904 c 0,36,37
 268 904 268 904 328 908 c 128,-1,38
 388 912 388 912 422 915 c 2,39,-1
 456 918 l 1,40,-1
 460 908 l 1,41,-1
 448 846 l 1,42,43
 380 844 380 844 355 833 c 128,-1,44
 330 822 330 822 330 794 c 0,45,46
 330 762 330 762 375 609 c 128,-1,47
 420 456 420 456 464 319 c 2,48,-1
 508 182 l 1,0,-1
EndSplineSet
Validated: 1
EndChar

StartChar: z
Encoding: 122 122 93
Width: 855
GlyphClass: 2
Flags: W
LayerCount: 2
Fore
SplineSet
66 -4 m 1,0,-1
 46 46 l 1,1,-1
 590 828 l 1,2,-1
 340 816 l 2,3,4
 242 810 242 810 205 773 c 128,-1,5
 168 736 168 736 158 636 c 1,6,-1
 80 624 l 1,7,8
 100 786 100 786 102 914 c 1,9,-1
 114 924 l 1,10,-1
 370 908 l 1,11,-1
 790 898 l 1,12,-1
 806 856 l 1,13,14
 486 444 486 444 234 70 c 1,15,-1
 530 88 l 2,16,17
 610 94 610 94 654 151 c 128,-1,18
 698 208 698 208 718 332 c 1,19,-1
 798 342 l 1,20,21
 764 164 764 164 764 20 c 1,22,-1
 732 -12 l 1,23,-1
 170 6 l 1,24,-1
 66 -4 l 1,0,-1
EndSplineSet
Validated: 1
EndChar

StartChar: braceleft
Encoding: 123 123 94
Width: 552
GlyphClass: 2
Flags: W
LayerCount: 2
Fore
SplineSet
34 494 m 1,0,-1
 42 536 l 1,1,2
 122 558 122 558 175 600 c 128,-1,3
 228 642 228 642 228 702 c 0,4,5
 228 744 228 744 187 874 c 128,-1,6
 146 1004 146 1004 146 1066 c 0,7,8
 146 1164 146 1164 213 1231 c 128,-1,9
 280 1298 280 1298 398 1298 c 1,10,-1
 512 1286 l 1,11,-1
 518 1276 l 1,12,-1
 502 1216 l 1,13,14
 444 1226 444 1226 410 1226 c 0,15,16
 348 1226 348 1226 318 1187 c 128,-1,17
 288 1148 288 1148 288 1088 c 0,18,19
 288 1044 288 1044 315 913 c 128,-1,20
 342 782 342 782 342 730 c 0,21,22
 342 578 342 578 196 530 c 1,23,-1
 196 518 l 1,24,25
 342 464 342 464 342 308 c 0,26,27
 342 254 342 254 315 120 c 128,-1,28
 288 -14 288 -14 288 -58 c 0,29,30
 288 -118 288 -118 318 -156 c 128,-1,31
 348 -194 348 -194 412 -194 c 1,32,-1
 512 -182 l 1,33,-1
 518 -194 l 1,34,-1
 502 -250 l 1,35,36
 454 -266 454 -266 394 -266 c 0,37,38
 280 -266 280 -266 213 -199 c 128,-1,39
 146 -132 146 -132 146 -34 c 0,40,41
 146 30 146 30 187 156 c 128,-1,42
 228 282 228 282 228 318 c 0,43,44
 228 450 228 450 34 494 c 1,0,-1
EndSplineSet
Validated: 1
Substitution2: "'rtla' Right to Left Alternates lookup 0 subtable" braceright
EndChar

StartChar: bar
Encoding: 124 124 95
Width: 330
GlyphClass: 2
Flags: W
LayerCount: 2
Fore
SplineSet
222 1614 m 1,0,-1
 244 1602 l 1,1,2
 232 914 232 914 232 582 c 2,3,-1
 234 -516 l 1,4,-1
 116 -538 l 1,5,-1
 98 -526 l 1,6,7
 98 194 98 194 100 552 c 2,8,-1
 102 1592 l 1,9,-1
 222 1614 l 1,0,-1
EndSplineSet
Validated: 1
EndChar

StartChar: braceright
Encoding: 125 125 96
Width: 552
GlyphClass: 2
Flags: W
LayerCount: 2
Fore
SplineSet
519 538 m 1,0,-1
 511 496 l 1,1,2
 431 474 431 474 378 432 c 128,-1,3
 325 390 325 390 325 330 c 0,4,5
 325 288 325 288 366 158 c 128,-1,6
 407 28 407 28 407 -34 c 0,7,8
 407 -132 407 -132 340 -199 c 128,-1,9
 273 -266 273 -266 155 -266 c 1,10,-1
 41 -254 l 1,11,-1
 35 -244 l 1,12,-1
 51 -184 l 1,13,14
 109 -194 109 -194 143 -194 c 0,15,16
 205 -194 205 -194 235 -155 c 128,-1,17
 265 -116 265 -116 265 -56 c 0,18,19
 265 -12 265 -12 238 119 c 128,-1,20
 211 250 211 250 211 302 c 0,21,22
 211 454 211 454 357 502 c 1,23,-1
 357 514 l 1,24,25
 211 568 211 568 211 724 c 0,26,27
 211 778 211 778 238 912 c 128,-1,28
 265 1046 265 1046 265 1090 c 0,29,30
 265 1150 265 1150 235 1188 c 128,-1,31
 205 1226 205 1226 141 1226 c 1,32,-1
 41 1214 l 1,33,-1
 35 1226 l 1,34,-1
 51 1282 l 1,35,36
 99 1298 99 1298 159 1298 c 0,37,38
 273 1298 273 1298 340 1231 c 128,-1,39
 407 1164 407 1164 407 1066 c 0,40,41
 407 1002 407 1002 366 876 c 128,-1,42
 325 750 325 750 325 714 c 0,43,44
 325 582 325 582 519 538 c 1,0,-1
EndSplineSet
Validated: 1
Substitution2: "'rtla' Right to Left Alternates lookup 0 subtable" braceleft
EndChar

StartChar: asciitilde
Encoding: 126 126 97
Width: 970
GlyphClass: 2
Flags: W
LayerCount: 2
Fore
SplineSet
118 404 m 1,0,-1
 106 404 l 1,1,-1
 62 446 l 1,2,-1
 62 456 l 1,3,-1
 214 634 l 1,4,-1
 246 642 l 1,5,6
 302 642 302 642 492 599 c 128,-1,7
 682 556 682 556 726 556 c 0,8,9
 748 556 748 556 779 584 c 128,-1,10
 810 612 810 612 831 639 c 2,11,-1
 852 666 l 1,12,-1
 864 666 l 1,13,-1
 908 624 l 1,14,-1
 908 614 l 1,15,-1
 756 436 l 1,16,-1
 724 428 l 1,17,18
 668 428 668 428 478 471 c 128,-1,19
 288 514 288 514 244 514 c 0,20,21
 222 514 222 514 191 487 c 128,-1,22
 160 460 160 460 139 432 c 2,23,-1
 118 404 l 1,0,-1
EndSplineSet
Validated: 1
EndChar

StartChar: delete
Encoding: 127 127 98
Width: 1297
GlyphClass: 2
Flags: W
LayerCount: 2
Fore
SplineSet
1241 59 m 1,0,-1
 948 59 l 1,1,-1
 948 528 l 1,2,-1
 1009 528 l 1,3,-1
 1009 115 l 1,4,-1
 1241 115 l 1,5,-1
 1241 59 l 1,0,-1
889 59 m 1,6,-1
 538 59 l 1,7,-1
 538 528 l 1,8,-1
 876 528 l 1,9,-1
 876 471 l 1,10,-1
 600 471 l 1,11,-1
 600 330 l 1,12,-1
 860 330 l 1,13,-1
 860 274 l 1,14,-1
 600 274 l 1,15,-1
 600 115 l 1,16,-1
 889 115 l 1,17,-1
 889 59 l 1,6,-1
481 297 m 0,18,19
 481 288 481 288 481 288 c 2,20,21
 481 284 481 284 481 280 c 128,-1,22
 481 276 481 276 481 273 c 0,23,24
 481 266 481 266 481 266 c 2,25,26
 481 263 481 263 481 260 c 128,-1,27
 481 257 481 257 481 254 c 128,-1,28
 481 251 481 251 481 249 c 0,29,30
 481 244 481 244 481 244 c 2,31,32
 481 242 481 242 481 240 c 128,-1,33
 481 238 481 238 481 236 c 128,-1,34
 481 234 481 234 481 232 c 128,-1,35
 481 230 481 230 481 229 c 0,36,37
 481 226 481 226 481 226 c 2,38,39
 481 225 481 225 481 225 c 2,40,41
 481 222 481 222 481 222 c 2,42,43
 481 221 481 221 481 220 c 128,-1,44
 481 219 481 219 481 218 c 128,-1,45
 481 217 481 217 481 216 c 128,-1,46
 481 215 481 215 481 214 c 128,-1,47
 481 213 481 213 481 212 c 0,48,49
 481 192 481 192 438 133 c 0,50,51
 401 82 401 82 340 68 c 0,52,53
 307 60 307 60 264 59 c 2,54,-1
 94 59 l 1,55,-1
 94 528 l 1,56,-1
 256 528 l 2,57,58
 309 528 309 528 340 520 c 0,59,60
 436 498 436 498 465 408 c 0,61,62
 481 358 481 358 481 297 c 0,18,19
418 297 m 0,63,64
 418 430 418 430 336 463 c 0,65,66
 311 471 311 471 256 471 c 2,67,-1
 155 471 l 1,68,-1
 155 115 l 1,69,-1
 256 115 l 2,70,71
 338 115 338 115 370 147 c 0,72,73
 418 195 418 195 418 297 c 0,63,64
EndSplineSet
Validated: 1
EndChar

StartChar: exclamdown
Encoding: 161 161 100
Width: 397
GlyphClass: 2
Flags: W
LayerCount: 2
Fore
SplineSet
323 850 m 0,0,1
 323 797 323 797 287.5 760 c 128,-1,2
 252 723 252 723 201 723 c 256,3,4
 150 723 150 723 115 760 c 128,-1,5
 80 797 80 797 80 850 c 0,6,7
 80 897 80 897 115.5 934 c 128,-1,8
 151 971 151 971 201 971 c 0,9,10
 252 971 252 971 287.5 934 c 128,-1,11
 323 897 323 897 323 850 c 0,0,1
305 -2 m 1,12,-1
 90 -2 l 1,13,-1
 90 684 l 1,14,-1
 305 684 l 1,15,-1
 305 -2 l 1,12,-1
EndSplineSet
Validated: 1
EndChar

StartChar: cent
Encoding: 162 162 101
Width: 863
GlyphClass: 2
Flags: W
LayerCount: 2
Fore
SplineSet
787 238 m 1,0,1
 754 226 754 226 678 209 c 1,2,-1
 678 18 l 1,3,-1
 513 18 l 1,4,-1
 513 197 l 1,5,6
 494 197 494 197 476 199 c 0,7,8
 297 219 297 219 168 369 c 0,9,10
 54 501 54 501 54 679 c 0,11,12
 54 680 54 680 54 682 c 0,13,14
 54 944 54 944 257 1085 c 0,15,16
 355 1155 355 1155 513 1178 c 1,17,-1
 513 1346 l 1,18,-1
 678 1346 l 1,19,-1
 678 1165 l 1,20,21
 729 1155 729 1155 787 1135 c 1,22,-1
 787 836 l 1,23,24
 706 905 706 905 621 905 c 0,25,26
 620 905 620 905 619 905 c 0,27,28
 525 905 525 905 460.5 841.5 c 128,-1,29
 396 778 396 778 396 682 c 0,30,31
 396 571 396 571 472 512 c 0,32,33
 535 461 535 461 617 459 c 0,34,35
 664 459 664 459 717 481 c 0,36,37
 752 495 752 495 787 528 c 1,38,-1
 787 238 l 1,0,1
EndSplineSet
Validated: 1
EndChar

StartChar: sterling
Encoding: 163 163 102
Width: 794
GlyphClass: 2
Flags: W
LayerCount: 2
Fore
SplineSet
738 711 m 1,0,-1
 544 711 l 1,1,2
 544 748 544 748 511 773.5 c 128,-1,3
 478 799 478 799 439 799 c 0,4,5
 312 799 312 799 312 682 c 0,6,7
 312 655 312 655 320 610 c 0,8,9
 332 551 332 551 335 539 c 1,10,-1
 482 539 l 1,11,-1
 482 449 l 1,12,-1
 349 449 l 1,13,14
 363 369 363 369 363 319 c 0,15,16
 363 249 363 249 339 201 c 1,17,-1
 730 201 l 1,18,-1
 730 0 l 1,19,-1
 70 0 l 1,20,-1
 70 201 l 1,21,22
 176 201 176 201 177 295 c 0,23,24
 177 361 177 361 148 449 c 1,25,-1
 70 449 l 1,26,-1
 70 539 l 1,27,-1
 124 539 l 1,28,29
 106 619 106 619 105 668 c 0,30,31
 105 797 105 797 193 883 c 0,32,33
 285 973 285 973 439 973 c 0,34,35
 718 973 718 973 738 711 c 1,0,-1
EndSplineSet
Validated: 1
EndChar

StartChar: currency
Encoding: 164 164 103
Width: 1361
GlyphClass: 2
Flags: W
LayerCount: 2
Fore
SplineSet
1324 283 m 1,0,-1
 1183 137 l 1,1,-1
 972 348 l 1,2,3
 835 256 835 256 681 256 c 0,4,5
 540 256 540 256 394 346 c 1,6,-1
 183 137 l 1,7,-1
 42 281 l 1,8,-1
 251 492 l 1,9,10
 163 623 163 623 163 772 c 0,11,12
 163 919 163 919 253 1055 c 1,13,-1
 40 1268 l 1,14,-1
 183 1413 l 1,15,-1
 396 1200 l 1,16,17
 533 1288 533 1288 689 1288 c 0,18,19
 828 1288 828 1288 964 1202 c 1,20,-1
 1175 1411 l 1,21,-1
 1320 1268 l 1,22,-1
 1109 1059 l 1,23,24
 1201 912 1201 912 1203 772 c 0,25,26
 1203 629 1203 629 1113 494 c 1,27,-1
 1324 283 l 1,0,-1
974 772 m 0,28,29
 974 893 974 893 889 975 c 128,-1,30
 804 1057 804 1057 681 1057 c 0,31,32
 548 1057 548 1057 462 956 c 0,33,34
 392 876 392 876 390 772 c 0,35,36
 390 651 390 651 476 569 c 128,-1,37
 562 487 562 487 681 487 c 0,38,39
 816 487 816 487 904 588 c 0,40,41
 974 668 974 668 974 772 c 0,28,29
EndSplineSet
Validated: 1
EndChar

StartChar: yen
Encoding: 165 165 104
Width: 1269
GlyphClass: 2
Flags: W
LayerCount: 2
Fore
SplineSet
1244 1366 m 1,0,-1
 945 889 l 1,1,-1
 1141 889 l 1,2,-1
 1141 674 l 1,3,-1
 812 674 l 1,4,-1
 799 655 l 1,5,-1
 799 549 l 1,6,-1
 1141 549 l 1,7,-1
 1141 334 l 1,8,-1
 799 334 l 1,9,-1
 799 0 l 1,10,-1
 459 0 l 1,11,-1
 459 334 l 1,12,-1
 130 334 l 1,13,-1
 130 549 l 1,14,-1
 459 549 l 1,15,-1
 459 655 l 1,16,-1
 447 674 l 1,17,-1
 130 674 l 1,18,-1
 130 889 l 1,19,-1
 318 889 l 1,20,-1
 27 1366 l 1,21,-1
 433 1366 l 1,22,-1
 639 973 l 1,23,-1
 838 1366 l 1,24,-1
 1244 1366 l 1,0,-1
EndSplineSet
Validated: 1
EndChar

StartChar: brokenbar
Encoding: 166 166 105
Width: 578
GlyphClass: 2
Flags: W
LayerCount: 2
Fore
SplineSet
485 625 m 1,0,-1
 95 625 l 1,1,-1
 95 1366 l 1,2,-1
 485 1366 l 1,3,-1
 485 625 l 1,0,-1
485 -342 m 1,4,-1
 95 -342 l 1,5,-1
 95 313 l 1,6,-1
 485 313 l 1,7,-1
 485 -342 l 1,4,-1
EndSplineSet
Validated: 1
EndChar

StartChar: section
Encoding: 167 167 106
Width: 690
GlyphClass: 2
Flags: W
LayerCount: 2
Fore
SplineSet
621 135 m 0,0,1
 621 20 621 20 549 -55 c 0,2,3
 473 -133 473 -133 349 -133 c 0,4,5
 73 -133 73 -133 72 152 c 1,6,-1
 248 152 l 1,7,8
 248 14 248 14 347 14 c 0,9,10
 455 14 455 14 455 125 c 0,11,12
 455 126 455 126 455 127 c 0,13,14
 455 211 455 211 312 262 c 0,15,16
 68 348 68 348 68 543 c 0,17,18
 68 674 68 674 179 745 c 1,19,20
 68 827 68 827 68 961 c 0,21,22
 68 1065 68 1065 144 1135.5 c 128,-1,23
 220 1206 220 1206 344 1206 c 0,24,25
 491 1206 491 1206 560 1112 c 0,26,27
 609 1042 609 1042 609 942 c 1,28,-1
 447 942 l 1,29,30
 447 1059 447 1059 351 1059 c 0,31,32
 242 1059 242 1059 242 961 c 0,33,34
 242 877 242 877 377 825 c 0,35,36
 494 780 494 780 533 748 c 0,37,38
 621 678 621 678 621 553 c 0,39,40
 621 414 621 414 521 338 c 1,41,42
 621 266 621 266 621 135 c 0,0,1
455 545 m 0,43,44
 455 613 455 613 379 641 c 1,45,-1
 351 641 l 2,46,47
 242 641 242 641 242 543 c 0,48,49
 242 506 242 506 271.5 474 c 128,-1,50
 301 442 301 442 347 432 c 1,51,52
 455 432 455 432 455 545 c 0,43,44
EndSplineSet
Validated: 1
EndChar

StartChar: dieresis
Encoding: 168 168 107
Width: 981
GlyphClass: 2
Flags: W
LayerCount: 2
Fore
SplineSet
901 1249 m 256,0,1
 901 1175 901 1175 848.5 1123 c 128,-1,2
 796 1071 796 1071 722 1071 c 256,3,4
 648 1071 648 1071 597 1123.5 c 128,-1,5
 546 1176 546 1176 546 1249 c 0,6,7
 546 1323 546 1323 597.5 1375 c 128,-1,8
 649 1427 649 1427 722 1427 c 0,9,10
 796 1427 796 1427 848.5 1375 c 128,-1,11
 901 1323 901 1323 901 1249 c 256,0,1
438 1249 m 256,12,13
 438 1175 438 1175 385.5 1123 c 128,-1,14
 333 1071 333 1071 260 1071 c 0,15,16
 186 1071 186 1071 133.5 1123.5 c 128,-1,17
 81 1176 81 1176 81 1249 c 0,18,19
 81 1323 81 1323 133.5 1375 c 128,-1,20
 186 1427 186 1427 260 1427 c 256,21,22
 334 1427 334 1427 386 1375 c 128,-1,23
 438 1323 438 1323 438 1249 c 256,12,13
EndSplineSet
Validated: 1
EndChar

StartChar: copyright
Encoding: 169 169 108
Width: 1533
GlyphClass: 2
Flags: W
LayerCount: 2
Fore
SplineSet
1477 682 m 128,-1,1
 1477 352 1477 352 1227 139 c 0,2,3
 1028 -31 1028 -31 770 -31 c 0,4,5
 442 -31 442 -31 230 217 c 0,6,7
 58 418 58 418 56 682 c 0,8,9
 56 950 56 950 228 1149 c 0,10,11
 441 1397 441 1397 770 1397 c 0,12,13
 1028 1397 1028 1397 1227 1227 c 0,14,0
 1477 1012 1477 1012 1477 682 c 128,-1,1
1334 682 m 0,15,16
 1334 898 1334 898 1196 1063 c 0,17,18
 1026 1266 1026 1266 767 1266 c 0,19,20
 765 1266 765 1266 762 1266 c 0,21,22
 559 1266 559 1266 400 1128 c 0,23,24
 199 954 199 954 199 682 c 0,25,26
 199 412 199 412 402 238 c 0,27,28
 562 101 562 101 770 98 c 0,29,30
 977 98 977 98 1135 240 c 0,31,32
 1334 414 1334 414 1334 682 c 0,15,16
1014 295 m 1,33,-1
 1006 291 l 1,34,35
 877 252 877 252 807 252 c 0,36,37
 603 252 603 252 465 393 c 0,38,39
 355 505 355 505 355 671 c 0,40,41
 355 675 355 675 355 680 c 0,42,43
 355 926 355 926 574 1049 c 0,44,45
 683 1110 683 1110 803 1110 c 0,46,47
 883 1110 883 1110 1006 1067 c 1,48,-1
 1014 1065 l 1,49,-1
 1014 772 l 1,50,-1
 992 801 l 1,51,52
 918 883 918 883 813 883 c 0,53,54
 721 883 721 883 663.5 826.5 c 128,-1,55
 606 770 606 770 606 678 c 0,56,57
 606 592 606 592 664.5 535.5 c 128,-1,58
 723 479 723 479 811 479 c 0,59,60
 909 479 909 479 992 557 c 1,61,-1
 1014 580 l 1,62,-1
 1014 295 l 1,33,-1
EndSplineSet
Validated: 1
EndChar

StartChar: ordfeminine
Encoding: 170 170 109
Width: 788
GlyphClass: 2
Flags: W
LayerCount: 2
Fore
SplineSet
699 805 m 1,0,-1
 508 805 l 1,1,-1
 508 864 l 1,2,3
 447 786 447 786 340 786 c 0,4,5
 238 786 238 786 160 856 c 0,6,7
 66 940 66 940 66 1077 c 0,8,9
 66 1216 66 1216 162 1300 c 0,10,11
 238 1366 238 1366 338 1366 c 0,12,13
 440 1366 440 1366 508 1294 c 1,14,-1
 508 1348 l 1,15,-1
 699 1348 l 1,16,-1
 699 805 l 1,0,-1
705 580 m 1,17,-1
 84 580 l 1,18,-1
 84 702 l 1,19,-1
 705 702 l 1,20,-1
 705 580 l 1,17,-1
513 1075 m 256,21,22
 513 1126 513 1126 478 1163 c 128,-1,23
 443 1200 443 1200 390 1200 c 0,24,25
 339 1200 339 1200 303 1164 c 128,-1,26
 267 1128 267 1128 267 1075 c 0,27,28
 267 1024 267 1024 302.5 987 c 128,-1,29
 338 950 338 950 390 950 c 0,30,31
 441 950 441 950 477 987 c 128,-1,32
 513 1024 513 1024 513 1075 c 256,21,22
EndSplineSet
Validated: 1
EndChar

StartChar: guillemotleft
Encoding: 171 171 110
Width: 1038
GlyphClass: 2
Flags: W
LayerCount: 2
Fore
SplineSet
994 152 m 1,0,-1
 807 20 l 1,1,-1
 496 467 l 1,2,-1
 807 911 l 1,3,-1
 987 786 l 1,4,-1
 760 467 l 1,5,-1
 994 152 l 1,0,-1
543 152 m 1,6,-1
 357 20 l 1,7,-1
 45 467 l 1,8,-1
 357 911 l 1,9,-1
 537 786 l 1,10,-1
 310 467 l 1,11,-1
 543 152 l 1,6,-1
EndSplineSet
Validated: 1
EndChar

StartChar: logicalnot
Encoding: 172 172 111
Width: 1056
GlyphClass: 2
Flags: W
LayerCount: 2
Fore
SplineSet
966 0 m 1,0,-1
 585 0 l 1,1,-1
 585 270 l 1,2,-1
 80 270 l 1,3,-1
 80 608 l 1,4,-1
 966 608 l 1,5,-1
 966 0 l 1,0,-1
EndSplineSet
Validated: 1
EndChar

StartChar: sfthyphen
Encoding: 173 173 112
Width: 1141
GlyphClass: 2
Flags: W
LayerCount: 2
Fore
SplineSet
1057 348 m 1,0,-1
 86 348 l 1,1,-1
 86 618 l 1,2,-1
 1057 618 l 1,3,-1
 1057 348 l 1,0,-1
EndSplineSet
Validated: 1
EndChar

StartChar: registered
Encoding: 174 174 113
Width: 1533
GlyphClass: 2
Flags: W
LayerCount: 2
Fore
SplineSet
1477 682 m 128,-1,1
 1477 352 1477 352 1227 139 c 0,2,3
 1028 -31 1028 -31 770 -31 c 0,4,5
 442 -31 442 -31 230 217 c 0,6,7
 58 418 58 418 56 682 c 0,8,9
 56 950 56 950 228 1149 c 0,10,11
 441 1397 441 1397 770 1397 c 0,12,13
 1028 1397 1028 1397 1227 1227 c 0,14,0
 1477 1012 1477 1012 1477 682 c 128,-1,1
1334 682 m 0,15,16
 1334 898 1334 898 1196 1063 c 0,17,18
 1026 1266 1026 1266 767 1266 c 0,19,20
 765 1266 765 1266 762 1266 c 0,21,22
 559 1266 559 1266 400 1128 c 0,23,24
 199 954 199 954 199 682 c 0,25,26
 199 412 199 412 402 238 c 0,27,28
 562 101 562 101 770 98 c 0,29,30
 977 98 977 98 1135 240 c 0,31,32
 1334 414 1334 414 1334 682 c 0,15,16
1151 272 m 1,33,-1
 842 272 l 1,34,-1
 652 547 l 1,35,-1
 652 272 l 1,36,-1
 406 272 l 1,37,-1
 406 1092 l 1,38,-1
 760 1092 l 2,39,40
 914 1092 914 1092 992 1001 c 0,41,42
 1053 927 1053 927 1055 831 c 0,43,44
 1055 722 1055 722 983 657 c 0,45,46
 946 622 946 622 881 602 c 1,47,-1
 1151 272 l 1,33,-1
801 821 m 0,48,49
 801 856 801 856 773.5 879.5 c 128,-1,50
 746 903 746 903 680 903 c 2,51,-1
 652 903 l 1,52,-1
 652 737 l 1,53,-1
 680 737 l 2,54,55
 768 737 768 737 793 788 c 0,56,57
 801 807 801 807 801 821 c 0,48,49
EndSplineSet
Validated: 1
EndChar

StartChar: macron
Encoding: 175 175 114
Width: 897
GlyphClass: 2
Flags: W
LayerCount: 2
Fore
SplineSet
806 1106 m 1,0,-1
 90 1106 l 1,1,-1
 90 1307 l 1,2,-1
 806 1307 l 1,3,-1
 806 1106 l 1,0,-1
EndSplineSet
Validated: 1
EndChar

StartChar: degree
Encoding: 176 176 115
Width: 745
GlyphClass: 2
Flags: W
LayerCount: 2
Fore
SplineSet
685 1038 m 0,0,1
 685 911 685 911 592.5 819 c 128,-1,2
 500 727 500 727 371 727 c 128,-1,3
 242 727 242 727 150 818 c 128,-1,4
 58 909 58 909 58 1038 c 128,-1,5
 58 1167 58 1167 150 1259.5 c 128,-1,6
 242 1352 242 1352 371 1352 c 256,7,8
 500 1352 500 1352 592.5 1259.5 c 128,-1,9
 685 1167 685 1167 685 1038 c 0,0,1
607 1038 m 128,-1,11
 607 1134 607 1134 539.5 1202 c 128,-1,12
 472 1270 472 1270 375 1270 c 0,13,14
 279 1270 279 1270 211.5 1202.5 c 128,-1,15
 144 1135 144 1135 144 1038 c 0,16,17
 144 942 144 942 211.5 874.5 c 128,-1,18
 279 807 279 807 375 807 c 128,-1,19
 471 807 471 807 539 874.5 c 128,-1,10
 607 942 607 942 607 1038 c 128,-1,11
EndSplineSet
Validated: 1
EndChar

StartChar: plusminus
Encoding: 177 177 116
Width: 1072
GlyphClass: 2
Flags: W
LayerCount: 2
Fore
SplineSet
1012 385 m 1,0,-1
 597 385 l 1,1,-1
 597 82 l 1,2,-1
 474 82 l 1,3,-1
 474 385 l 1,4,-1
 58 385 l 1,5,-1
 58 508 l 1,6,-1
 474 508 l 1,7,-1
 474 942 l 1,8,-1
 597 942 l 1,9,-1
 597 508 l 1,10,-1
 1012 508 l 1,11,-1
 1012 385 l 1,0,-1
1012 -123 m 1,12,-1
 58 -123 l 1,13,-1
 58 0 l 1,14,-1
 1012 0 l 1,15,-1
 1012 -123 l 1,12,-1
EndSplineSet
Validated: 1
EndChar

StartChar: twosuperior
Encoding: 178 178 117
Width: 553
GlyphClass: 2
Flags: W
LayerCount: 2
Fore
SplineSet
487 629 m 1,0,-1
 71 629 l 1,1,-1
 71 713 l 1,2,-1
 321 997 l 2,3,4
 358 1040 358 1040 358 1098 c 0,5,6
 358 1141 358 1141 333.5 1169.5 c 128,-1,7
 309 1198 309 1198 270 1198 c 0,8,9
 186 1198 186 1198 186 1085 c 1,10,-1
 65 1085 l 1,11,-1
 65 1116 l 2,12,13
 65 1200 65 1200 124 1253 c 0,14,15
 181 1304 181 1304 266 1305 c 0,16,17
 358 1305 358 1305 417 1255 c 0,18,19
 485 1200 485 1200 485 1100 c 0,20,21
 485 1018 485 1018 432 956 c 2,22,-1
 237 733 l 1,23,-1
 487 733 l 1,24,-1
 487 629 l 1,0,-1
EndSplineSet
Validated: 1
EndChar

StartChar: threesuperior
Encoding: 179 179 118
Width: 544
GlyphClass: 2
Flags: W
LayerCount: 2
Fore
SplineSet
482 791 m 0,0,1
 482 705 482 705 424 647.5 c 128,-1,2
 366 590 366 590 269 590 c 0,3,4
 58 590 58 590 58 795 c 2,5,-1
 58 813 l 1,6,-1
 173 813 l 1,7,8
 173 684 173 684 276 684 c 0,9,10
 364 684 364 684 364 803 c 0,11,12
 364 885 364 885 302 911 c 0,13,14
 284 919 284 919 206 930 c 1,15,-1
 206 1010 l 1,16,17
 351 1010 351 1010 351 1118 c 0,18,19
 351 1153 351 1153 328.5 1180.5 c 128,-1,20
 306 1208 306 1208 271 1208 c 0,21,22
 194 1208 194 1208 194 1116 c 0,23,24
 194 1115 194 1115 194 1114 c 2,25,-1
 75 1114 l 1,26,-1
 75 1145 l 2,27,28
 75 1213 75 1213 131 1259 c 128,-1,29
 187 1305 187 1305 278 1305 c 0,30,31
 354 1305 354 1305 407 1264 c 0,32,33
 470 1213 470 1213 470 1116 c 0,34,35
 470 1010 470 1010 380 973 c 1,36,37
 482 928 482 928 482 791 c 0,0,1
EndSplineSet
Validated: 1
EndChar

StartChar: acute
Encoding: 180 180 119
Width: 598
GlyphClass: 2
Flags: W
LayerCount: 2
Fore
SplineSet
539 1343 m 1,0,-1
 224 1065 l 1,1,-1
 72 1178 l 1,2,-1
 333 1493 l 1,3,-1
 539 1343 l 1,0,-1
EndSplineSet
Validated: 1
EndChar

StartChar: micro
Encoding: 181 181 120
Width: 1165
GlyphClass: 2
Flags: W
LayerCount: 2
Fore
SplineSet
1083 340 m 2,0,1
 1083 84 1083 84 839 -4 c 0,2,3
 737 -41 737 -41 610 -41 c 0,4,5
 493 -41 493 -41 395 -4 c 1,6,-1
 421 -465 l 1,7,-1
 94 -465 l 1,8,-1
 94 928 l 1,9,-1
 421 928 l 1,10,-1
 421 397 l 2,11,12
 421 338 421 338 438 307 c 0,13,14
 481 229 481 229 587 229 c 0,15,16
 665 229 665 229 712 274 c 0,17,18
 753 313 753 313 753 393 c 0,19,20
 753 397 753 397 753 401 c 2,21,-1
 753 928 l 1,22,-1
 1083 928 l 1,23,-1
 1083 340 l 2,0,1
EndSplineSet
Validated: 1
EndChar

StartChar: paragraph
Encoding: 182 182 121
Width: 1235
GlyphClass: 2
Flags: W
LayerCount: 2
Fore
SplineSet
1196 1163 m 1,0,-1
 1046 1163 l 1,1,-1
 1046 -188 l 1,2,-1
 823 -188 l 1,3,-1
 823 1163 l 1,4,-1
 651 1163 l 1,5,-1
 651 -188 l 1,6,-1
 430 -188 l 1,7,-1
 430 657 l 1,8,-1
 409 657 l 2,9,10
 403 657 403 657 395 657 c 0,11,12
 389 657 389 657 385 657 c 0,13,14
 330 657 330 657 258 684 c 0,15,16
 114 738 114 738 65 866 c 0,17,18
 41 929 41 929 41 1000 c 0,19,20
 41 1003 41 1003 41 1006 c 0,21,22
 41 1199 41 1199 182 1292 c 0,23,24
 291 1364 291 1364 512 1366 c 2,25,-1
 1196 1366 l 1,26,-1
 1196 1163 l 1,0,-1
EndSplineSet
Validated: 1
EndChar

StartChar: periodcentered
Encoding: 183 183 122
Width: 568
GlyphClass: 2
Flags: W
LayerCount: 2
Fore
SplineSet
496 485 m 128,-1,1
 496 397 496 397 434.5 334.5 c 128,-1,2
 373 272 373 272 283 272 c 0,3,4
 185 272 185 272 124 346 c 0,5,6
 72 408 72 408 72 485 c 128,-1,7
 72 562 72 562 124 623 c 0,8,9
 186 696 186 696 280 696 c 0,10,11
 282 696 282 696 283 696 c 0,12,13
 371 696 371 696 433.5 634.5 c 128,-1,0
 496 573 496 573 496 485 c 128,-1,1
EndSplineSet
Validated: 1
EndChar

StartChar: cedilla
Encoding: 184 184 123
Width: 635
GlyphClass: 2
Flags: W
LayerCount: 2
Fore
SplineSet
565 -260 m 0,0,1
 565 -377 565 -377 442 -436 c 0,2,3
 348 -479 348 -479 214 -479 c 0,4,5
 165 -479 165 -479 61 -463 c 1,6,-1
 61 -344 l 1,7,8
 163 -354 163 -354 208 -356 c 0,9,10
 374 -356 374 -356 374 -262 c 0,11,12
 374 -178 374 -178 247 -178 c 0,13,14
 177 -178 177 -178 116 -199 c 1,15,-1
 173 20 l 1,16,-1
 321 20 l 1,17,-1
 300 -72 l 1,18,19
 406 -72 406 -72 477 -111 c 0,20,21
 565 -160 565 -160 565 -260 c 0,0,1
EndSplineSet
Validated: 1
EndChar

StartChar: onesuperior
Encoding: 185 185 124
Width: 396
GlyphClass: 2
Flags: W
LayerCount: 2
Fore
SplineSet
312 629 m 1,0,-1
 192 629 l 1,1,-1
 192 1143 l 1,2,3
 106 1086 106 1086 50 1077 c 1,4,-1
 50 1186 l 1,5,6
 144 1213 144 1213 206 1286 c 1,7,-1
 312 1286 l 1,8,-1
 312 629 l 1,0,-1
EndSplineSet
Validated: 1
EndChar

StartChar: ordmasculine
Encoding: 186 186 125
Width: 782
GlyphClass: 2
Flags: W
LayerCount: 2
Fore
SplineSet
717 1075 m 128,-1,1
 717 962 717 962 644 883 c 0,2,3
 554 785 554 785 392 784 c 0,4,5
 230 784 230 784 140 883 c 0,6,7
 64 965 64 965 64 1075 c 0,8,9
 64 1186 64 1186 140 1270 c 0,10,11
 230 1368 230 1368 392 1368 c 128,-1,12
 554 1368 554 1368 644 1270 c 0,13,0
 717 1188 717 1188 717 1075 c 128,-1,1
701 580 m 1,14,-1
 80 580 l 1,15,-1
 80 702 l 1,16,-1
 701 702 l 1,17,-1
 701 580 l 1,14,-1
517 1077 m 256,18,19
 517 1130 517 1130 481 1167 c 128,-1,20
 445 1204 445 1204 392 1204 c 0,21,22
 341 1204 341 1204 304 1166 c 128,-1,23
 267 1128 267 1128 267 1077 c 256,24,25
 267 1026 267 1026 302.5 987 c 128,-1,26
 338 948 338 948 392 948 c 0,27,28
 445 948 445 948 481 986 c 128,-1,29
 517 1024 517 1024 517 1077 c 256,18,19
EndSplineSet
Validated: 1
EndChar

StartChar: guillemotright
Encoding: 187 187 126
Width: 1043
GlyphClass: 2
Flags: W
LayerCount: 2
Fore
SplineSet
996 467 m 1,0,-1
 685 20 l 1,1,-1
 498 152 l 1,2,-1
 732 467 l 1,3,-1
 505 786 l 1,4,-1
 685 911 l 1,5,-1
 996 467 l 1,0,-1
546 467 m 1,6,-1
 234 20 l 1,7,-1
 48 152 l 1,8,-1
 281 467 l 1,9,-1
 52 786 l 1,10,-1
 234 911 l 1,11,-1
 546 467 l 1,6,-1
EndSplineSet
Validated: 1
EndChar

StartChar: onequarter
Encoding: 188 188 127
Width: 1312
GlyphClass: 2
Flags: W
LayerCount: 2
Fore
SplineSet
1274 143 m 1,0,-1
 1179 143 l 1,1,-1
 1179 0 l 1,2,-1
 1059 0 l 1,3,-1
 1059 143 l 1,4,-1
 803 143 l 1,5,-1
 803 281 l 1,6,-1
 1012 647 l 1,7,-1
 1179 647 l 1,8,-1
 1179 252 l 1,9,-1
 1274 252 l 1,10,-1
 1274 143 l 1,0,-1
987 1087 m 1,11,-1
 399 -25 l 1,12,-1
 266 -25 l 1,13,-1
 866 1087 l 1,14,-1
 987 1087 l 1,11,-1
299 414 m 1,15,-1
 178 414 l 1,16,-1
 178 928 l 1,17,18
 92 871 92 871 37 862 c 1,19,-1
 37 971 l 1,20,21
 131 998 131 998 192 1071 c 1,22,-1
 299 1071 l 1,23,-1
 299 414 l 1,15,-1
1059 252 m 1,24,-1
 1059 514 l 1,25,-1
 903 252 l 1,26,-1
 1059 252 l 1,24,-1
EndSplineSet
Validated: 1
EndChar

StartChar: onehalf
Encoding: 189 189 128
Width: 1315
GlyphClass: 2
Flags: W
LayerCount: 2
Fore
SplineSet
1255 0 m 1,0,-1
 839 0 l 1,1,-1
 839 84 l 1,2,-1
 1089 369 l 2,3,4
 1126 412 1126 412 1126 469 c 0,5,6
 1126 512 1126 512 1100.5 540.5 c 128,-1,7
 1075 569 1075 569 1038 569 c 0,8,9
 954 569 954 569 954 457 c 1,10,-1
 833 457 l 1,11,-1
 833 487 l 2,12,13
 833 571 833 571 891.5 623.5 c 128,-1,14
 950 676 950 676 1034 676 c 0,15,16
 1125 676 1125 676 1186 627 c 0,17,18
 1253 573 1253 573 1253 474 c 0,19,20
 1253 472 1253 472 1253 471 c 0,21,22
 1253 389 1253 389 1200 328 c 2,23,-1
 1005 104 l 1,24,-1
 1255 104 l 1,25,-1
 1255 0 l 1,0,-1
956 1096 m 1,26,-1
 366 -14 l 1,27,-1
 237 -14 l 1,28,-1
 833 1096 l 1,29,-1
 956 1096 l 1,26,-1
299 414 m 1,30,-1
 178 414 l 1,31,-1
 178 928 l 1,32,33
 92 871 92 871 37 862 c 1,34,-1
 37 971 l 1,35,36
 131 998 131 998 192 1071 c 1,37,-1
 299 1071 l 1,38,-1
 299 414 l 1,30,-1
EndSplineSet
Validated: 1
EndChar

StartChar: threequarters
Encoding: 190 190 129
Width: 1338
GlyphClass: 2
Flags: W
LayerCount: 2
Fore
SplineSet
1300 143 m 1,0,-1
 1205 143 l 1,1,-1
 1205 0 l 1,2,-1
 1085 0 l 1,3,-1
 1085 143 l 1,4,-1
 829 143 l 1,5,-1
 829 281 l 1,6,-1
 1038 647 l 1,7,-1
 1205 647 l 1,8,-1
 1205 252 l 1,9,-1
 1300 252 l 1,10,-1
 1300 143 l 1,0,-1
1064 1087 m 1,11,-1
 476 -20 l 1,12,-1
 345 -20 l 1,13,-1
 941 1087 l 1,14,-1
 1064 1087 l 1,11,-1
476 575 m 0,15,16
 476 489 476 489 418 432 c 128,-1,17
 360 375 360 375 263 375 c 0,18,19
 52 375 52 375 52 580 c 2,20,-1
 52 598 l 1,21,-1
 167 598 l 1,22,23
 167 469 167 469 270 469 c 0,24,25
 358 469 358 469 358 588 c 0,26,27
 358 670 358 670 296 696 c 0,28,29
 278 704 278 704 200 715 c 1,30,-1
 200 795 l 1,31,32
 345 795 345 795 345 903 c 0,33,34
 345 938 345 938 322.5 965.5 c 128,-1,35
 300 993 300 993 265 993 c 0,36,37
 188 993 188 993 188 901 c 0,38,39
 188 900 188 900 188 899 c 2,40,-1
 69 899 l 1,41,-1
 69 930 l 2,42,43
 69 998 69 998 125 1044 c 128,-1,44
 181 1090 181 1090 272 1090 c 0,45,46
 348 1090 348 1090 401 1049 c 0,47,48
 464 998 464 998 464 901 c 0,49,50
 464 795 464 795 374 758 c 1,51,52
 476 714 476 714 476 575 c 0,15,16
1085 252 m 1,53,-1
 1085 514 l 1,54,-1
 929 252 l 1,55,-1
 1085 252 l 1,53,-1
EndSplineSet
Validated: 1
EndChar

StartChar: questiondown
Encoding: 191 191 130
Width: 794
GlyphClass: 2
Flags: W
LayerCount: 2
Fore
SplineSet
511 844 m 256,0,1
 511 795 511 795 476 760 c 128,-1,2
 441 725 441 725 392 725 c 256,3,4
 343 725 343 725 308 760 c 128,-1,5
 273 795 273 795 273 844 c 256,6,7
 273 893 273 893 308 927 c 128,-1,8
 343 961 343 961 392 961 c 128,-1,9
 441 961 441 961 476 927 c 128,-1,10
 511 893 511 893 511 844 c 256,0,1
756 276 m 1,11,12
 729 149 729 149 642 68 c 0,13,14
 546 -20 546 -20 408 -20 c 0,15,16
 252 -20 252 -20 154 75 c 128,-1,17
 56 170 56 170 56 317 c 0,18,19
 56 475 56 475 148 561 c 0,20,21
 218 627 218 627 291 627 c 1,22,-1
 291 680 l 1,23,-1
 492 680 l 1,24,-1
 492 436 l 1,25,26
 439 459 439 459 408 459 c 0,27,28
 349 459 349 459 309 418 c 128,-1,29
 269 377 269 377 269 319 c 0,30,31
 269 262 269 262 311 220 c 128,-1,32
 353 178 353 178 408 178 c 0,33,34
 457 178 457 178 500 216 c 128,-1,35
 543 254 543 254 550 303 c 1,36,-1
 756 276 l 1,11,12
EndSplineSet
Validated: 1
EndChar

StartChar: multiply
Encoding: 215 215 131
Width: 969
GlyphClass: 2
Flags: W
LayerCount: 2
Fore
SplineSet
916 80 m 1,0,-1
 849 6 l 1,1,-1
 486 379 l 1,2,-1
 124 6 l 1,3,-1
 50 80 l 1,4,-1
 412 453 l 1,5,-1
 50 819 l 1,6,-1
 124 893 l 1,7,-1
 486 526 l 1,8,-1
 849 899 l 1,9,-1
 916 825 l 1,10,-1
 560 453 l 1,11,-1
 916 80 l 1,0,-1
EndSplineSet
Validated: 1
EndChar

StartChar: divide
Encoding: 247 247 132
Width: 1036
GlyphClass: 2
Flags: W
LayerCount: 2
Fore
SplineSet
623 770 m 256,0,1
 623 725 623 725 590 693.5 c 128,-1,2
 557 662 557 662 512 662 c 256,3,4
 467 662 467 662 434 693.5 c 128,-1,5
 401 725 401 725 401 770 c 256,6,7
 401 815 401 815 434 848 c 128,-1,8
 467 881 467 881 512 881 c 256,9,10
 557 881 557 881 590 848 c 128,-1,11
 623 815 623 815 623 770 c 256,0,1
995 385 m 1,12,-1
 41 385 l 1,13,-1
 41 508 l 1,14,-1
 995 508 l 1,15,-1
 995 385 l 1,12,-1
623 121 m 256,16,17
 623 76 623 76 590 44 c 128,-1,18
 557 12 557 12 512 12 c 256,19,20
 467 12 467 12 434 44 c 128,-1,21
 401 76 401 76 401 121 c 256,22,23
 401 166 401 166 434 198.5 c 128,-1,24
 467 231 467 231 512 231 c 256,25,26
 557 231 557 231 590 198.5 c 128,-1,27
 623 166 623 166 623 121 c 256,16,17
EndSplineSet
Validated: 1
EndChar

StartChar: florin
Encoding: 402 402 133
Width: 1259
GlyphClass: 2
Flags: W
LayerCount: 2
Fore
SplineSet
1232 1436 m 1,0,-1
 1179 1151 l 1,1,2
 1099 1200 1099 1200 1037 1200 c 0,3,4
 941 1200 941 1200 908 1030 c 2,5,-1
 886 907 l 1,6,-1
 1084 907 l 1,7,-1
 1060 774 l 1,8,-1
 861 774 l 1,9,-1
 765 246 l 2,10,11
 714 -41 714 -41 599 -180 c 0,12,13
 544 -248 544 -248 476 -281 c 0,14,15
 370 -334 370 -334 210 -334 c 0,16,17
 126 -334 126 -334 24 -315 c 1,18,-1
 77 -16 l 1,19,20
 159 -36 159 -36 212 -37 c 0,21,22
 323 -37 323 -37 372 45 c 0,23,24
 411 111 411 111 450 330 c 2,25,-1
 529 774 l 1,26,-1
 374 774 l 1,27,-1
 394 907 l 1,28,-1
 554 907 l 1,29,-1
 595 1124 l 2,30,31
 634 1325 634 1325 751 1417 c 0,32,33
 853 1497 853 1497 1001 1497 c 0,34,35
 1120 1497 1120 1497 1189 1460 c 0,36,37
 1205 1452 1205 1452 1232 1436 c 1,0,-1
EndSplineSet
Validated: 1
EndChar

StartChar: uni04F4
Encoding: 1268 1268 134
Width: 1973
GlyphClass: 2
Flags: W
LayerCount: 2
Fore
SplineSet
501 248 m 2,0,1
 525 248 525 248 549 248 c 0,2,3
 784 272 784 272 966 340 c 0,4,5
 1033 362 1033 362 1049.5 372.5 c 128,-1,6
 1066 383 1066 383 1091.5 398 c 128,-1,7
 1117 413 1117 413 1117 440 c 128,-1,8
 1117 467 1117 467 1088.5 506 c 128,-1,9
 1060 545 1060 545 1015 602 c 128,-1,10
 970 659 970 659 970 711.5 c 128,-1,11
 970 764 970 764 1004 801 c 128,-1,12
 1038 838 1038 838 1124 874 c 0,13,14
 1265 934 1265 934 1448 934 c 0,15,16
 1534 934 1534 934 1613 920 c 1,17,18
 1600 945 1600 945 1569 998.5 c 128,-1,19
 1538 1052 1538 1052 1538 1097.5 c 128,-1,20
 1538 1143 1538 1143 1570.5 1177.5 c 128,-1,21
 1603 1212 1603 1212 1653.5 1212 c 128,-1,22
 1704 1212 1704 1212 1738.5 1178 c 128,-1,23
 1773 1144 1773 1144 1773 1101 c 128,-1,24
 1773 1058 1773 1058 1756.5 1030 c 128,-1,25
 1740 1002 1740 1002 1738.5 998 c 128,-1,26
 1737 994 1737 994 1736 993 c 2,27,-1
 1681 895 l 1,28,29
 1699 881 1699 881 1694 860 c 0,30,31
 1685 821 1685 821 1652 821 c 0,32,33
 1639 821 1639 821 1587.5 831.5 c 128,-1,34
 1536 842 1536 842 1497 842 c 2,35,-1
 1404 842 l 2,36,37
 1236 839 1236 839 1111 762 c 0,38,39
 1068 735 1068 735 1065 719.5 c 128,-1,40
 1062 704 1062 704 1071 689 c 128,-1,41
 1080 674 1080 674 1082 670.5 c 128,-1,42
 1084 667 1084 667 1090 659 c 128,-1,43
 1096 651 1096 651 1098 648 c 128,-1,44
 1100 645 1100 645 1106 637.5 c 128,-1,45
 1112 630 1112 630 1114.5 627 c 128,-1,46
 1117 624 1117 624 1148 586 c 128,-1,47
 1179 548 1179 548 1186.5 531.5 c 128,-1,48
 1194 515 1194 515 1204 494 c 128,-1,49
 1214 473 1214 473 1214 420 c 0,50,51
 1214 315 1214 315 937 233 c 128,-1,52
 660 151 660 151 416 151 c 2,53,-1
 391 151 l 2,54,55
 336 151 336 151 336 202 c 0,56,57
 336 209 336 209 337 216 c 128,-1,58
 338 223 338 223 335 232 c 2,59,-1
 253 383 l 2,60,61
 200 477 200 477 200 523 c 128,-1,62
 200 569 200 569 225 609 c 0,63,64
 274 691 274 691 356.5 691 c 128,-1,65
 439 691 439 691 488.5 641.5 c 128,-1,66
 538 592 538 592 538 534 c 128,-1,67
 538 476 538 476 514.5 436.5 c 128,-1,68
 491 397 491 397 489.5 393 c 128,-1,69
 488 389 488 389 487 388 c 2,70,-1
 408 242 l 1,71,-1
 441 242 l 1,72,-1
 501 248 l 2,0,1
EndSplineSet
Validated: 1
EndChar

StartChar: uni04F6
Encoding: 1270 1270 136
Width: 1454
GlyphClass: 2
Flags: W
LayerCount: 2
Fore
SplineSet
1002 1112 m 128,-1,1
 1009 1133 1009 1133 985.5 1141 c 128,-1,2
 962 1149 962 1149 933.5 1149 c 128,-1,3
 905 1149 905 1149 896 1148 c 1,4,5
 931 1113 931 1113 977 1097 c 0,6,0
 995 1091 995 1091 1002 1112 c 128,-1,1
905 1006 m 128,-1,8
 925 1016 925 1016 917 1033 c 0,9,10
 895 1077 895 1077 855 1107 c 1,11,12
 855 1057 855 1057 870 1026.5 c 128,-1,7
 885 996 885 996 905 1006 c 128,-1,8
816 1144 m 128,-1,14
 828 1140 828 1140 839 1145.5 c 128,-1,15
 850 1151 850 1151 854 1162.5 c 128,-1,16
 858 1174 858 1174 852.5 1185 c 128,-1,17
 847 1196 847 1196 835.5 1200 c 128,-1,18
 824 1204 824 1204 812.5 1199 c 128,-1,19
 801 1194 801 1194 797 1182 c 128,-1,20
 793 1170 793 1170 798.5 1159 c 128,-1,13
 804 1148 804 1148 816 1144 c 128,-1,14
797 1020 m 0,21,22
 807 1047 807 1047 807 1077 c 0,23,24
 807 1093 807 1093 804 1109 c 1,25,26
 792 1097 792 1097 775.5 1071 c 128,-1,27
 759 1045 759 1045 753 1027.5 c 128,-1,28
 747 1010 747 1010 768 1003 c 128,-1,29
 789 996 789 996 797 1020 c 0,21,22
674.5 1078 m 128,-1,31
 683 1075 683 1075 694 1080 c 128,-1,32
 705 1085 705 1085 728.5 1104.5 c 128,-1,33
 752 1124 752 1124 762 1138 c 1,34,-1
 761 1138 l 2,35,36
 711 1138 711 1138 687.5 1126.5 c 128,-1,37
 664 1115 664 1115 661 1106 c 128,-1,38
 658 1097 658 1097 662 1089 c 128,-1,30
 666 1081 666 1081 674.5 1078 c 128,-1,31
648 1229 m 128,-1,40
 642 1211 642 1211 665.5 1203 c 128,-1,41
 689 1195 689 1195 718 1195 c 128,-1,42
 747 1195 747 1195 755 1196 c 1,43,44
 743 1209 743 1209 712.5 1228 c 128,-1,45
 682 1247 682 1247 668 1247 c 128,-1,39
 654 1247 654 1247 648 1229 c 128,-1,40
790 1240 m 1,46,47
 790 1289 790 1289 770 1330 c 0,48,49
 764 1343 764 1343 749 1343 c 128,-1,50
 734 1343 734 1343 730 1331 c 128,-1,51
 726 1319 726 1319 731.5 1308 c 128,-1,52
 737 1297 737 1297 756.5 1273.5 c 128,-1,53
 776 1250 776 1250 790 1240 c 1,46,47
896 1330 m 128,-1,55
 892 1338 892 1338 886 1340.5 c 128,-1,56
 880 1343 880 1343 870 1343 c 128,-1,57
 860 1343 860 1343 850 1313 c 0,58,59
 844 1296 844 1296 844 1272 c 0,60,61
 844 1255 844 1255 847 1235 c 1,62,63
 860 1247 860 1247 876 1273 c 128,-1,64
 892 1299 892 1299 896 1310.5 c 128,-1,54
 900 1322 900 1322 896 1330 c 128,-1,55
895 1204 m 1,65,66
 896 1204 896 1204 897 1204 c 0,67,68
 946 1204 946 1204 990 1226 c 0,69,70
 1006 1233 1006 1233 996 1253 c 128,-1,71
 986 1273 986 1273 969 1265 c 0,72,73
 925 1244 925 1244 895 1204 c 1,65,66
1259 659.5 m 128,-1,75
 1289 640 1289 640 1310 633 c 128,-1,76
 1331 626 1331 626 1339.5 651 c 128,-1,77
 1348 676 1348 676 1320.5 685.5 c 128,-1,78
 1293 695 1293 695 1258.5 695 c 128,-1,79
 1224 695 1224 695 1214 694 c 1,80,74
 1229 679 1229 679 1259 659.5 c 128,-1,75
1224.5 525.5 m 128,-1,82
 1248 537 1248 537 1238.5 557 c 128,-1,83
 1229 577 1229 577 1205.5 604.5 c 128,-1,84
 1182 632 1182 632 1166 645 c 1,85,86
 1165 586 1165 586 1191 533 c 0,87,81
 1201 514 1201 514 1224.5 525.5 c 128,-1,82
1119 689 m 128,-1,89
 1133 684 1133 684 1146 690.5 c 128,-1,90
 1159 697 1159 697 1164 711 c 128,-1,91
 1169 725 1169 725 1162.5 738 c 128,-1,92
 1156 751 1156 751 1142 755.5 c 128,-1,93
 1128 760 1128 760 1115 754 c 128,-1,94
 1102 748 1102 748 1097 734 c 128,-1,95
 1092 720 1092 720 1098.5 707 c 128,-1,88
 1105 694 1105 694 1119 689 c 128,-1,89
1082.5 523 m 128,-1,97
 1092 528 1092 528 1097 541.5 c 128,-1,98
 1102 555 1102 555 1105 591 c 128,-1,99
 1108 627 1108 627 1105 647 c 1,100,101
 1090 633 1090 633 1070.5 602.5 c 128,-1,102
 1051 572 1051 572 1046.5 558.5 c 128,-1,103
 1042 545 1042 545 1047 535 c 128,-1,104
 1052 525 1052 525 1062.5 521.5 c 128,-1,96
 1073 518 1073 518 1082.5 523 c 128,-1,97
936 623.5 m 128,-1,106
 948 600 948 600 967.5 609.5 c 128,-1,107
 987 619 987 619 1015 642 c 128,-1,108
 1043 665 1043 665 1055 682 c 1,109,-1
 1054 682 l 2,110,111
 995 682 995 682 959.5 664.5 c 128,-1,105
 924 647 924 647 936 623.5 c 128,-1,106
920 789.5 m 128,-1,113
 913 768 913 768 940.5 758.5 c 128,-1,114
 968 749 968 749 1002.5 749 c 128,-1,115
 1037 749 1037 749 1047 751 c 1,116,117
 1032 766 1032 766 996 788.5 c 128,-1,118
 960 811 960 811 943.5 811 c 128,-1,112
 927 811 927 811 920 789.5 c 128,-1,113
1080 858.5 m 128,-1,120
 1072 894 1072 894 1064.5 909 c 128,-1,121
 1057 924 1057 924 1039.5 924 c 128,-1,122
 1022 924 1022 924 1017 910 c 128,-1,123
 1012 896 1012 896 1018.5 883 c 128,-1,124
 1025 870 1025 870 1048 842.5 c 128,-1,125
 1071 815 1071 815 1088 802 c 1,126,119
 1088 823 1088 823 1080 858.5 c 128,-1,120
1214 910 m 128,-1,128
 1209 920 1209 920 1202 922 c 128,-1,129
 1195 924 1195 924 1183 924 c 128,-1,130
 1171 924 1171 924 1165 907 c 128,-1,131
 1159 890 1159 890 1156 854 c 128,-1,132
 1153 818 1153 818 1156 797 c 1,133,134
 1171 812 1171 812 1190.5 842.5 c 128,-1,135
 1210 873 1210 873 1214.5 886.5 c 128,-1,127
 1219 900 1219 900 1214 910 c 128,-1,128
1332.5 818.5 m 128,-1,137
 1321 842 1321 842 1301 832.5 c 128,-1,138
 1281 823 1281 823 1253.5 800 c 128,-1,139
 1226 777 1226 777 1213 760 c 1,140,141
 1236 760 1236 760 1271.5 768 c 128,-1,142
 1307 776 1307 776 1318 782 c 0,143,136
 1344 795 1344 795 1332.5 818.5 c 128,-1,137
590.5 816.5 m 128,-1,145
 577 844 577 844 475 844 c 0,146,147
 458 844 458 844 447 842 c 1,148,149
 464 825 464 825 510 795 c 0,150,151
 544 774 544 774 565 774 c 0,152,153
 574 774 574 774 581 777 c 0,154,144
 604 789 604 789 590.5 816.5 c 128,-1,145
458.5 647.5 m 128,-1,156
 486 661 486 661 475 684 c 128,-1,157
 464 707 464 707 437 739 c 128,-1,158
 410 771 410 771 391 785 c 1,159,160
 390 762 390 762 399.5 720.5 c 128,-1,161
 409 679 409 679 416 665 c 0,162,155
 431 634 431 634 458.5 647.5 c 128,-1,156
337 836.5 m 128,-1,164
 353 831 353 831 368 838.5 c 128,-1,165
 383 846 383 846 388.5 862 c 128,-1,166
 394 878 394 878 386.5 893.5 c 128,-1,167
 379 909 379 909 363 914.5 c 128,-1,168
 347 920 347 920 332 912.5 c 128,-1,169
 317 905 317 905 311.5 888.5 c 128,-1,170
 306 872 306 872 313.5 857 c 128,-1,163
 321 842 321 842 337 836.5 c 128,-1,164
294.5 644.5 m 128,-1,172
 306 650 306 650 311 665.5 c 128,-1,173
 316 681 316 681 320 723 c 0,174,175
 322 745 322 745 322 762 c 0,176,177
 322 777 322 777 320 789 c 1,178,179
 303 772 303 772 280.5 736.5 c 128,-1,180
 258 701 258 701 253 685.5 c 128,-1,181
 248 670 248 670 253.5 658.5 c 128,-1,182
 259 647 259 647 271 643 c 128,-1,171
 283 639 283 639 294.5 644.5 c 128,-1,172
124.5 760.5 m 128,-1,184
 138 733 138 733 161 744.5 c 128,-1,185
 184 756 184 756 216 782.5 c 128,-1,186
 248 809 248 809 263 829 c 1,187,-1
 261 829 l 2,188,189
 234 829 234 829 194 819.5 c 128,-1,190
 154 810 154 810 141 803 c 0,191,183
 111 788 111 788 124.5 760.5 c 128,-1,184
109 934 m 0,192,193
 123 907 123 907 225 907 c 0,194,195
 242 907 242 907 253 908 c 1,196,197
 236 926 236 926 194.5 952.5 c 128,-1,198
 153 979 153 979 134 979 c 128,-1,199
 115 979 115 979 109 962.5 c 128,-1,200
 103 946 103 946 109 934 c 0,192,193
292 1033 m 128,-1,202
 283 1074 283 1074 274 1092 c 128,-1,203
 265 1110 265 1110 244.5 1110 c 128,-1,204
 224 1110 224 1110 218.5 1093.5 c 128,-1,205
 213 1077 213 1077 220.5 1062 c 128,-1,206
 228 1047 228 1047 255 1015 c 128,-1,207
 282 983 282 983 301 968 c 1,208,201
 301 992 301 992 292 1033 c 128,-1,202
446.5 1092.5 m 128,-1,210
 441 1104 441 1104 432.5 1107 c 128,-1,211
 424 1110 424 1110 410.5 1110 c 128,-1,212
 397 1110 397 1110 390.5 1090 c 128,-1,213
 384 1070 384 1070 380 1028 c 0,214,215
 378 1006 378 1006 378 989 c 0,216,217
 378 973 378 973 379 962 c 1,218,219
 396 979 396 979 419 1014.5 c 128,-1,220
 442 1050 442 1050 447 1065.5 c 128,-1,209
 452 1081 452 1081 446.5 1092.5 c 128,-1,210
583.5 987 m 128,-1,222
 570 1015 570 1015 547.5 1003.5 c 128,-1,223
 525 992 525 992 492.5 965 c 128,-1,224
 460 938 460 938 446 919 c 1,225,226
 446 919 446 919 447 919 c 0,227,228
 473 919 473 919 513 929 c 0,229,230
 554 938 554 938 568 945 c 0,231,221
 597 959 597 959 583.5 987 c 128,-1,222
1142 512 m 1,232,233
 1120 467 1120 467 1064 467 c 128,-1,234
 1008 467 1008 467 993 529 c 1,235,236
 917 456 917 456 909 344 c 1,237,-1
 1009 301 l 2,238,239
 1035 290 1035 290 1022 254 c 0,240,241
 965 98 965 98 948 48 c 1,242,-1
 941 0 l 1,243,-1
 591 0 l 1,244,-1
 581 48 l 1,245,246
 496 360 496 360 446 489 c 0,247,248
 438 508 438 508 453 522 c 256,249,250
 468 536 468 536 487 528 c 2,251,-1
 647 459 l 1,252,253
 629 587 629 587 538 674 c 1,254,255
 537 617 537 617 486 592 c 0,256,257
 466 583 466 583 445 583 c 0,258,259
 389 583 389 583 364 632 c 1,260,261
 338 580 338 580 280.5 580 c 128,-1,262
 223 580 223 580 198 631 c 0,263,264
 184 659 184 659 191 691 c 1,265,266
 172 682 172 682 149 682 c 0,267,268
 95 682 95 682 70 734 c 0,269,270
 60 752 60 752 60 773 c 0,271,272
 60 791 60 791 67 810 c 0,273,274
 81 852 81 852 113 858 c 0,275,276
 114 858 114 858 115 858 c 1,277,278
 72 870 72 870 55 906 c 0,279,280
 44 928 44 928 44 948 c 0,281,282
 44 961 44 961 48 974 c 0,283,284
 70 1040 70 1040 137 1040 c 0,285,286
 151 1040 151 1040 165 1036 c 1,287,288
 164 1036 164 1036 164 1037 c 0,289,290
 154 1057 154 1057 154 1078 c 0,291,292
 154 1092 154 1092 159 1107 c 0,293,294
 180 1171 180 1171 245 1171 c 128,-1,295
 310 1171 310 1171 333 1110 c 1,296,297
 342 1137 342 1137 366 1154 c 256,298,299
 390 1171 390 1171 412 1171 c 0,300,301
 476 1171 476 1171 502 1120 c 0,302,303
 512 1100 512 1100 512 1080 c 0,304,305
 512 1066 512 1066 507 1051 c 1,306,307
 531 1066 531 1066 557 1066 c 0,308,309
 558 1066 558 1066 558 1066 c 2,310,311
 614 1066 614 1066 639 1014 c 0,312,313
 648 996 648 996 648 975 c 0,314,315
 648 957 648 957 641 936 c 0,316,317
 626 893 626 893 596 890 c 0,318,319
 594 890 594 890 594 890 c 1,320,321
 629 877 629 877 646 843 c 0,322,323
 656 822 656 822 656 802 c 0,324,325
 656 789 656 789 652 777 c 0,326,327
 634 725 634 725 585 713 c 1,328,329
 700 600 700 600 711 431 c 1,330,-1
 731 422 l 1,331,332
 726 462 726 462 726 504 c 0,333,334
 726 631 726 631 769 772 c 0,335,336
 797 864 797 864 799.5 898.5 c 128,-1,337
 802 933 802 933 801 962 c 1,338,339
 789 957 789 957 777 957 c 0,340,341
 733 957 733 957 715 994 c 0,342,343
 705 1015 705 1015 710 1038 c 1,344,345
 696 1032 696 1032 682 1032 c 0,346,347
 640 1032 640 1032 625 1063 c 0,348,349
 614 1084 614 1084 614 1102 c 0,350,351
 614 1137 614 1137 653 1159 c 0,352,353
 654 1160 654 1160 654 1160 c 1,354,355
 623 1168 623 1168 610.5 1194 c 128,-1,356
 598 1220 598 1220 606 1244 c 0,357,358
 622 1292 622 1292 670 1292 c 0,359,360
 680 1292 680 1292 691 1289 c 1,361,362
 691 1289 691 1289 691 1290 c 0,363,364
 674 1306 674 1306 688 1346.5 c 128,-1,365
 702 1387 702 1387 749 1387 c 128,-1,366
 796 1387 796 1387 813 1343 c 1,367,368
 828 1387 828 1387 872.5 1387 c 128,-1,369
 917 1387 917 1387 932.5 1356.5 c 128,-1,370
 948 1326 948 1326 940 1300 c 1,371,372
 957 1311 957 1311 987 1311 c 128,-1,373
 1017 1311 1017 1311 1033 1279 c 0,374,375
 1042 1261 1042 1261 1042 1243 c 0,376,377
 1042 1229 1042 1229 1037 1214 c 0,378,379
 1025 1181 1025 1181 1004 1183 c 0,380,381
 1003 1183 1003 1183 1003 1183 c 1,382,383
 1029 1173 1029 1173 1041 1148.5 c 128,-1,384
 1053 1124 1053 1124 1045 1101 c 0,385,386
 1029 1054 1029 1054 981 1052 c 0,387,388
 967 1052 967 1052 954 1058 c 1,389,390
 967 1032 967 1032 959 1005 c 0,391,392
 943 959 943 959 895 959 c 0,393,394
 877 959 877 959 863 966 c 1,395,396
 864 950 864 950 864 935 c 0,397,398
 864 886 864 886 854 846 c 0,399,400
 840 794 840 794 826.5 750.5 c 128,-1,401
 813 707 813 707 794 627 c 0,402,403
 785 590 785 590 785 537 c 0,404,405
 785 476 785 476 797 393 c 1,406,-1
 850 370 l 1,407,408
 863 476 863 476 937 559 c 1,409,410
 904 569 904 569 889 599 c 0,411,412
 881 615 881 615 881 634 c 0,413,414
 881 651 881 651 888 669 c 0,415,416
 901 708 901 708 926 707 c 0,417,418
 927 707 927 707 927 708 c 0,419,420
 890 718 890 718 875 748.5 c 128,-1,421
 860 779 860 779 870 807 c 0,422,423
 890 865 890 865 940 865 c 0,424,425
 954 865 954 865 971 861 c 1,426,427
 970 861 970 861 970 862 c 0,428,429
 954 890 954 890 965 923 c 0,430,431
 984 978 984 978 1040 978 c 128,-1,432
 1096 978 1096 978 1115 925 c 1,433,434
 1134 978 1134 978 1186.5 978 c 128,-1,435
 1239 978 1239 978 1257 942 c 0,436,437
 1269 917 1269 917 1269 896 c 0,438,439
 1269 885 1269 885 1266 874 c 1,440,441
 1287 886 1287 886 1309 886 c 0,442,443
 1358 886 1358 886 1376 850 c 0,444,445
 1387 828 1387 828 1387 806 c 0,446,447
 1387 790 1387 790 1381 774 c 0,448,449
 1368 734 1368 734 1342 735 c 0,450,451
 1341 735 1341 735 1341 734 c 0,452,453
 1372 724 1372 724 1386 694.5 c 128,-1,454
 1400 665 1400 665 1391 637 c 0,455,456
 1371 580 1371 580 1315 580 c 0,457,458
 1298 580 1298 580 1282 587 c 1,459,460
 1293 569 1293 569 1293 550 c 0,461,462
 1293 537 1293 537 1288 525 c 0,463,464
 1269 470 1269 470 1216.5 470 c 128,-1,465
 1164 470 1164 470 1142 512 c 1,232,233
EndSplineSet
Validated: 37
EndChar

StartChar: uni04F7
Encoding: 1271 1271 137
Width: 1155
GlyphClass: 2
Flags: W
LayerCount: 2
Fore
SplineSet
783 617 m 1,0,-1
 935 725 l 1,1,-1
 1087 517 l 2,2,3
 1110 492 1110 492 1110 432 c 0,4,5
 1110 385 1110 385 1096 317 c 0,6,7
 1089 281 1089 281 1082 259 c 2,8,-1
 1075 236 l 1,9,10
 987 216 987 216 919 216 c 0,11,12
 879 216 879 216 846 223 c 0,13,14
 810 230 810 230 794 248 c 2,15,-1
 600 417 l 1,16,-1
 720 559 l 1,17,-1
 292 1025 l 1,18,-1
 195 997 l 2,19,20
 175 991 175 991 159 1003 c 2,21,-1
 51 1078 l 2,22,23
 34 1090 34 1090 32.5 1110.5 c 128,-1,24
 31 1131 31 1131 46 1145 c 2,25,-1
 256 1337 l 2,26,27
 271 1351 271 1351 291 1348 c 128,-1,28
 311 1345 311 1345 322 1327 c 2,29,-1
 387 1214 l 2,30,31
 397 1196 397 1196 390 1177 c 2,32,-1
 354 1083 l 1,33,-1
 783 617 l 1,0,-1
191 1085 m 1,34,-1
 273 1108 l 1,35,-1
 303 1188 l 1,36,-1
 274 1238 l 1,37,-1
 143 1118 l 1,38,-1
 191 1085 l 1,34,-1
EndSplineSet
Validated: 1
EndChar

StartChar: uni04F8
Encoding: 1272 1272 138
Width: 1564
GlyphClass: 2
Flags: W
LayerCount: 2
Fore
SplineSet
1542 1408 m 1,0,-1
 1463 1141 l 1,1,-1
 1433 1141 l 1,2,-1
 1515 1388 l 1,3,4
 1463 1386 1463 1386 1441 1379 c 128,-1,5
 1419 1372 1419 1372 1382 1351 c 1,6,-1
 1390 1408 l 1,7,-1
 1542 1408 l 1,0,-1
342 1120 m 1,8,-1
 521 914 l 1,9,-1
 863 495 l 1,10,-1
 1032 290 l 1,11,-1
 1032 860 l 2,12,13
 1031 901 1031 901 1024 962 c 128,-1,14
 1017 1023 1017 1023 1006.5 1037.5 c 128,-1,15
 996 1052 996 1052 979 1064 c 0,16,17
 973 1069 973 1069 963 1072.5 c 128,-1,18
 953 1076 953 1076 947 1078 c 128,-1,19
 941 1080 941 1080 928 1082.5 c 128,-1,20
 915 1085 915 1085 910 1085.5 c 128,-1,21
 905 1086 905 1086 890.5 1088 c 128,-1,22
 876 1090 876 1090 868 1091 c 1,23,-1
 868 1131 l 1,24,-1
 1278 1131 l 1,25,-1
 1278 1091 l 1,26,27
 1189 1079 1189 1079 1164 1062 c 0,28,29
 1116 1028 1116 1028 1114 860 c 2,30,-1
 1114 -27 l 1,31,-1
 1067 -15 l 1,32,-1
 879 201 l 1,33,-1
 336 856 l 1,34,-1
 336 266 l 2,35,36
 336 225 336 225 343.5 164 c 128,-1,37
 351 103 351 103 361 88.5 c 128,-1,38
 371 74 371 74 388 62 c 0,39,40
 394 57 394 57 404.5 53.5 c 128,-1,41
 415 50 415 50 421 48 c 128,-1,42
 427 46 427 46 439.5 43.5 c 128,-1,43
 452 41 452 41 457.5 40.5 c 128,-1,44
 463 40 463 40 477.5 38 c 128,-1,45
 492 36 492 36 500 35 c 1,46,-1
 500 -5 l 1,47,-1
 90 -5 l 1,48,-1
 90 35 l 1,49,50
 97 36 97 36 123.5 39.5 c 128,-1,51
 150 43 150 43 181 53 c 0,52,53
 202 60 202 60 215.5 72.5 c 128,-1,54
 229 85 229 85 241.5 116 c 128,-1,55
 254 147 254 147 254 368 c 2,56,-1
 254 880 l 2,57,58
 254 934 254 934 248 950 c 0,59,60
 226 1009 226 1009 163.5 1044 c 128,-1,61
 101 1079 101 1079 28 1080 c 1,62,-1
 28 1131 l 1,63,-1
 259 1131 l 1,64,-1
 342 1120 l 1,8,-1
EndSplineSet
Validated: 1
EndChar

StartChar: uni04F9
Encoding: 1273 1273 139
Width: 1955
GlyphClass: 2
Flags: W
LayerCount: 2
Fore
SplineSet
1622 1179 m 1,0,1
 1710 1094 1710 1094 1791 861 c 0,2,3
 1903 541 1903 541 1909 76 c 1,4,-1
 66 76 l 1,5,6
 65 116 65 116 65 156 c 0,7,8
 65 473 65 473 121 797 c 0,9,10
 183 1162 183 1162 321 1338 c 0,11,12
 375 1407 375 1407 439 1440 c 1,13,14
 342 1293 342 1293 275 1043 c 0,15,16
 217 830 217 830 217 614 c 0,17,18
 217 481 217 481 239 348 c 1,19,20
 261 472 261 472 277 625 c 0,21,22
 290 748 290 748 289 826 c 0,23,24
 290 844 290 844 289 860 c 1,25,26
 316 764 316 764 342 642 c 1,27,28
 342 659 342 659 342 675 c 0,29,30
 342 1053 342 1053 481 1165 c 1,31,32
 460 1113 460 1113 437.5 1008 c 128,-1,33
 415 903 415 903 405 802 c 0,34,35
 398 729 398 729 397 629 c 0,36,37
 398 590 398 590 399 546 c 0,38,39
 403 392 403 392 430 237 c 1,40,41
 423 301 423 301 423 373 c 0,42,43
 423 480 423 480 440 602 c 0,44,45
 479 881 479 881 614 1049 c 1,46,47
 511 718 511 718 511 368 c 2,48,-1
 511 367 l 2,49,50
 511 227 511 227 535 114 c 1,51,52
 597 211 597 211 597 329 c 0,53,54
 597 362 597 362 592 397 c 0,55,56
 583 460 583 460 552 517 c 1,57,58
 643 434 643 434 691 319 c 0,59,60
 711 273 711 273 716 230 c 1,61,62
 716 239 716 239 716 249 c 0,63,64
 716 396 716 396 664 594 c 0,65,66
 642 679 642 679 611 758 c 1,67,68
 670 707 670 707 721 578 c 0,69,70
 741 526 741 526 755 468 c 1,71,72
 764 663 764 663 830 822 c 1,73,74
 820 699 820 699 820 591 c 0,75,76
 820 403 820 403 850 258 c 0,77,78
 869 166 869 166 901 121 c 1,79,80
 908 231 908 231 908 340 c 0,81,82
 908 643 908 643 856 936 c 0,83,84
 828 1096 828 1096 783 1215 c 1,85,86
 905 1066 905 1066 984 773 c 0,87,88
 1016 655 1016 655 1030 530 c 1,89,90
 1077 689 1077 689 1160 824 c 1,91,92
 1102 608 1102 608 1101 415 c 0,93,94
 1101 394 1101 394 1102 372 c 0,95,96
 1104 316 1104 316 1113 271 c 1,97,98
 1179 321 1179 321 1178 451 c 0,99,100
 1178 456 1178 456 1178 461 c 0,101,102
 1177 517 1177 517 1160 580 c 1,103,104
 1214 489 1214 489 1241 358 c 1,105,106
 1269 470 1269 470 1318 595 c 1,107,108
 1274 261 1274 261 1274 126 c 0,109,110
 1274 117 1274 117 1274 109 c 1,111,112
 1295 140 1295 140 1317 210 c 128,-1,113
 1339 280 1339 280 1348 352 c 0,114,115
 1354 398 1354 398 1355 463 c 0,116,117
 1355 500 1355 500 1353 542 c 0,118,119
 1347 659 1347 659 1318 785 c 1,120,121
 1432 618 1432 618 1432 343 c 0,122,123
 1432 335 1432 335 1432 328 c 0,124,125
 1431 272 1431 272 1424 216 c 1,126,127
 1452 323 1452 323 1452 470 c 0,128,129
 1452 511 1452 511 1450 556 c 0,130,131
 1436 836 1436 836 1310 1075 c 1,132,133
 1385 988 1385 988 1432 886 c 128,-1,134
 1479 784 1479 784 1498 724 c 1,135,136
 1503 840 1503 840 1542 940 c 1,137,138
 1543 937 1543 937 1542 928 c 0,139,140
 1542 912 1542 912 1541 877 c 0,141,142
 1541 870 1541 870 1540 860 c 0,143,144
 1541 794 1541 794 1555 609 c 0,145,146
 1571 397 1571 397 1622 245 c 1,147,148
 1593 345 1593 345 1593 458 c 0,149,150
 1593 502 1593 502 1597 549 c 0,151,152
 1603 616 1603 616 1622 674 c 1,153,154
 1621 642 1621 642 1621 610 c 0,155,156
 1621 382 1621 382 1686 148 c 1,157,158
 1700 197 1700 197 1699 253 c 0,159,160
 1699 308 1699 308 1686 369 c 0,161,162
 1675 418 1675 418 1654 462 c 1,163,164
 1725 386 1725 386 1755 234 c 0,165,166
 1767 175 1767 175 1766 111 c 0,167,168
 1766 109 1766 109 1766 107 c 1,169,170
 1779 230 1779 230 1779 346 c 0,171,172
 1780 422 1780 422 1774 495 c 0,173,174
 1760 680 1760 680 1744 777 c 0,175,176
 1706 1007 1706 1007 1622 1179 c 1,0,1
EndSplineSet
Validated: 33
EndChar

StartChar: uni04FA
Encoding: 1274 1274 140
Width: 956
GlyphClass: 2
Flags: W
LayerCount: 2
Fore
SplineSet
158 1418 m 0,0,1
 137 1438 137 1438 146 1456 c 0,2,3
 151 1467 151 1467 162 1467 c 0,4,5
 176 1467 176 1467 199 1450 c 0,6,7
 239 1419 239 1419 293 1372 c 0,8,9
 378 1299 378 1299 396 1292 c 0,10,11
 418 1283 418 1283 422 1284 c 128,-1,12
 426 1285 426 1285 427 1285 c 2,13,-1
 534 1285 l 1,14,15
 588 1294 588 1294 781 1454 c 0,16,17
 786 1458 786 1458 793 1457.5 c 128,-1,18
 800 1457 800 1457 807 1450 c 0,19,20
 820 1435 820 1435 804 1422 c 0,21,22
 803 1421 803 1421 784 1405 c 0,23,24
 598 1250 598 1250 583 1203 c 1,25,26
 591 1181 591 1181 616 1122 c 1,27,28
 660 1174 660 1174 719.5 1252.5 c 128,-1,29
 779 1331 779 1331 789 1344 c 128,-1,30
 799 1357 799 1357 811 1372 c 0,31,32
 831 1397 831 1397 840 1400.5 c 128,-1,33
 849 1404 849 1404 857 1401 c 128,-1,34
 865 1398 865 1398 867.5 1392 c 128,-1,35
 870 1386 870 1386 870 1381 c 128,-1,36
 870 1376 870 1376 869 1371.5 c 128,-1,37
 868 1367 868 1367 865.5 1361 c 128,-1,38
 863 1355 863 1355 859.5 1349.5 c 128,-1,39
 856 1344 856 1344 851 1336 c 128,-1,40
 846 1328 846 1328 842 1320 c 0,41,42
 828 1300 828 1300 816.5 1281 c 128,-1,43
 805 1262 805 1262 796 1247 c 0,44,45
 753 1177 753 1177 718.5 1124 c 128,-1,46
 684 1071 684 1071 669 1047 c 1,47,48
 688 1050 688 1050 709 1052 c 0,49,50
 737 1056 737 1056 745 1039 c 0,51,52
 746 1038 746 1038 754.5 1020 c 128,-1,53
 763 1002 763 1002 776 973.5 c 128,-1,54
 789 945 789 945 805 911 c 0,55,56
 867 777 867 777 875 752 c 128,-1,57
 883 727 883 727 885.5 719.5 c 128,-1,58
 888 712 888 712 889 709 c 0,59,60
 891 696 891 696 877 684 c 0,61,62
 872 680 872 680 867 680 c 0,63,64
 853 680 853 680 835 707 c 0,65,66
 816 737 816 737 781 811 c 0,67,68
 719 940 719 940 696 975 c 1,69,70
 688 966 688 966 683 958 c 1,71,72
 812 653 812 653 846 542 c 0,73,74
 908 344 908 344 908 252 c 0,75,76
 908 247 908 247 907 242 c 0,77,78
 905 177 905 177 838 102 c 0,79,80
 809 69 809 69 767 46 c 0,81,82
 727 23 727 23 684 23 c 0,83,84
 605 23 605 23 517 100 c 0,85,86
 492 123 492 123 478 138 c 1,87,88
 408 65 408 65 332 37 c 0,89,90
 299 24 299 24 259 24 c 0,91,92
 258 24 258 24 256 24 c 0,93,94
 214 25 214 25 165 61.5 c 128,-1,95
 116 98 116 98 85.5 152.5 c 128,-1,96
 55 207 55 207 52 260 c 0,97,98
 52 267 52 267 52 275 c 0,99,100
 52 322 52 322 65 379 c 0,101,102
 116 606 116 606 269 982 c 0,103,104
 267 985 267 985 264 989 c 1,105,106
 239 951 239 951 181.5 837 c 128,-1,107
 124 723 124 723 108.5 703.5 c 128,-1,108
 93 684 93 684 75 697 c 0,109,110
 60 709 60 709 71 732 c 0,111,112
 73 737 73 737 76.5 747 c 128,-1,113
 80 757 80 757 93 786.5 c 128,-1,114
 106 816 106 816 122 850 c 128,-1,115
 138 884 138 884 156 918 c 0,116,117
 187 981 187 981 201.5 1010 c 128,-1,118
 216 1039 216 1039 218.5 1043.5 c 128,-1,119
 221 1048 221 1048 226 1053 c 128,-1,120
 231 1058 231 1058 237.5 1058.5 c 128,-1,121
 244 1059 244 1059 249 1059 c 128,-1,122
 254 1059 254 1059 262 1057 c 128,-1,123
 270 1055 270 1055 277 1054 c 1,124,125
 263 1078 263 1078 225 1140.5 c 128,-1,126
 187 1203 187 1203 161.5 1247.5 c 128,-1,127
 136 1292 136 1292 129.5 1303.5 c 128,-1,128
 123 1315 123 1315 118.5 1322 c 128,-1,129
 114 1329 114 1329 109 1337.5 c 128,-1,130
 104 1346 104 1346 101.5 1352 c 128,-1,131
 99 1358 99 1358 98 1365 c 0,132,133
 90 1389 90 1389 107 1395 c 0,134,135
 110 1397 110 1397 113 1397 c 0,136,137
 129 1397 129 1397 151 1367 c 0,138,139
 155 1362 155 1362 164.5 1349 c 128,-1,140
 174 1336 174 1336 202 1298 c 128,-1,141
 230 1260 230 1260 272 1203 c 128,-1,142
 314 1146 314 1146 330 1124 c 1,143,144
 356 1185 356 1185 366 1207 c 1,145,146
 339 1249 339 1249 198 1381 c 0,147,148
 191 1389 191 1389 177 1400.5 c 128,-1,149
 163 1412 163 1412 158 1418 c 0,0,1
328 1048 m 1,150,151
 331 1061 331 1061 339 1069 c 1,152,153
 337 1069 337 1069 335 1069 c 0,154,155
 320 1069 320 1069 300 1096 c 0,156,157
 294 1106 294 1106 289 1112 c 1,158,159
 296 1100 296 1100 307 1085 c 0,160,161
 325 1057 325 1057 328 1048 c 1,150,151
426 620 m 2,162,-1
 426 623 l 2,163,164
 426 841 426 841 425 909 c 1,165,166
 410 934 410 934 392 952 c 0,167,168
 338 1003 338 1003 331 1027 c 1,169,170
 324 1011 324 1011 301 1011 c 0,171,172
 298 1011 298 1011 297 1012 c 1,173,174
 300 1008 300 1008 301.5 1005.5 c 128,-1,175
 303 1003 303 1003 305 1000 c 128,-1,176
 307 997 307 997 308 995 c 128,-1,177
 309 993 309 993 310 990 c 0,178,179
 312 984 312 984 309 975 c 0,180,181
 92 444 92 444 92 273 c 0,182,183
 92 268 92 268 92 262 c 0,184,185
 94 218 94 218 120 171.5 c 128,-1,186
 146 125 146 125 187 94.5 c 128,-1,187
 228 64 228 64 260 64 c 0,188,189
 336 64 336 64 421 139 c 0,190,191
 449 164 449 164 463.5 180.5 c 128,-1,192
 478 197 478 197 493 180 c 0,193,194
 555 105 555 105 632 73 c 0,195,196
 658 62 658 62 684 62 c 0,197,198
 717 62 717 62 749 81 c 0,199,200
 814 118 814 118 851 190 c 0,201,202
 867 221 867 221 868 254 c 0,203,204
 868 258 868 258 868 263 c 0,205,206
 868 405 868 405 707 798 c 0,207,208
 681 861 681 861 661.5 908 c 128,-1,209
 642 955 642 955 642 959.5 c 128,-1,210
 642 964 642 964 643 966 c 128,-1,211
 644 968 644 968 645.5 970 c 128,-1,212
 647 972 647 972 649 976 c 0,213,214
 657 992 657 992 672 1006 c 1,215,216
 670 1006 670 1006 661 1004.5 c 128,-1,217
 652 1003 652 1003 646.5 1003 c 128,-1,218
 641 1003 641 1003 634 1003 c 0,219,220
 618 1005 618 1005 615 1020 c 0,221,222
 611 1034 611 1034 621 1049.5 c 128,-1,223
 631 1065 631 1065 644 1083 c 0,224,225
 657 1102 657 1102 680 1138 c 1,226,227
 678 1136 678 1136 676 1133 c 128,-1,228
 674 1130 674 1130 667 1121.5 c 128,-1,229
 660 1113 660 1113 655 1106 c 128,-1,230
 650 1099 650 1099 642 1090 c 0,231,232
 624 1069 624 1069 610 1066 c 1,233,234
 614 1057 614 1057 614 1049 c 0,235,236
 614 1029 614 1029 562 976 c 0,237,238
 530 945 530 945 524 904 c 1,239,240
 523 863 523 863 522 813 c 2,241,-1
 524 618 l 2,242,243
 524 338 524 338 513 259 c 0,244,245
 513 257 513 257 512 249.5 c 128,-1,246
 511 242 511 242 510.5 239 c 128,-1,247
 510 236 510 236 509 229.5 c 128,-1,248
 508 223 508 223 507 219.5 c 128,-1,249
 506 216 506 216 504 210.5 c 128,-1,250
 502 205 502 205 500 202.5 c 128,-1,251
 498 200 498 200 494 197 c 0,252,253
 488 191 488 191 478 191 c 0,254,255
 458 191 458 191 449 212 c 128,-1,256
 440 233 440 233 437 268 c 0,257,258
 426 365 426 365 426 620 c 2,162,-1
EndSplineSet
Validated: 1
EndChar

StartChar: uni04FB
Encoding: 1275 1275 141
Width: 2339
GlyphClass: 2
Flags: W
LayerCount: 2
Fore
SplineSet
1360 616 m 1,0,1
 1174 618 1174 618 993 612 c 1,2,3
 976 555 976 555 976 553 c 0,4,5
 1084 547 1084 547 1210 551 c 128,-1,6
 1336 555 1336 555 1345 554 c 0,7,8
 1368 552 1368 552 1378 566 c 1,9,10
 1378 579 1378 579 1370 595 c 128,-1,11
 1362 611 1362 611 1360 616 c 1,0,1
1404 502 m 1,12,13
 1332 503 1332 503 1184 500 c 128,-1,14
 1036 497 1036 497 969 498 c 1,15,16
 968 467 968 467 969 436 c 1,17,18
 1018 437 1018 437 1107 436 c 0,19,20
 1303 434 1303 434 1407 441 c 0,21,22
 1407 443 1407 443 1404 502 c 1,12,13
1377 323 m 1,23,24
 1378 329 1378 329 1383 347 c 128,-1,25
 1388 365 1388 365 1391 375 c 1,26,27
 1364 386 1364 386 1343 385.5 c 128,-1,28
 1322 385 1322 385 1294 385 c 128,-1,29
 1266 385 1266 385 1189.5 382.5 c 128,-1,30
 1113 380 1113 380 1090 381 c 0,31,32
 1027 383 1027 383 984 375 c 1,33,34
 994 337 994 337 1000 318 c 1,35,36
 1069 311 1069 311 1202 317 c 0,37,38
 1330 320 1330 320 1377 323 c 1,23,24
1051 193 m 1,39,-1
 1326 201 l 1,40,41
 1349 254 1349 254 1351 257 c 1,42,43
 1308 265 1308 265 1251 263.5 c 128,-1,44
 1194 262 1194 262 1185.5 261.5 c 128,-1,45
 1177 261 1177 261 1140 261 c 0,46,47
 1067 259 1067 259 1027 250 c 1,48,49
 1034 228 1034 228 1051 193 c 1,39,-1
1270 125 m 0,50,51
 1274 133 1274 133 1269 139 c 0,52,53
 1261 150 1261 150 1211 150 c 128,-1,54
 1161 150 1161 150 1130 147 c 0,55,56
 1118 145 1118 145 1110 133 c 0,57,58
 1096 111 1096 111 1136 88 c 1,59,60
 1168 83 1168 83 1236 89 c 1,61,62
 1251 97 1251 97 1270 125 c 0,50,51
1740 1364 m 1,63,64
 1708 1331 1708 1331 1608 1270 c 0,65,66
 1609 1268 1609 1268 1611.5 1260.5 c 128,-1,67
 1614 1253 1614 1253 1612.5 1246 c 128,-1,68
 1611 1239 1611 1239 1605.5 1211 c 128,-1,69
 1600 1183 1600 1183 1593 1170.5 c 128,-1,70
 1586 1158 1586 1158 1580.5 1141 c 128,-1,71
 1575 1124 1575 1124 1569 1116 c 0,72,73
 1541 1100 1541 1100 1523 1078 c 1,74,75
 1468 1040 1468 1040 1447 1032 c 128,-1,76
 1426 1024 1426 1024 1422.5 1019.5 c 128,-1,77
 1419 1015 1419 1015 1415.5 1003 c 128,-1,78
 1412 991 1412 991 1410 986 c 128,-1,79
 1408 981 1408 981 1420 965 c 1,80,81
 1430 965 1430 965 1446 973.5 c 128,-1,82
 1462 982 1462 982 1471.5 983 c 128,-1,83
 1481 984 1481 984 1500 992.5 c 128,-1,84
 1519 1001 1519 1001 1526 1003 c 128,-1,85
 1533 1005 1533 1005 1549.5 1011.5 c 128,-1,86
 1566 1018 1566 1018 1588.5 1023.5 c 128,-1,87
 1611 1029 1611 1029 1677.5 1057 c 128,-1,88
 1744 1085 1744 1085 1772 1092 c 128,-1,89
 1800 1099 1800 1099 1847 1117 c 128,-1,90
 1894 1135 1894 1135 1922 1139 c 1,91,92
 1920 1140 1920 1140 1918 1141.5 c 128,-1,93
 1916 1143 1916 1143 1915 1144 c 2,94,-1
 2055 1168 l 1,95,96
 2194 1165 2194 1165 2280 1131 c 1,97,98
 2307 1114 2307 1114 2287 1062 c 0,99,100
 2283 1054 2283 1054 2281.5 1049.5 c 128,-1,101
 2280 1045 2280 1045 2274 1034 c 128,-1,102
 2268 1023 2268 1023 2266.5 1021.5 c 128,-1,103
 2265 1020 2265 1020 2257 1007 c 128,-1,104
 2249 994 2249 994 2244 987 c 0,105,106
 2233 969 2233 969 2181 916.5 c 128,-1,107
 2129 864 2129 864 2092 853 c 1,108,109
 2055 835 2055 835 1990 842 c 1,110,111
 1975 802 1975 802 1970 792 c 0,112,113
 1946 763 1946 763 1914 746 c 128,-1,114
 1882 729 1882 729 1846 704 c 0,115,116
 1757 643 1757 643 1677 654 c 0,117,118
 1670 657 1670 657 1645 663 c 0,119,120
 1558 688 1558 688 1515 710 c 1,121,122
 1488 718 1488 718 1442 741 c 0,123,124
 1374 775 1374 775 1365.5 775 c 128,-1,125
 1357 775 1357 775 1342 768 c 1,126,127
 1345 767 1345 767 1355 764 c 0,128,129
 1369 761 1369 761 1370 758 c 128,-1,130
 1371 755 1371 755 1371 754 c 1,131,132
 1360 755 1360 755 1338 754 c 1,133,134
 1367 748 1367 748 1394 727 c 128,-1,135
 1421 706 1421 706 1440.5 696.5 c 128,-1,136
 1460 687 1460 687 1533.5 665.5 c 128,-1,137
 1607 644 1607 644 1634 634 c 1,138,-1
 1632 609 l 1,139,-1
 1655 599 l 1,140,141
 1650 575 1650 575 1671.5 549 c 128,-1,142
 1693 523 1693 523 1690 499 c 1,143,144
 1695 493 1695 493 1702 478 c 128,-1,145
 1709 463 1709 463 1714 456 c 0,146,147
 1722 450 1722 450 1741 441.5 c 128,-1,148
 1760 433 1760 433 1767 428 c 128,-1,149
 1774 423 1774 423 1780.5 421 c 128,-1,150
 1787 419 1787 419 1791 419 c 128,-1,151
 1795 419 1795 419 1804 419 c 128,-1,152
 1813 419 1813 419 1815 419 c 0,153,154
 1819 407 1819 407 1822 398 c 1,155,156
 1839 396 1839 396 1847 395 c 1,157,158
 1836 369 1836 369 1831 353 c 1,159,160
 1787 353 1787 353 1755.5 371.5 c 128,-1,161
 1724 390 1724 390 1698 407 c 128,-1,162
 1672 424 1672 424 1658 432 c 0,163,164
 1634 452 1634 452 1622.5 476.5 c 128,-1,165
 1611 501 1611 501 1602 523.5 c 128,-1,166
 1593 546 1593 546 1588 555 c 1,167,168
 1573 550 1573 550 1556 561.5 c 128,-1,169
 1539 573 1539 573 1535 575.5 c 128,-1,170
 1531 578 1531 578 1515.5 585.5 c 128,-1,171
 1500 593 1500 593 1494 599 c 0,172,173
 1449 646 1449 646 1392 654 c 1,174,175
 1412 582 1412 582 1464 528 c 0,176,177
 1486 505 1486 505 1505 476 c 128,-1,178
 1524 447 1524 447 1541.5 427 c 128,-1,179
 1559 407 1559 407 1562.5 381.5 c 128,-1,180
 1566 356 1566 356 1569.5 352 c 128,-1,181
 1573 348 1573 348 1583 344 c 0,182,183
 1633 320 1633 320 1635 284 c 0,184,185
 1636 269 1636 269 1637 265 c 0,186,187
 1659 234 1659 234 1683.5 224 c 128,-1,188
 1708 214 1708 214 1723 201 c 128,-1,189
 1738 188 1738 188 1744 185 c 128,-1,190
 1750 182 1750 182 1782 175 c 1,191,192
 1772 157 1772 157 1747 140 c 1,193,-1
 1748 119 l 1,194,-1
 1722 147 l 2,195,196
 1720 146 1720 146 1711 142.5 c 128,-1,197
 1702 139 1702 139 1677.5 162.5 c 128,-1,198
 1653 186 1653 186 1649 189 c 1,199,200
 1648 187 1648 187 1644 183 c 128,-1,201
 1640 179 1640 179 1638 177 c 1,202,203
 1626 203 1626 203 1616 224 c 1,204,205
 1581 229 1581 229 1567.5 248.5 c 128,-1,206
 1554 268 1554 268 1536 308 c 0,207,208
 1532 317 1532 317 1516 321 c 128,-1,209
 1500 325 1500 325 1495.5 332.5 c 128,-1,210
 1491 340 1491 340 1476 360 c 128,-1,211
 1461 380 1461 380 1454 398 c 1,212,213
 1452 397 1452 397 1437.5 394.5 c 128,-1,214
 1423 392 1423 392 1426 377 c 1,215,216
 1412 298 1412 298 1401 267 c 1,217,218
 1395 235 1395 235 1372 199.5 c 128,-1,219
 1349 164 1349 164 1344 155.5 c 128,-1,220
 1339 147 1339 147 1320.5 125.5 c 128,-1,221
 1302 104 1302 104 1286.5 80.5 c 128,-1,222
 1271 57 1271 57 1241.5 39 c 128,-1,223
 1212 21 1212 21 1187.5 20 c 128,-1,224
 1163 19 1163 19 1143.5 31 c 128,-1,225
 1124 43 1124 43 1105 58 c 0,226,227
 1060 98 1060 98 999 200 c 0,228,229
 990 221 990 221 978 260 c 128,-1,230
 966 299 966 299 955 324.5 c 128,-1,231
 944 350 944 350 937 398 c 1,232,233
 914 380 914 380 905 351.5 c 128,-1,234
 896 323 896 323 879.5 309 c 128,-1,235
 863 295 863 295 859 288.5 c 128,-1,236
 855 282 855 282 846 266 c 0,237,238
 817 217 817 217 792 201 c 0,239,240
 792 199 792 199 791 190.5 c 128,-1,241
 790 182 790 182 790 179 c 1,242,243
 780 186 780 186 776 189 c 1,244,245
 752 159 752 159 735 148 c 1,246,247
 734 131 734 131 730 125 c 0,248,249
 726 123 726 123 717 121 c 128,-1,250
 708 119 708 119 703 117 c 0,251,252
 700 111 700 111 696 99.5 c 128,-1,253
 692 88 692 88 691 86 c 1,254,255
 684 98 684 98 681 104 c 1,256,-1
 650 80 l 1,257,258
 643 95 643 95 627 117 c 1,259,260
 632 121 632 121 665.5 145 c 128,-1,261
 699 169 699 169 707.5 179 c 128,-1,262
 716 189 716 189 726.5 197.5 c 128,-1,263
 737 206 737 206 740 222 c 128,-1,264
 743 238 743 238 756 258.5 c 128,-1,265
 769 279 769 279 787.5 301 c 128,-1,266
 806 323 806 323 811.5 334.5 c 128,-1,267
 817 346 817 346 822.5 364.5 c 128,-1,268
 828 383 828 383 834.5 394.5 c 128,-1,269
 841 406 841 406 855 436 c 128,-1,270
 869 466 869 466 877.5 479 c 128,-1,271
 886 492 886 492 904 514.5 c 128,-1,272
 922 537 922 537 928 547 c 128,-1,273
 934 557 934 557 938 572.5 c 128,-1,274
 942 588 942 588 947 599.5 c 128,-1,275
 952 611 952 611 948 619 c 1,276,277
 929 621 929 621 911 605 c 0,278,279
 829 537 829 537 779 529 c 1,280,281
 769 522 769 522 767.5 506 c 128,-1,282
 766 490 766 490 763.5 482 c 128,-1,283
 761 474 761 474 758.5 469 c 128,-1,284
 756 464 756 464 751 455 c 128,-1,285
 746 446 746 446 742 437.5 c 128,-1,286
 738 429 738 429 724.5 419.5 c 128,-1,287
 711 410 711 410 698.5 394 c 128,-1,288
 686 378 686 378 680 374.5 c 128,-1,289
 674 371 674 371 643 350 c 128,-1,290
 612 329 612 329 589.5 323 c 128,-1,291
 567 317 567 317 540 296 c 1,292,293
 534 312 534 312 510 347 c 1,294,295
 513 347 513 347 525.5 348 c 128,-1,296
 538 349 538 349 546 352 c 128,-1,297
 554 355 554 355 580 372.5 c 128,-1,298
 606 390 606 390 623 393 c 1,299,300
 630 405 630 405 645 415 c 128,-1,301
 660 425 660 425 668 431 c 128,-1,302
 676 437 676 437 682.5 461 c 128,-1,303
 689 485 689 485 692 490.5 c 128,-1,304
 695 496 695 496 702.5 512.5 c 128,-1,305
 710 529 710 529 718.5 546 c 128,-1,306
 727 563 727 563 748 576 c 1,307,308
 747 577 747 577 746 582 c 128,-1,309
 745 587 745 587 745 589 c 0,310,311
 742 611 742 611 830 647 c 0,312,313
 849 654 849 654 857 657.5 c 128,-1,314
 865 661 865 661 893.5 667.5 c 128,-1,315
 922 674 922 674 931 677 c 0,316,317
 935 681 935 681 942.5 696.5 c 128,-1,318
 950 712 950 712 961 717 c 128,-1,319
 972 722 972 722 993 727.5 c 128,-1,320
 1014 733 1014 733 1020 734 c 1,321,322
 1012 753 1012 753 1003 771 c 1,323,324
 976 763 976 763 910 731 c 1,325,326
 865 718 865 718 825 681 c 1,327,328
 807 674 807 674 734.5 642 c 128,-1,329
 662 610 662 610 614 615 c 128,-1,330
 566 620 566 620 545 635 c 128,-1,331
 524 650 524 650 514 650.5 c 128,-1,332
 504 651 504 651 492 655.5 c 128,-1,333
 480 660 480 660 464.5 668.5 c 128,-1,334
 449 677 449 677 413 694.5 c 128,-1,335
 377 712 377 712 359 729 c 0,336,337
 354 737 354 737 353.5 750 c 128,-1,338
 353 763 353 763 352 767 c 1,339,340
 349 766 349 766 338 764.5 c 128,-1,341
 327 763 327 763 323 762 c 0,342,343
 261 755 261 755 204 792.5 c 128,-1,344
 147 830 147 830 131.5 844.5 c 128,-1,345
 116 859 116 859 94.5 883 c 128,-1,346
 73 907 73 907 67 913 c 0,347,348
 34 975 34 975 40 1024 c 0,349,350
 39 1032 39 1032 46.5 1038.5 c 128,-1,351
 54 1045 54 1045 55 1046 c 0,352,353
 90 1077 90 1077 156.5 1088 c 128,-1,354
 223 1099 223 1099 306.5 1087.5 c 128,-1,355
 390 1076 390 1076 438 1065 c 128,-1,356
 486 1054 486 1054 496.5 1053 c 128,-1,357
 507 1052 507 1052 523.5 1049.5 c 128,-1,358
 540 1047 540 1047 561.5 1041.5 c 128,-1,359
 583 1036 583 1036 593 1033 c 128,-1,360
 603 1030 603 1030 630.5 1021.5 c 128,-1,361
 658 1013 658 1013 673 1009 c 128,-1,362
 688 1005 688 1005 772.5 980 c 128,-1,363
 857 955 857 955 905 950 c 1,364,365
 905 951 905 951 903 958 c 0,366,367
 897 984 897 984 887.5 986.5 c 128,-1,368
 878 989 878 989 864 992 c 128,-1,369
 850 995 850 995 842.5 1003.5 c 128,-1,370
 835 1012 835 1012 814 1022 c 0,371,372
 789 1034 789 1034 763 1065 c 128,-1,373
 737 1096 737 1096 715 1109 c 1,374,375
 709 1176 709 1176 669 1230 c 0,376,377
 664 1233 664 1233 646 1248 c 128,-1,378
 628 1263 628 1263 616 1267.5 c 128,-1,379
 604 1272 604 1272 579.5 1284.5 c 128,-1,380
 555 1297 555 1297 540 1301 c 1,381,-1
 541 1309 l 2,382,383
 544 1311 544 1311 552.5 1315.5 c 128,-1,384
 561 1320 561 1320 565 1322 c 1,385,386
 563 1342 563 1342 563 1349 c 1,387,388
 584 1341 584 1341 622.5 1317.5 c 128,-1,389
 661 1294 661 1294 682 1286 c 1,390,391
 723 1257 723 1257 741 1237 c 1,392,393
 752 1217 752 1217 762 1188.5 c 128,-1,394
 772 1160 772 1160 774 1154 c 1,395,396
 813 1152 813 1152 838 1155 c 1,397,398
 838 1151 838 1151 839 1146 c 1,399,400
 830 1136 830 1136 827 1131 c 1,401,402
 852 1097 852 1097 886 1082 c 1,403,404
 892 1068 892 1068 900 1050 c 1,405,-1
 921 1064 l 1,406,407
 933 1054 933 1054 972 1037 c 1,408,409
 976 1074 976 1074 952 1122 c 0,410,411
 949 1136 949 1136 954.5 1162 c 128,-1,412
 960 1188 960 1188 961 1195 c 1,413,414
 971 1199 971 1199 987 1204 c 1,415,416
 990 1221 990 1221 1002 1236 c 128,-1,417
 1014 1251 1014 1251 1015 1252 c 0,418,419
 1008 1263 1008 1263 992 1270 c 128,-1,420
 976 1277 976 1277 954.5 1287 c 128,-1,421
 933 1297 933 1297 901.5 1321.5 c 128,-1,422
 870 1346 870 1346 844 1359.5 c 128,-1,423
 818 1373 818 1373 811.5 1377.5 c 128,-1,424
 805 1382 805 1382 802 1385 c 128,-1,425
 799 1388 799 1388 796.5 1392.5 c 128,-1,426
 794 1397 794 1397 793 1399 c 128,-1,427
 792 1401 792 1401 790 1407.5 c 128,-1,428
 788 1414 788 1414 787 1415 c 1,429,430
 823 1423 823 1423 879 1385 c 0,431,432
 888 1379 888 1379 894 1375.5 c 128,-1,433
 900 1372 900 1372 938 1344 c 128,-1,434
 976 1316 976 1316 995.5 1308.5 c 128,-1,435
 1015 1301 1015 1301 1045.5 1286 c 128,-1,436
 1076 1271 1076 1271 1092 1265 c 1,437,438
 1099 1267 1099 1267 1114.5 1278 c 128,-1,439
 1130 1289 1130 1289 1141 1289.5 c 128,-1,440
 1152 1290 1152 1290 1165 1288.5 c 128,-1,441
 1178 1287 1178 1287 1197 1284.5 c 128,-1,442
 1216 1282 1216 1282 1222.5 1283 c 128,-1,443
 1229 1284 1229 1284 1245.5 1295.5 c 128,-1,444
 1262 1307 1262 1307 1280.5 1314 c 128,-1,445
 1299 1321 1299 1321 1337.5 1355.5 c 128,-1,446
 1376 1390 1376 1390 1391 1400 c 0,447,448
 1421 1428 1421 1428 1491 1454 c 1,449,450
 1492 1432 1492 1432 1479.5 1419.5 c 128,-1,451
 1467 1407 1467 1407 1452 1396 c 128,-1,452
 1437 1385 1437 1385 1426 1377 c 128,-1,453
 1415 1369 1415 1369 1374 1334.5 c 128,-1,454
 1333 1300 1333 1300 1316 1289 c 128,-1,455
 1299 1278 1299 1278 1251 1244 c 1,456,457
 1257 1241 1257 1241 1282 1233 c 0,458,459
 1348 1210 1348 1210 1352 1177 c 0,460,461
 1353 1166 1353 1166 1351.5 1156.5 c 128,-1,462
 1350 1147 1350 1147 1350.5 1138 c 128,-1,463
 1351 1129 1351 1129 1352 1125.5 c 128,-1,464
 1353 1122 1353 1122 1350.5 1115.5 c 128,-1,465
 1348 1109 1348 1109 1347 1106 c 128,-1,466
 1346 1103 1346 1103 1342.5 1097.5 c 128,-1,467
 1339 1092 1339 1092 1337.5 1089 c 128,-1,468
 1336 1086 1336 1086 1332 1080.5 c 128,-1,469
 1328 1075 1328 1075 1327 1072 c 2,470,-1
 1338 1064 l 1,471,472
 1372 1083 1372 1083 1402 1070 c 0,473,474
 1404 1073 1404 1073 1408 1084 c 0,475,476
 1415 1099 1415 1099 1438 1120 c 128,-1,477
 1461 1141 1461 1141 1470.5 1152.5 c 128,-1,478
 1480 1164 1480 1164 1489.5 1169 c 128,-1,479
 1499 1174 1499 1174 1514 1177.5 c 128,-1,480
 1529 1181 1529 1181 1535 1183 c 0,481,482
 1535 1187 1535 1187 1535 1200 c 0,483,484
 1538 1258 1538 1258 1558.5 1278.5 c 128,-1,485
 1579 1299 1579 1299 1583 1312 c 1,486,487
 1593 1326 1593 1326 1638.5 1349 c 128,-1,488
 1684 1372 1684 1372 1702 1390 c 1,489,490
 1709 1386 1709 1386 1721 1377 c 128,-1,491
 1733 1368 1733 1368 1740 1364 c 1,63,64
EndSplineSet
Validated: 33
EndChar

StartChar: uni04FC
Encoding: 1276 1276 142
Width: 1604
GlyphClass: 2
Flags: W
LayerCount: 2
Fore
SplineSet
523 456 m 2,0,-1
 546 434 l 2,1,2
 547 432 547 432 554 423.5 c 128,-1,3
 561 415 561 415 561 393.5 c 128,-1,4
 561 372 561 372 554 363.5 c 128,-1,5
 547 355 547 355 546 353 c 2,6,-1
 453 260 l 2,7,8
 436 243 436 243 411 244 c 1,9,10
 579 100 579 100 802 100 c 0,11,12
 1024 100 1024 100 1195 244 c 1,13,14
 1167 241 1167 241 1148 260 c 2,15,-1
 1055 353 l 2,16,17
 1039 369 1039 369 1039 393.5 c 128,-1,18
 1039 418 1039 418 1055 434 c 2,19,-1
 1079 458 l 2,20,21
 1095 474 1095 474 1119 474 c 128,-1,22
 1143 474 1143 474 1159 458 c 2,23,-1
 1252 365 l 2,24,25
 1269 348 1269 348 1269 334.5 c 128,-1,26
 1269 321 1269 321 1269 318 c 1,27,28
 1409 484 1409 484 1409 706 c 0,29,30
 1409 932 1409 932 1265 1100 c 1,31,32
 1268 1072 1268 1072 1249 1053 c 2,33,-1
 1156 960 l 2,34,35
 1140 944 1140 944 1116 944 c 128,-1,36
 1092 944 1092 944 1076 960 c 0,37,38
 1044 992 1044 992 1044 992 c 2,39,40
 1035 1002 1035 1002 1035 1025 c 128,-1,41
 1035 1048 1035 1048 1051 1064 c 2,42,-1
 1144 1157 l 2,43,44
 1161 1174 1161 1174 1174 1174 c 128,-1,45
 1187 1174 1187 1174 1190 1174 c 1,46,47
 1031 1306 1031 1306 824 1314 c 1,48,49
 844 1312 844 1312 858.5 1296 c 128,-1,50
 873 1280 873 1280 873 1258 c 2,51,-1
 873 1140 l 2,52,53
 873 1116 873 1116 856.5 1100 c 128,-1,54
 840 1084 840 1084 817 1084 c 2,55,-1
 776 1084 l 2,56,57
 749 1084 749 1084 735 1101 c 128,-1,58
 721 1118 721 1118 721 1140 c 2,59,-1
 721 1258 l 2,60,61
 721 1282 721 1282 735 1296 c 128,-1,62
 749 1310 749 1310 764 1313 c 1,63,64
 566 1300 566 1300 415 1174 c 1,65,66
 438 1175 438 1175 456 1157 c 2,67,-1
 549 1064 l 2,68,69
 565 1048 565 1048 565 1024 c 0,70,71
 565 999 565 999 548 983 c 2,72,-1
 525 961 l 2,73,74
 507 944 507 944 485 944 c 0,75,76
 462 944 462 944 444 962 c 2,77,-1
 352 1053 l 2,78,79
 351 1055 351 1055 344 1063 c 0,80,81
 336 1072 336 1072 336 1095 c 1,82,83
 223 959 223 959 200 782 c 1,84,85
 214 792 214 792 231 792 c 2,86,-1
 350 792 l 2,87,88
 375 792 375 792 390 774.5 c 128,-1,89
 405 757 405 757 405 735 c 2,90,-1
 405 695 l 2,91,92
 405 671 405 671 389 654.5 c 128,-1,93
 373 638 373 638 350 638 c 2,94,-1
 231 638 l 2,95,96
 212 638 212 638 198 649 c 1,97,98
 216 465 216 465 332 323 c 1,99,100
 332 346 332 346 340 355 c 0,101,102
 347 363 347 363 348 365 c 2,103,-1
 441 458 l 2,104,105
 457 474 457 474 482 474 c 0,106,107
 504 474 504 474 523 456 c 2,0,-1
863 572 m 1,108,109
 835 561 835 561 802 561 c 128,-1,110
 769 561 769 561 737 578 c 0,111,112
 658 619 658 619 658 710 c 0,113,114
 658 745 658 745 681 788 c 128,-1,115
 704 831 704 831 763 849 c 0,116,117
 786 856 786 856 814.5 856 c 128,-1,118
 843 856 843 856 877 838 c 0,119,120
 936 807 936 807 951 737 c 1,121,-1
 1274 502 l 2,122,123
 1286 493 1286 493 1288.5 477.5 c 128,-1,124
 1291 462 1291 462 1283 451 c 0,125,126
 1265 427 1265 427 1239 437 c 2,127,-1
 863 572 l 1,108,109
1339 792 m 2,128,129
 1363 792 1363 792 1379 775.5 c 128,-1,130
 1395 759 1395 759 1395 735 c 2,131,-1
 1395 695 l 2,132,133
 1395 671 1395 671 1379 654.5 c 128,-1,134
 1363 638 1363 638 1339 638 c 2,135,-1
 1221 638 l 2,136,137
 1197 638 1197 638 1181 654.5 c 128,-1,138
 1165 671 1165 671 1165 695 c 2,139,-1
 1165 735 l 2,140,141
 1165 759 1165 759 1181 775.5 c 128,-1,142
 1197 792 1197 792 1221 792 c 2,143,-1
 1339 792 l 2,128,129
802.5 1442 m 128,-1,145
 902 1442 902 1442 997.5 1415.5 c 128,-1,146
 1093 1389 1093 1389 1173.5 1341.5 c 128,-1,147
 1254 1294 1254 1294 1322 1226 c 128,-1,148
 1390 1158 1390 1158 1437.5 1077.5 c 128,-1,149
 1485 997 1485 997 1511 901.5 c 128,-1,150
 1537 806 1537 806 1537 706.5 c 128,-1,151
 1537 607 1537 607 1511 511.5 c 128,-1,152
 1485 416 1485 416 1438 336 c 0,153,154
 1390 256 1390 256 1322 188 c 0,155,156
 1107 -27 1107 -27 802 -28 c 2,157,158
 802 -28 802 -28 801 -28 c 0,159,160
 499 -28 499 -28 283 188 c 0,161,162
 145 326 145 326 94 512 c 0,163,164
 67 610 67 610 67 704 c 0,165,166
 67 708 67 708 67 711 c 0,167,168
 67 806 67 806 94 902 c 0,169,170
 120 997 120 997 167.5 1077.5 c 128,-1,171
 215 1158 215 1158 283 1226 c 128,-1,172
 351 1294 351 1294 431.5 1341.5 c 128,-1,173
 512 1389 512 1389 607.5 1415.5 c 128,-1,144
 703 1442 703 1442 802.5 1442 c 128,-1,145
EndSplineSet
Validated: 1
EndChar

StartChar: uni04FD
Encoding: 1277 1277 143
Width: 836
GlyphClass: 2
Flags: W
LayerCount: 2
Fore
SplineSet
582 1219 m 0,0,1
 585 1219 585 1219 598.5 1219 c 128,-1,2
 612 1219 612 1219 618 1219 c 128,-1,3
 624 1219 624 1219 637 1218 c 128,-1,4
 650 1217 650 1217 658 1215.5 c 128,-1,5
 666 1214 666 1214 676 1210.5 c 128,-1,6
 686 1207 686 1207 693 1203 c 0,7,8
 713 1191 713 1191 722.5 1169 c 128,-1,9
 732 1147 732 1147 733.5 1133.5 c 128,-1,10
 735 1120 735 1120 735 1090 c 2,11,-1
 735 156 l 2,12,13
 735 153 735 153 735 137 c 0,14,15
 736 129 736 129 736 123 c 0,16,17
 735 118 735 118 735 115 c 0,18,19
 735 109 735 109 734 94.5 c 128,-1,20
 733 80 733 80 730.5 71.5 c 128,-1,21
 728 63 728 63 723.5 52.5 c 128,-1,22
 719 42 719 42 712 34 c 0,23,24
 705 25 705 25 694 18.5 c 128,-1,25
 683 12 683 12 674 9 c 128,-1,26
 665 6 665 6 649 4 c 128,-1,27
 633 2 633 2 627 2 c 0,28,29
 623 2 623 2 616 2 c 0,30,31
 610 2 610 2 602 2 c 0,32,33
 585 2 585 2 582 2 c 2,34,-1
 238 2 l 2,35,36
 236 2 236 2 223 2 c 128,-1,37
 210 2 210 2 206 2.5 c 128,-1,38
 202 3 202 3 190.5 3.5 c 128,-1,39
 179 4 179 4 173 5.5 c 128,-1,40
 167 7 167 7 158 9.5 c 128,-1,41
 149 12 149 12 141.5 16 c 128,-1,42
 134 20 134 20 128 25 c 0,43,44
 119 33 119 33 112.5 44 c 128,-1,45
 106 55 106 55 103 63.5 c 128,-1,46
 100 72 100 72 98 88 c 128,-1,47
 96 104 96 104 96 110.5 c 128,-1,48
 96 117 96 117 96 135 c 128,-1,49
 96 153 96 153 96 156 c 2,50,-1
 96 930 l 2,51,52
 96 936 96 936 95 982 c 0,53,54
 94 1020 94 1020 94 1048 c 0,55,56
 94 1054 94 1054 94 1059 c 0,57,58
 95 1089 95 1089 99 1125.5 c 128,-1,59
 103 1162 103 1162 112 1176 c 0,60,61
 116 1184 116 1184 121 1189 c 128,-1,62
 126 1194 126 1194 129 1196.5 c 128,-1,63
 132 1199 132 1199 139 1203 c 128,-1,64
 146 1207 146 1207 150 1209 c 2,65,-1
 151 1209 l 1,66,67
 176 1216 176 1216 239 1219 c 0,68,69
 297 1221 297 1221 349 1221 c 2,70,-1
 357 1221 l 2,71,72
 413 1221 413 1221 489.5 1220 c 128,-1,73
 566 1219 566 1219 582 1219 c 0,0,1
195 1120 m 1,74,-1
 195 113 l 1,75,-1
 637 113 l 1,76,-1
 637 150 l 1,77,-1
 575 150 l 1,78,-1
 575 223 l 1,79,-1
 637 223 l 1,80,-1
 637 260 l 1,81,-1
 477 260 l 1,82,-1
 477 359 l 1,83,-1
 637 359 l 1,84,-1
 637 395 l 1,85,-1
 575 395 l 1,86,-1
 575 469 l 1,87,-1
 637 469 l 1,88,-1
 637 506 l 1,89,-1
 367 506 l 1,90,-1
 367 604 l 1,91,-1
 637 604 l 1,92,-1
 637 641 l 1,93,-1
 575 641 l 1,94,-1
 575 715 l 1,95,-1
 637 715 l 1,96,-1
 637 752 l 1,97,-1
 477 752 l 1,98,-1
 477 850 l 1,99,-1
 637 850 l 1,100,-1
 637 887 l 1,101,-1
 575 887 l 1,102,-1
 575 961 l 1,103,-1
 637 961 l 1,104,-1
 637 998 l 1,105,-1
 379 998 l 1,106,-1
 379 1096 l 1,107,-1
 637 1096 l 1,108,-1
 637 1120 l 1,109,-1
 195 1120 l 1,74,-1
EndSplineSet
Validated: 1
EndChar

StartChar: uni04FE
Encoding: 1278 1278 144
Width: 1372
GlyphClass: 2
Flags: W
LayerCount: 2
Fore
SplineSet
1303 886 m 0,0,1
 1303 535 1303 535 1132.5 299 c 128,-1,2
 962 63 962 63 682 -3 c 1,3,4
 403 64 403 64 232.5 298.5 c 128,-1,5
 62 533 62 533 62 879 c 2,6,-1
 62 886 l 2,7,8
 62 1014 62 1014 110.5 1118.5 c 128,-1,9
 159 1223 159 1223 218 1277 c 1,10,11
 348 1198 348 1198 473 1198 c 128,-1,12
 598 1198 598 1198 682 1276 c 1,13,14
 764 1198 764 1198 890 1198 c 0,15,16
 891 1198 891 1198 892 1198 c 0,17,18
 1017 1198 1017 1198 1147 1277 c 1,19,20
 1205 1223 1205 1223 1254 1118.5 c 128,-1,21
 1303 1014 1303 1014 1303 886 c 0,0,1
616 606 m 0,22,23
 605 627 605 627 605 659.5 c 128,-1,24
 605 692 605 692 635.5 715 c 128,-1,25
 666 738 666 738 701.5 738 c 128,-1,26
 737 738 737 738 760 705 c 128,-1,27
 783 672 783 672 783 660 c 2,28,-1
 783 646 l 2,29,30
 783 606 783 606 752.5 583 c 128,-1,31
 722 560 722 560 697 560 c 2,32,-1
 692 560 l 2,33,34
 648 560 648 560 616 606 c 0,22,23
812 649 m 1,35,36
 812 712 812 712 751 750 c 1,37,-1
 868 953 l 1,38,39
 939 908 939 908 996 828 c 1,40,41
 1049 746 1049 746 1050 649 c 1,42,-1
 812 649 l 1,35,36
630 746 m 0,43,44
 577 704 577 704 577 652 c 2,45,-1
 577 649 l 1,46,-1
 339 649 l 1,47,-1
 339 658 l 2,48,49
 339 820 339 820 499 942 c 0,50,51
 510 948 510 948 520 955 c 1,52,-1
 637 750 l 1,53,54
 633 748 633 748 630 746 c 0,43,44
715 293 m 2,55,-1
 690 293 l 2,56,57
 596 293 596 293 517 343 c 1,58,-1
 634 548 l 1,59,60
 660 531 660 531 677 531 c 2,61,-1
 697 531 l 2,62,63
 724 531 724 531 751 547 c 1,64,-1
 870 342 l 1,65,66
 792 293 792 293 715 293 c 2,55,-1
1112 640 m 2,67,-1
 1112 645 l 2,68,69
 1112 763 1112 763 1049 859 c 1,70,71
 901 1067 901 1067 687 1067 c 0,72,73
 568 1067 568 1067 464 994 c 1,74,75
 275 852 275 852 275 662 c 2,76,-1
 275 643 l 2,77,78
 275 544 275 544 330 446 c 1,79,80
 475 230 475 230 688 230 c 0,81,82
 698 230 698 230 708 230 c 0,83,84
 834 230 834 230 936 312 c 0,85,86
 1112 453 1112 453 1112 640 c 2,67,-1
EndSplineSet
Validated: 1
EndChar

StartChar: uni04FF
Encoding: 1279 1279 145
Width: 1370
GlyphClass: 2
Flags: W
LayerCount: 2
Fore
SplineSet
657 1242 m 1,0,-1
 714 1242 l 1,1,-1
 714 1025 l 1,2,-1
 657 1025 l 1,3,-1
 657 1242 l 1,0,-1
654 181 m 1,4,-1
 711 181 l 1,5,-1
 711 -38 l 1,6,-1
 654 -38 l 1,7,-1
 654 181 l 1,4,-1
1109 645 m 1,8,-1
 1327 645 l 1,9,-1
 1327 588 l 1,10,-1
 1109 588 l 1,11,-1
 1109 645 l 1,8,-1
44 649 m 1,12,-1
 261 649 l 1,13,-1
 261 591 l 1,14,-1
 44 591 l 1,15,-1
 44 649 l 1,12,-1
127 918 m 1,16,-1
 154 968 l 1,17,-1
 344 861 l 1,18,-1
 317 811 l 1,19,-1
 127 918 l 1,16,-1
357 1150 m 1,20,-1
 404 1181 l 1,21,-1
 519 996 l 1,22,-1
 471 965 l 1,23,-1
 357 1150 l 1,20,-1
874 230 m 1,24,-1
 924 258 l 1,25,-1
 1034 69 l 1,26,-1
 984 40 l 1,27,-1
 874 230 l 1,24,-1
1041 382 m 1,28,-1
 1069 432 l 1,29,-1
 1261 326 l 1,30,-1
 1231 276 l 1,31,-1
 1041 382 l 1,28,-1
391 38 m 1,32,-1
 341 66 l 1,33,-1
 447 256 l 1,34,-1
 497 229 l 1,35,-1
 391 38 l 1,32,-1
137 280 m 1,36,-1
 107 329 l 1,37,-1
 291 445 l 1,38,-1
 324 396 l 1,39,-1
 137 280 l 1,36,-1
1061 792 m 1,40,-1
 1034 842 l 1,41,-1
 1221 951 l 1,42,-1
 1251 902 l 1,43,-1
 1061 792 l 1,40,-1
917 956 m 1,44,-1
 867 985 l 1,45,-1
 971 1175 l 1,46,-1
 1021 1148 l 1,47,-1
 917 956 l 1,44,-1
331 603.5 m 128,-1,49
 331 676 331 676 358.5 741.5 c 128,-1,50
 386 807 386 807 433.5 854.5 c 128,-1,51
 481 902 481 902 547.5 930.5 c 128,-1,52
 614 959 614 959 686.5 959 c 128,-1,53
 759 959 759 959 824 930.5 c 128,-1,54
 889 902 889 902 936.5 854.5 c 128,-1,55
 984 807 984 807 1012.5 741.5 c 128,-1,56
 1041 676 1041 676 1041 603.5 c 128,-1,57
 1041 531 1041 531 1012.5 465.5 c 128,-1,58
 984 400 984 400 936.5 352.5 c 128,-1,59
 889 305 889 305 824 277 c 128,-1,60
 759 249 759 249 686.5 249 c 128,-1,61
 614 249 614 249 547.5 277 c 128,-1,62
 481 305 481 305 433.5 352.5 c 128,-1,63
 386 400 386 400 358.5 465.5 c 128,-1,48
 331 531 331 531 331 603.5 c 128,-1,49
EndSplineSet
Validated: 1
EndChar

StartChar: uni0500
Encoding: 1280 1280 146
Width: 747
GlyphClass: 2
Flags: W
LayerCount: 2
Fore
SplineSet
622 585 m 1,0,1
 706 490 706 490 706 332 c 0,2,3
 706 111 706 111 575 19 c 0,4,5
 510 -27 510 -27 439 -31 c 1,6,7
 460 38 460 38 483.5 161 c 128,-1,8
 507 284 507 284 508 402 c 1,9,10
 565 432 565 432 595 492.5 c 128,-1,11
 625 553 625 553 625 567 c 128,-1,12
 625 581 625 581 622 585 c 1,0,1
326 626 m 1,13,14
 346 612 346 612 358 601 c 0,15,16
 424 542 424 542 424 328 c 0,17,18
 424 188 424 188 408 96 c 128,-1,19
 392 4 392 4 386 -28 c 1,20,-1
 384 -32 l 1,21,22
 241 -27 241 -27 159 96 c 0,23,24
 117 158 117 158 117 238.5 c 128,-1,25
 117 319 117 319 157 416 c 0,26,27
 218 566 218 566 326 626 c 1,13,14
368 1111 m 0,28,29
 368 1179 368 1179 313 1179 c 0,30,31
 246 1179 246 1179 187 1143.5 c 128,-1,32
 128 1108 128 1108 128 1046 c 0,33,34
 128 930 128 930 306 834 c 1,35,36
 453 761 453 761 507.5 707.5 c 128,-1,37
 562 654 562 654 562 617 c 0,38,39
 562 548 562 548 494 488 c 1,40,41
 469 595 469 595 411.5 654.5 c 128,-1,42
 354 714 354 714 249 771 c 1,43,44
 137 838 137 838 105 874 c 0,45,46
 39 949 39 949 39 1028 c 0,47,48
 39 1070 39 1070 60 1112 c 0,49,50
 125 1247 125 1247 300 1247 c 0,51,52
 427 1247 427 1247 458 1142 c 0,53,54
 462 1130 462 1130 460 1091.5 c 128,-1,55
 458 1053 458 1053 471.5 1036.5 c 128,-1,56
 485 1020 485 1020 534.5 1009 c 128,-1,57
 584 998 584 998 586 989 c 0,58,59
 590 975 590 975 549.5 965.5 c 128,-1,60
 509 956 509 956 484 956 c 128,-1,61
 459 956 459 956 428 958 c 128,-1,62
 397 960 397 960 388 978 c 0,63,64
 368 1020 368 1020 368 1111 c 0,28,29
EndSplineSet
Validated: 1
EndChar

StartChar: uni0501
Encoding: 1281 1281 147
Width: 1158
GlyphClass: 2
Flags: W
LayerCount: 2
Fore
SplineSet
62 455 m 1,0,1
 67 494 67 494 72 554 c 0,2,3
 92 790 92 790 132 891 c 128,-1,4
 172 992 172 992 241.5 1060 c 128,-1,5
 311 1128 311 1128 374 1154 c 0,6,7
 472 1190 472 1190 574 1190 c 0,8,9
 584 1190 584 1190 594 1190 c 0,10,11
 706 1186 706 1186 812 1141 c 1,12,13
 914 1074 914 1074 983 920 c 0,14,15
 994 896 994 896 1034 802 c 128,-1,16
 1074 708 1074 708 1114 540 c 1,17,-1
 62 455 l 1,0,1
610 6 m 2,18,-1
 560 8 l 2,19,20
 548 10 548 10 511.5 11.5 c 128,-1,21
 475 13 475 13 455 18 c 0,22,23
 419 26 419 26 417 70 c 1,24,25
 396 171 396 171 396 286 c 128,-1,26
 396 401 396 401 397 444 c 1,27,-1
 730 471 l 1,28,29
 774 323 774 323 774 198.5 c 128,-1,30
 774 74 774 74 732 40 c 128,-1,31
 690 6 690 6 610 6 c 2,18,-1
EndSplineSet
Validated: 1
EndChar

StartChar: uni0502
Encoding: 1282 1282 148
Width: 1156
GlyphClass: 2
Flags: W
LayerCount: 2
Fore
SplineSet
824 941 m 128,-1,1
 824 920 824 920 800 893 c 0,2,3
 790 882 790 882 747 882 c 128,-1,4
 704 882 704 882 686 876 c 1,5,6
 676 866 676 866 648 828 c 0,7,8
 570 724 570 724 523 724 c 0,9,10
 502 724 502 724 487 737.5 c 128,-1,11
 472 751 472 751 472 770 c 0,12,13
 472 814 472 814 547 885 c 0,14,15
 570 908 570 908 580 923 c 1,16,17
 578 928 578 928 551 955 c 128,-1,18
 524 982 524 982 524 1014.5 c 128,-1,19
 524 1047 524 1047 546.5 1073 c 128,-1,20
 569 1099 569 1099 581.5 1099 c 128,-1,21
 594 1099 594 1099 597 1098 c 2,22,-1
 601 1098 l 1,23,24
 630 1092 630 1092 648 1057 c 0,25,26
 652 1049 652 1049 660 1033.5 c 128,-1,27
 668 1018 668 1018 674 1006 c 128,-1,28
 680 994 680 994 704.5 1000 c 128,-1,29
 729 1006 729 1006 754.5 1006.5 c 128,-1,30
 780 1007 780 1007 802 984.5 c 128,-1,0
 824 962 824 962 824 941 c 128,-1,1
882 940 m 0,31,32
 882 1146 882 1146 703 1146 c 0,33,34
 516 1146 516 1146 306 894 c 0,35,36
 206 774 206 774 206 704.5 c 128,-1,37
 206 635 206 635 250 558 c 128,-1,38
 294 481 294 481 294 408 c 128,-1,39
 294 335 294 335 276.5 273.5 c 128,-1,40
 259 212 259 212 259 190.5 c 128,-1,41
 259 169 259 169 262.5 164.5 c 128,-1,42
 266 160 266 160 282 160 c 2,43,-1
 284 160 l 2,44,45
 385 160 385 160 518 257 c 128,-1,46
 651 354 651 354 706 443 c 0,47,48
 812 616 812 616 863 803 c 0,49,50
 882 875 882 875 882 940 c 0,31,32
150 65 m 0,51,52
 125 90 125 90 122 155 c 2,53,-1
 122 164 l 2,54,55
 122 201 122 201 133 267.5 c 128,-1,56
 144 334 144 334 144 390.5 c 128,-1,57
 144 447 144 447 119 492 c 0,58,59
 60 599 60 599 60 696.5 c 128,-1,60
 60 794 60 794 172 955 c 0,61,62
 196 990 196 990 240 1050.5 c 128,-1,63
 284 1111 284 1111 353 1166 c 0,64,65
 524 1302 524 1302 701 1302 c 128,-1,66
 878 1302 878 1302 972 1187 c 2,67,-1
 1059 1075 l 2,68,69
 1083 1043 1083 1043 1086 880 c 2,70,-1
 1086 864 l 2,71,72
 1086 643 1086 643 1013.5 451 c 128,-1,73
 941 259 941 259 749 102 c 1,74,75
 456 -51 456 -51 381 -51 c 0,76,77
 375 -51 375 -51 371 -50 c 0,78,79
 282 -50 282 -50 230 -6 c 2,80,-1
 152 64 l 2,81,82
 151 65 151 65 150 65 c 0,51,52
EndSplineSet
Validated: 1
EndChar

StartChar: uni0503
Encoding: 1283 1283 149
Width: 893
GlyphClass: 2
Flags: W
LayerCount: 2
Fore
SplineSet
326 -39.5 m 128,-1,1
 328 -36 328 -36 381.5 51.5 c 128,-1,2
 435 139 435 139 435 152 c 128,-1,3
 435 165 435 165 429.5 169.5 c 128,-1,4
 424 174 424 174 381.5 199 c 128,-1,5
 339 224 339 224 277.5 268.5 c 128,-1,6
 216 313 216 313 153 394 c 0,7,8
 63 510 63 510 63 627.5 c 128,-1,9
 63 745 63 745 124 848 c 1,10,11
 180 954 180 954 297.5 1124 c 128,-1,12
 415 1294 415 1294 512 1371 c 1,13,14
 512 1366 512 1366 505 1332 c 128,-1,15
 498 1298 498 1298 498 1255 c 0,16,17
 498 1128 498 1128 581 1072 c 1,18,19
 680 988 680 988 719 930 c 0,20,21
 831 766 831 766 831 634 c 2,22,-1
 831 629 l 2,23,24
 831 536 831 536 798 465 c 0,25,26
 728 312 728 312 547 169 c 1,27,28
 474 -33 474 -33 459 -53.5 c 128,-1,29
 444 -74 444 -74 422 -74 c 0,30,31
 343 -74 343 -74 327 -48 c 0,32,0
 324 -43 324 -43 326 -39.5 c 128,-1,1
EndSplineSet
Validated: 1
EndChar

StartChar: uni0504
Encoding: 1284 1284 150
Width: 1493
GlyphClass: 2
Flags: W
LayerCount: 2
Fore
SplineSet
782 -94 m 2,0,-1
 742 -89 l 2,1,2
 728 -89 728 -89 717.5 -91.5 c 128,-1,3
 707 -94 707 -94 701.5 -93 c 128,-1,4
 696 -92 696 -92 698 -86 c 128,-1,5
 700 -80 700 -80 701.5 -72 c 128,-1,6
 703 -64 703 -64 711 -44 c 128,-1,7
 719 -24 719 -24 740 -24 c 128,-1,8
 761 -24 761 -24 779 -59 c 128,-1,9
 797 -94 797 -94 782 -94 c 2,0,-1
1445 1018 m 0,10,11
 1411 918 1411 918 1395 918 c 2,12,-1
 1393 918 l 2,13,14
 1390 918 1390 918 1387 922 c 0,15,16
 1358 968 1358 968 1281 977 c 2,17,-1
 785 1026 l 2,18,19
 782 1024 782 1024 785 1021 c 2,20,-1
 1280 936 l 2,21,22
 1393 916 1393 916 1393 809 c 2,23,-1
 1393 772 l 2,24,25
 1393 748 1393 748 1390 747 c 0,26,27
 1311 657 1311 657 1273 657 c 1,28,-1
 1272 658 l 1,29,30
 1255 658 1255 658 1235.5 659.5 c 128,-1,31
 1216 661 1216 661 1175 691 c 2,32,-1
 767 985 l 2,33,34
 753 995 753 995 742.5 995 c 128,-1,35
 732 995 732 995 718 985 c 2,36,-1
 311 691 l 2,37,38
 264 658 264 658 230 658 c 0,39,40
 169 658 169 658 95 747 c 0,41,42
 91 753 91 753 91 798.5 c 128,-1,43
 91 844 91 844 103 870 c 0,44,45
 126 922 126 922 206 936 c 2,46,-1
 701 1021 l 2,47,48
 703 1024 703 1024 701 1026 c 2,49,-1
 700 1026 l 1,50,-1
 203 977 l 2,51,52
 126 970 126 970 97 922 c 0,53,54
 95 918 95 918 91 918 c 0,55,56
 74 918 74 918 41 1018 c 0,57,58
 41 1020 41 1020 40.5 1021 c 128,-1,59
 40 1022 40 1022 45 1036.5 c 128,-1,60
 50 1051 50 1051 56 1069 c 0,61,62
 90 1166 90 1166 158 1166 c 0,63,64
 190 1166 190 1166 216 1160 c 2,65,-1
 710 1052 l 2,66,67
 728 1048 728 1048 744.5 1048 c 128,-1,68
 761 1048 761 1048 776 1052 c 2,69,-1
 1268 1160 l 2,70,71
 1295 1166 1295 1166 1316 1166 c 0,72,73
 1399 1166 1399 1166 1436 1050 c 0,74,75
 1445 1022 1445 1022 1445 1018 c 0,10,11
758 16 m 2,76,77
 758 -4 758 -4 743 -4 c 0,78,79
 735 -4 735 -4 730.5 1 c 128,-1,80
 726 6 726 6 727 11 c 2,81,-1
 727 16 l 1,82,-1
 675 916 l 1,83,84
 724 975 724 975 742 975 c 128,-1,85
 760 975 760 975 811 916 c 1,86,-1
 758 16 l 2,76,77
798 1081 m 1,87,88
 781 1078 781 1078 779 1104.5 c 128,-1,89
 777 1131 777 1131 769.5 1131 c 128,-1,90
 762 1131 762 1131 763.5 1108 c 128,-1,91
 765 1085 765 1085 778 1071 c 1,92,93
 766 1067 766 1067 748 1067 c 128,-1,94
 730 1067 730 1067 706 1072 c 1,95,96
 721 1086 721 1086 723 1124 c 0,97,98
 723 1131 723 1131 715.5 1131 c 128,-1,99
 708 1131 708 1131 707 1109 c 128,-1,100
 706 1087 706 1087 699 1083.5 c 128,-1,101
 692 1080 692 1080 687 1082 c 128,-1,102
 682 1084 682 1084 678.5 1087.5 c 128,-1,103
 675 1091 675 1091 673 1092 c 2,104,-1
 672 1095 l 1,105,-1
 671 1101 l 1,106,107
 671 1132 671 1132 707 1155 c 1,108,-1
 742 1166 l 1,109,110
 775 1157 775 1157 785.5 1150.5 c 128,-1,111
 796 1144 796 1144 805.5 1129.5 c 128,-1,112
 815 1115 815 1115 813 1105 c 2,113,-1
 813 1095 l 1,114,115
 808 1088 808 1088 798 1081 c 1,87,88
EndSplineSet
Validated: 1
EndChar

StartChar: uni0505
Encoding: 1285 1285 151
Width: 1183
GlyphClass: 2
Flags: W
LayerCount: 2
Fore
SplineSet
1143 590 m 0,0,1
 1144 586 1144 586 1144 582 c 0,2,3
 1144 574 1144 574 1140 568 c 0,4,5
 1134 556 1134 556 1121 553 c 2,6,-1
 974 514 l 1,7,-1
 1093 474 l 2,8,9
 1105 470 1105 470 1111 458 c 128,-1,10
 1117 446 1117 446 1113 435 c 0,11,12
 1109 425 1109 425 1101 419.5 c 128,-1,13
 1093 414 1093 414 1084 414 c 0,14,15
 1078 414 1078 414 1074 415 c 2,16,-1
 890 476 l 2,17,18
 881 479 881 479 877 485 c 1,19,-1
 638 422 l 1,20,-1
 638 -16 l 2,21,22
 638 -28 638 -28 629 -37.5 c 128,-1,23
 620 -47 620 -47 607 -47 c 128,-1,24
 594 -47 594 -47 585.5 -38.5 c 128,-1,25
 577 -30 577 -30 577 -16 c 2,26,-1
 577 340 l 1,27,-1
 381 388 l 2,28,29
 380 386 380 386 379 385.5 c 128,-1,30
 378 385 378 385 377 384 c 2,31,-1
 223 308 l 2,32,33
 214 305 214 305 209 304 c 0,34,35
 191 304 191 304 181 322 c 0,36,37
 175 333 175 333 179.5 345.5 c 128,-1,38
 184 358 184 358 195 363 c 2,39,-1
 290 410 l 1,40,-1
 94 460 l 2,41,42
 81 463 81 463 74.5 473.5 c 128,-1,43
 68 484 68 484 71 496 c 0,44,45
 74 509 74 509 84.5 516 c 128,-1,46
 95 523 95 523 108 519 c 2,47,-1
 577 403 l 1,48,-1
 577 478 l 1,49,-1
 60 645 l 2,50,51
 48 649 48 649 43 660 c 0,52,53
 39 666 39 666 39 674 c 0,54,55
 39 679 39 679 40 684 c 0,56,57
 44 696 44 696 55.5 702 c 128,-1,58
 67 708 67 708 79 704 c 2,59,-1
 577 544 l 1,60,-1
 577 649 l 1,61,-1
 208 864 l 2,62,63
 197 869 197 869 194 882 c 128,-1,64
 191 895 191 895 197 905 c 0,65,66
 203 916 203 916 215 919.5 c 128,-1,67
 227 923 227 923 239 915 c 2,68,-1
 290 885 l 1,69,-1
 240 1015 l 2,70,71
 235 1026 235 1026 240 1039 c 128,-1,72
 245 1052 245 1052 257 1056 c 128,-1,73
 269 1060 269 1060 281 1055 c 128,-1,74
 293 1050 293 1050 297 1039 c 2,75,-1
 374 839 l 2,76,77
 375 838 375 838 375 836 c 2,78,-1
 577 719 l 1,79,-1
 577 940 l 2,80,81
 575 940 575 940 571 944 c 2,82,-1
 310 1174 l 2,83,84
 300 1182 300 1182 299.5 1195 c 128,-1,85
 299 1208 299 1208 308 1216 c 0,86,87
 315 1226 315 1226 328 1227 c 128,-1,88
 341 1228 341 1228 350 1220 c 2,89,-1
 577 1020 l 1,90,-1
 577 1228 l 2,91,92
 577 1240 577 1240 585.5 1249.5 c 128,-1,93
 594 1259 594 1259 607 1259 c 128,-1,94
 620 1259 620 1259 629 1249.5 c 128,-1,95
 638 1240 638 1240 638 1228 c 2,96,-1
 638 862 l 1,97,-1
 893 1140 l 2,98,99
 900 1149 900 1149 913.5 1149.5 c 128,-1,100
 927 1150 927 1150 936 1142 c 128,-1,101
 945 1134 945 1134 945 1121 c 128,-1,102
 945 1108 945 1108 938 1099 c 2,103,-1
 837 986 l 1,104,-1
 1034 1012 l 2,105,106
 1047 1014 1047 1014 1057 1006 c 128,-1,107
 1067 998 1067 998 1068 985 c 0,108,109
 1070 973 1070 973 1062.5 963 c 128,-1,110
 1055 953 1055 953 1041 952 c 2,111,-1
 797 920 l 1,112,-1
 791 920 l 2,113,114
 787 920 787 920 778 924 c 1,115,-1
 638 770 l 1,116,-1
 638 626 l 1,117,-1
 865 790 l 2,118,119
 875 798 875 798 888 795.5 c 128,-1,120
 901 793 901 793 908 782.5 c 128,-1,121
 915 772 915 772 912.5 759 c 128,-1,122
 910 746 910 746 900 739 c 2,123,-1
 637 549 l 1,124,-1
 637 482 l 1,125,-1
 944 565 l 2,126,127
 944 566 944 566 945 569 c 2,128,-1
 945 572 l 1,129,-1
 975 695 l 2,130,131
 978 708 978 708 989 715 c 128,-1,132
 1000 722 1000 722 1013 718 c 0,133,134
 1025 715 1025 715 1032 704.5 c 128,-1,135
 1039 694 1039 694 1035 680 c 2,136,-1
 1011 585 l 1,137,-1
 1105 612 l 2,138,139
 1118 615 1118 615 1128.5 609 c 128,-1,140
 1139 603 1139 603 1143 590 c 0,0,1
EndSplineSet
Validated: 1
EndChar

StartChar: uni0506
Encoding: 1286 1286 152
Width: 1925
GlyphClass: 2
Flags: W
LayerCount: 2
Fore
SplineSet
1149 739 m 1,0,-1
 1219 1072 l 1,1,2
 1125 1186 1125 1186 1125 1200.5 c 128,-1,3
 1125 1215 1125 1215 1134 1217 c 2,4,-1
 1135 1217 l 2,5,6
 1140 1217 1140 1217 1145 1213 c 0,7,8
 1151 1205 1151 1205 1240 1088 c 1,9,10
 1305 1044 1305 1044 1334 1024 c 128,-1,11
 1363 1004 1363 1004 1363.5 994.5 c 128,-1,12
 1364 985 1364 985 1359.5 978.5 c 128,-1,13
 1355 972 1355 972 1342.5 980.5 c 128,-1,14
 1330 989 1330 989 1293.5 1014.5 c 128,-1,15
 1257 1040 1257 1040 1239 1052 c 1,16,17
 1231 1015 1231 1015 1208 859 c 128,-1,18
 1185 703 1185 703 1173 693 c 0,19,20
 1150 676 1150 676 1129 656 c 1,21,22
 1273 512 1273 512 1375 381 c 2,23,-1
 1417 328 l 1,24,-1
 1870 124 l 1,25,-1
 1899 69 l 1,26,-1
 1744 82 l 1,27,-1
 1827 43 l 1,28,-1
 1847 4 l 1,29,-1
 1109 54 l 1,30,-1
 580 9 l 1,31,32
 505 -97 505 -97 443 -135.5 c 128,-1,33
 381 -174 381 -174 355 -174 c 0,34,35
 288 -174 288 -174 230 -116 c 128,-1,36
 172 -58 172 -58 172 18 c 0,37,38
 172 25 172 25 173 31 c 1,39,40
 150 47 150 47 92.5 128 c 128,-1,41
 35 209 35 209 35 230.5 c 128,-1,42
 35 252 35 252 39 258 c 1,43,44
 205 175 205 175 263 172 c 2,45,-1
 264 172 l 2,46,47
 306 172 306 172 350 292 c 0,48,49
 449 568 449 568 532 668 c 0,50,51
 632 791 632 791 784 802 c 1,52,-1
 803 802 l 2,53,54
 880 802 880 802 973 768 c 1,55,-1
 1113 740 l 2,56,57
 1145 735 1145 735 1149 737 c 1,58,-1
 1149 739 l 1,0,-1
EndSplineSet
Validated: 1
EndChar

StartChar: uni0507
Encoding: 1287 1287 153
Width: 1282
GlyphClass: 2
Flags: W
LayerCount: 2
Fore
SplineSet
721 -49 m 1,0,-1
 713 -49 l 2,1,2
 687 -49 687 -49 642 -23.5 c 128,-1,3
 597 2 597 2 578.5 3.5 c 128,-1,4
 560 5 560 5 533 -3 c 128,-1,5
 506 -11 506 -11 486 -11 c 0,6,7
 400 -11 400 -11 295 124 c 0,8,9
 276 148 276 148 247 188 c 128,-1,10
 218 228 218 228 204 247 c 0,11,12
 64 422 64 422 64 620 c 0,13,14
 64 857 64 857 226 993 c 0,15,16
 326 1077 326 1077 473 1077 c 1,17,-1
 532 1075 l 1,18,-1
 539 1075 l 1,19,20
 546 1167 546 1167 551.5 1202.5 c 128,-1,21
 557 1238 557 1238 558 1250 c 0,22,23
 564 1321 564 1321 594 1331 c 0,24,25
 602 1334 602 1334 615 1333 c 0,26,27
 655 1331 655 1331 655 1304 c 0,28,29
 655 1287 655 1287 632.5 1234.5 c 128,-1,30
 610 1182 610 1182 604.5 1158 c 128,-1,31
 599 1134 599 1134 599 1083 c 1,32,33
 630 1090 630 1090 701 1109.5 c 128,-1,34
 772 1129 772 1129 844 1129 c 128,-1,35
 916 1129 916 1129 1011 1093 c 0,36,37
 1221 1012 1221 1012 1221 693 c 0,38,39
 1221 642 1221 642 1207 561 c 0,40,41
 1177 384 1177 384 1070 198 c 0,42,43
 982 47 982 47 822 -21 c 0,44,45
 772 -42 772 -42 721 -49 c 1,0,-1
EndSplineSet
Validated: 1
EndChar

